G04 (created by PCBNEW-RS274X (2012-01-19 BZR 3256)-stable) date 4/30/2012 12:17:17 AM*
G01*
G70*
G90*
%MOIN*%
G04 Gerber Fmt 3.4, Leading zero omitted, Abs format*
%FSLAX34Y34*%
G04 APERTURE LIST*
%ADD10C,0.006000*%
%ADD11C,0.015000*%
%ADD12C,0.076000*%
%ADD13R,0.080000X0.080000*%
%ADD14C,0.080000*%
%ADD15C,0.084000*%
%ADD16R,0.084000X0.084000*%
%ADD17C,0.088000*%
%ADD18C,0.169000*%
%ADD19C,0.051500*%
%ADD20R,0.092000X0.092000*%
%ADD21C,0.092000*%
%ADD22C,0.091200*%
%ADD23R,0.088000X0.088000*%
G04 APERTURE END LIST*
G54D10*
G54D11*
X46000Y-56900D02*
X47600Y-55300D01*
X43100Y-54000D02*
X46000Y-56900D01*
X44700Y-52400D02*
X43100Y-54000D01*
X76900Y-54000D02*
X74000Y-56900D01*
X75300Y-52400D02*
X76900Y-54000D01*
X72400Y-55300D02*
X74000Y-56900D01*
X47600Y-24700D02*
X51900Y-20400D01*
X46000Y-23100D02*
X43100Y-26000D01*
X47600Y-24700D02*
X46000Y-23100D01*
X44700Y-27600D02*
X43100Y-26000D01*
X79600Y-48100D02*
X75300Y-52400D01*
X68100Y-59600D02*
X72400Y-55300D01*
X40400Y-48100D02*
X44700Y-52400D01*
X51900Y-59600D02*
X47600Y-55300D01*
X40400Y-31900D02*
X44700Y-27600D01*
X75300Y-27600D02*
X79600Y-31900D01*
X72400Y-24700D02*
X68100Y-20400D01*
X76900Y-26000D02*
X74000Y-23100D01*
X75300Y-27600D02*
X76900Y-26000D01*
X72400Y-24700D02*
X74000Y-23100D01*
X79600Y-31900D02*
X79600Y-48100D01*
X51900Y-20400D02*
X68100Y-20400D01*
X40400Y-48100D02*
X40400Y-31900D01*
X68100Y-59600D02*
X51900Y-59600D01*
G54D12*
X60000Y-26295D03*
X60000Y-27295D03*
X60000Y-21488D03*
X60000Y-22488D03*
X69256Y-23968D03*
X68756Y-24834D03*
X60000Y-23906D03*
X60000Y-24906D03*
X68047Y-26062D03*
X67547Y-26928D03*
X66852Y-28131D03*
X66352Y-28997D03*
X62187Y-21222D03*
X62083Y-22216D03*
X64068Y-21518D03*
X63860Y-22496D03*
X65797Y-22004D03*
X65487Y-22956D03*
X67495Y-22644D03*
X67089Y-23558D03*
X61906Y-23623D03*
X61802Y-24617D03*
X63469Y-23881D03*
X63261Y-24859D03*
X65056Y-24305D03*
X64746Y-25257D03*
X66537Y-24863D03*
X66131Y-25777D03*
X76032Y-30744D03*
X75166Y-31244D03*
X73938Y-31953D03*
X73072Y-32453D03*
X71869Y-33148D03*
X71003Y-33648D03*
X71283Y-24830D03*
X70695Y-25640D03*
X72686Y-25982D03*
X72016Y-26726D03*
X74018Y-27314D03*
X73274Y-27984D03*
X75170Y-28717D03*
X74360Y-29305D03*
X69840Y-26769D03*
X69252Y-27579D03*
X71064Y-27774D03*
X70394Y-28518D03*
X72226Y-28936D03*
X71482Y-29606D03*
X73231Y-30160D03*
X72421Y-30748D03*
X78512Y-40000D03*
X77512Y-40000D03*
X76094Y-40000D03*
X75094Y-40000D03*
X73705Y-40000D03*
X72705Y-40000D03*
X77356Y-32505D03*
X76442Y-32911D03*
X77996Y-34203D03*
X77044Y-34513D03*
X78482Y-36022D03*
X77504Y-36230D03*
X78778Y-37813D03*
X77784Y-37917D03*
X75137Y-33463D03*
X74223Y-33869D03*
X75695Y-34944D03*
X74743Y-35254D03*
X76119Y-36531D03*
X75141Y-36739D03*
X76377Y-38094D03*
X75383Y-38198D03*
X76032Y-49256D03*
X75166Y-48756D03*
X73938Y-48047D03*
X73072Y-47547D03*
X71869Y-46852D03*
X71003Y-46352D03*
X78778Y-42187D03*
X77784Y-42083D03*
X78482Y-43978D03*
X77504Y-43770D03*
X77996Y-45797D03*
X77044Y-45487D03*
X77356Y-47495D03*
X76442Y-47089D03*
X76377Y-41906D03*
X75383Y-41802D03*
X76119Y-43469D03*
X75141Y-43261D03*
X75695Y-45056D03*
X74743Y-44746D03*
X75137Y-46537D03*
X74223Y-46131D03*
X69256Y-56032D03*
X68756Y-55166D03*
X68047Y-53938D03*
X67547Y-53072D03*
X66852Y-51869D03*
X66352Y-51003D03*
X75170Y-51283D03*
X74360Y-50695D03*
X74018Y-52686D03*
X73274Y-52016D03*
X72686Y-54018D03*
X72016Y-53274D03*
X71283Y-55170D03*
X70695Y-54360D03*
X73231Y-49840D03*
X72421Y-49252D03*
X72226Y-51064D03*
X71482Y-50394D03*
X71064Y-52226D03*
X70394Y-51482D03*
X69840Y-53231D03*
X69252Y-52421D03*
X60000Y-58512D03*
X60000Y-57512D03*
X60000Y-56094D03*
X60000Y-55094D03*
X60000Y-53705D03*
X60000Y-52705D03*
X67495Y-57356D03*
X67089Y-56442D03*
X65797Y-57996D03*
X65487Y-57044D03*
X63978Y-58482D03*
X63770Y-57504D03*
X62187Y-58778D03*
X62083Y-57784D03*
X66537Y-55137D03*
X66131Y-54223D03*
X65056Y-55695D03*
X64746Y-54743D03*
X63469Y-56119D03*
X63261Y-55141D03*
X61906Y-56377D03*
X61802Y-55383D03*
X50744Y-56032D03*
X51244Y-55166D03*
X51953Y-53938D03*
X52453Y-53072D03*
X53148Y-51869D03*
X53648Y-51003D03*
X57813Y-58778D03*
X57917Y-57784D03*
X56022Y-58482D03*
X56230Y-57504D03*
X54203Y-57996D03*
X54513Y-57044D03*
X52505Y-57356D03*
X52911Y-56442D03*
X58094Y-56377D03*
X58198Y-55383D03*
X56531Y-56119D03*
X56739Y-55141D03*
X54944Y-55695D03*
X55254Y-54743D03*
X53463Y-55137D03*
X53869Y-54223D03*
X43968Y-49256D03*
X44834Y-48756D03*
X46062Y-48047D03*
X46928Y-47547D03*
X48131Y-46852D03*
X48997Y-46352D03*
X48717Y-55170D03*
X49305Y-54360D03*
X47314Y-54018D03*
X47984Y-53274D03*
X45982Y-52686D03*
X46726Y-52016D03*
X44830Y-51283D03*
X45640Y-50695D03*
X50160Y-53231D03*
X50748Y-52421D03*
X48936Y-52226D03*
X49606Y-51482D03*
X47774Y-51064D03*
X48518Y-50394D03*
X46769Y-49840D03*
X47579Y-49252D03*
X62000Y-33200D03*
X62000Y-30700D03*
X57500Y-35000D03*
X57500Y-37500D03*
X56500Y-35000D03*
X56500Y-37500D03*
X67000Y-33200D03*
X67000Y-30700D03*
X57000Y-33200D03*
X57000Y-30700D03*
X66500Y-45000D03*
X66500Y-42500D03*
X65500Y-35000D03*
X65500Y-37500D03*
X56500Y-42500D03*
X56500Y-45000D03*
X58500Y-45000D03*
X58500Y-42500D03*
X64500Y-45000D03*
X64500Y-42500D03*
X55500Y-35000D03*
X55500Y-37500D03*
X53500Y-35000D03*
X53500Y-37500D03*
X66500Y-35000D03*
X66500Y-37500D03*
X54500Y-35000D03*
X54500Y-37500D03*
X57500Y-45000D03*
X57500Y-42500D03*
X63500Y-45000D03*
X63500Y-42500D03*
X65500Y-45000D03*
X65500Y-42500D03*
X53500Y-45000D03*
X53500Y-42500D03*
X63500Y-35000D03*
X63500Y-37500D03*
X64500Y-35000D03*
X64500Y-37500D03*
X62500Y-35000D03*
X62500Y-37500D03*
X51500Y-41500D03*
X51500Y-44000D03*
G54D13*
X59500Y-42500D03*
G54D14*
X60500Y-42500D03*
G54D13*
X61500Y-37500D03*
G54D14*
X61500Y-36500D03*
G54D13*
X63000Y-32200D03*
G54D14*
X63000Y-33200D03*
G54D13*
X60500Y-37500D03*
G54D14*
X59500Y-37500D03*
G54D13*
X68000Y-33200D03*
G54D14*
X68000Y-32200D03*
G54D13*
X58000Y-33200D03*
G54D14*
X58000Y-32200D03*
G54D13*
X52500Y-43500D03*
G54D14*
X52500Y-42500D03*
G54D15*
X61500Y-46250D03*
G54D16*
X58500Y-46250D03*
G54D12*
X41488Y-40000D03*
X42488Y-40000D03*
X43906Y-40000D03*
X44906Y-40000D03*
X46295Y-40000D03*
X47295Y-40000D03*
X42644Y-47495D03*
X43558Y-47089D03*
X42005Y-45799D03*
X42957Y-45489D03*
X41518Y-43978D03*
X42496Y-43770D03*
X41222Y-42187D03*
X42216Y-42083D03*
X44863Y-46537D03*
X45777Y-46131D03*
X44306Y-45057D03*
X45258Y-44747D03*
X43881Y-43469D03*
X44859Y-43261D03*
X43623Y-41906D03*
X44617Y-41802D03*
X60500Y-34600D03*
X59500Y-34600D03*
X60500Y-29000D03*
X59500Y-29000D03*
X43968Y-30744D03*
X44834Y-31244D03*
X46062Y-31953D03*
X46928Y-32453D03*
X48131Y-33148D03*
X48997Y-33648D03*
X41222Y-37813D03*
X42216Y-37917D03*
X41518Y-36022D03*
X42496Y-36230D03*
X42004Y-34203D03*
X42956Y-34513D03*
X42644Y-32505D03*
X43558Y-32911D03*
X43623Y-38094D03*
X44617Y-38198D03*
X43881Y-36531D03*
X44859Y-36739D03*
X44305Y-34944D03*
X45257Y-35254D03*
X44863Y-33463D03*
X45777Y-33869D03*
X50744Y-23968D03*
X51244Y-24834D03*
X51953Y-26062D03*
X52453Y-26928D03*
X53148Y-28131D03*
X53648Y-28997D03*
X44830Y-28717D03*
X45640Y-29305D03*
X45982Y-27314D03*
X46726Y-27984D03*
X47314Y-25982D03*
X47984Y-26726D03*
X48717Y-24830D03*
X49305Y-25640D03*
X46769Y-30160D03*
X47579Y-30748D03*
X47774Y-28936D03*
X48518Y-29606D03*
X48936Y-27774D03*
X49606Y-28518D03*
X50160Y-26769D03*
X50748Y-27579D03*
X52503Y-22644D03*
X52909Y-23558D03*
X54203Y-22004D03*
X54513Y-22956D03*
X56022Y-21518D03*
X56230Y-22496D03*
X57813Y-21222D03*
X57917Y-22216D03*
X53463Y-24863D03*
X53869Y-25777D03*
X54944Y-24305D03*
X55254Y-25257D03*
X56531Y-23881D03*
X56739Y-24859D03*
X58094Y-23623D03*
X58198Y-24617D03*
G54D17*
X60886Y-33230D03*
X59114Y-33230D03*
X60886Y-30670D03*
X59114Y-30670D03*
X65886Y-33230D03*
X64114Y-33230D03*
X65886Y-30670D03*
X64114Y-30670D03*
X55886Y-33230D03*
X54114Y-33230D03*
X55886Y-30670D03*
X54114Y-30670D03*
X47970Y-43636D03*
X47970Y-41864D03*
X50530Y-43636D03*
X50530Y-41864D03*
X67000Y-49000D03*
X67000Y-48000D03*
X67000Y-47000D03*
G54D18*
X45500Y-25500D03*
X74500Y-25500D03*
X45500Y-54500D03*
X74500Y-54500D03*
G54D19*
X61803Y-42250D03*
X62197Y-42250D03*
G54D20*
X49800Y-38184D03*
G54D21*
X49800Y-36216D03*
G54D16*
X56750Y-47742D03*
G54D15*
X56750Y-46758D03*
G54D16*
X56750Y-49356D03*
G54D15*
X56750Y-50144D03*
G54D16*
X63250Y-47356D03*
G54D15*
X63250Y-48144D03*
G54D17*
X55950Y-52000D03*
X56950Y-52000D03*
G54D22*
X62500Y-50559D03*
X57500Y-50559D03*
G54D23*
X68500Y-39000D03*
G54D17*
X69500Y-39000D03*
X68500Y-40000D03*
X69500Y-40000D03*
X68500Y-41000D03*
X69500Y-41000D03*
X54500Y-41500D03*
X55500Y-41500D03*
X56500Y-41500D03*
X57500Y-41500D03*
X58500Y-41500D03*
X59500Y-41500D03*
X60500Y-41500D03*
X61500Y-41500D03*
X62500Y-41500D03*
X63500Y-41500D03*
X64500Y-41500D03*
X65500Y-41500D03*
X66500Y-41500D03*
G54D23*
X53500Y-41500D03*
G54D17*
X66500Y-38500D03*
X65500Y-38500D03*
X64500Y-38500D03*
X63500Y-38500D03*
X62500Y-38500D03*
X61500Y-38500D03*
X60500Y-38500D03*
X59500Y-38500D03*
X58500Y-38500D03*
X57500Y-38500D03*
X56500Y-38500D03*
X55500Y-38500D03*
X54500Y-38500D03*
X53500Y-38500D03*
G54D23*
X61500Y-50500D03*
G54D17*
X61500Y-49500D03*
X61500Y-48500D03*
X61500Y-47500D03*
X58500Y-47500D03*
X58500Y-48500D03*
X58500Y-49500D03*
X58500Y-50500D03*
M02*
