G04 (created by PCBNEW-RS274X (2012-01-19 BZR 3256)-stable) date 4/30/2012 12:17:17 AM*
G01*
G70*
G90*
%MOIN*%
G04 Gerber Fmt 3.4, Leading zero omitted, Abs format*
%FSLAX34Y34*%
G04 APERTURE LIST*
%ADD10C,0.006000*%
%ADD11C,0.015000*%
%ADD12C,0.012000*%
G04 APERTURE END LIST*
G54D10*
G54D11*
X46000Y-56900D02*
X47600Y-55300D01*
X43100Y-54000D02*
X46000Y-56900D01*
X44700Y-52400D02*
X43100Y-54000D01*
X76900Y-54000D02*
X74000Y-56900D01*
X75300Y-52400D02*
X76900Y-54000D01*
X72400Y-55300D02*
X74000Y-56900D01*
X47600Y-24700D02*
X51900Y-20400D01*
X46000Y-23100D02*
X43100Y-26000D01*
X47600Y-24700D02*
X46000Y-23100D01*
X44700Y-27600D02*
X43100Y-26000D01*
X79600Y-48100D02*
X75300Y-52400D01*
X68100Y-59600D02*
X72400Y-55300D01*
X40400Y-48100D02*
X44700Y-52400D01*
X51900Y-59600D02*
X47600Y-55300D01*
X40400Y-31900D02*
X44700Y-27600D01*
X75300Y-27600D02*
X79600Y-31900D01*
X72400Y-24700D02*
X68100Y-20400D01*
X76900Y-26000D02*
X74000Y-23100D01*
X75300Y-27600D02*
X76900Y-26000D01*
X72400Y-24700D02*
X74000Y-23100D01*
X79600Y-31900D02*
X79600Y-48100D01*
X51900Y-20400D02*
X68100Y-20400D01*
X40400Y-48100D02*
X40400Y-31900D01*
X68100Y-59600D02*
X51900Y-59600D01*
G54D12*
X74729Y-42024D02*
X74395Y-42024D01*
X74729Y-42824D01*
X74395Y-42824D01*
X73991Y-42824D02*
X73991Y-42405D01*
X74014Y-42329D01*
X74062Y-42290D01*
X74157Y-42290D01*
X74205Y-42329D01*
X73991Y-42786D02*
X74038Y-42824D01*
X74157Y-42824D01*
X74205Y-42786D01*
X74229Y-42710D01*
X74229Y-42633D01*
X74205Y-42557D01*
X74157Y-42519D01*
X74038Y-42519D01*
X73991Y-42481D01*
X73539Y-42786D02*
X73586Y-42824D01*
X73682Y-42824D01*
X73729Y-42786D01*
X73753Y-42748D01*
X73777Y-42671D01*
X73777Y-42443D01*
X73753Y-42367D01*
X73729Y-42329D01*
X73682Y-42290D01*
X73586Y-42290D01*
X73539Y-42329D01*
X73324Y-42824D02*
X73324Y-42024D01*
X73110Y-42824D02*
X73110Y-42405D01*
X73133Y-42329D01*
X73181Y-42290D01*
X73253Y-42290D01*
X73300Y-42329D01*
X73324Y-42367D01*
X72658Y-42824D02*
X72658Y-42405D01*
X72681Y-42329D01*
X72729Y-42290D01*
X72824Y-42290D01*
X72872Y-42329D01*
X72658Y-42786D02*
X72705Y-42824D01*
X72824Y-42824D01*
X72872Y-42786D01*
X72896Y-42710D01*
X72896Y-42633D01*
X72872Y-42557D01*
X72824Y-42519D01*
X72705Y-42519D01*
X72658Y-42481D01*
X72420Y-42824D02*
X72420Y-42290D01*
X72420Y-42443D02*
X72396Y-42367D01*
X72372Y-42329D01*
X72325Y-42290D01*
X72277Y-42290D01*
X72158Y-42290D02*
X72039Y-42824D01*
X71919Y-42290D02*
X72039Y-42824D01*
X72086Y-43014D01*
X72110Y-43052D01*
X72158Y-43090D01*
X71348Y-42824D02*
X71348Y-42024D01*
X71348Y-42405D02*
X71062Y-42405D01*
X71062Y-42824D02*
X71062Y-42024D01*
X70633Y-42786D02*
X70681Y-42824D01*
X70776Y-42824D01*
X70824Y-42786D01*
X70848Y-42710D01*
X70848Y-42405D01*
X70824Y-42329D01*
X70776Y-42290D01*
X70681Y-42290D01*
X70633Y-42329D01*
X70610Y-42405D01*
X70610Y-42481D01*
X70848Y-42557D01*
X70395Y-42824D02*
X70395Y-42290D01*
X70395Y-42024D02*
X70419Y-42062D01*
X70395Y-42100D01*
X70371Y-42062D01*
X70395Y-42024D01*
X70395Y-42100D01*
X70086Y-42824D02*
X70133Y-42786D01*
X70157Y-42710D01*
X70157Y-42024D01*
X69895Y-42824D02*
X69895Y-42290D01*
X69895Y-42024D02*
X69919Y-42062D01*
X69895Y-42100D01*
X69871Y-42062D01*
X69895Y-42024D01*
X69895Y-42100D01*
X69443Y-42290D02*
X69443Y-42938D01*
X69466Y-43014D01*
X69490Y-43052D01*
X69538Y-43090D01*
X69609Y-43090D01*
X69657Y-43052D01*
X69443Y-42786D02*
X69490Y-42824D01*
X69586Y-42824D01*
X69633Y-42786D01*
X69657Y-42748D01*
X69681Y-42671D01*
X69681Y-42443D01*
X69657Y-42367D01*
X69633Y-42329D01*
X69586Y-42290D01*
X69490Y-42290D01*
X69443Y-42329D01*
X74729Y-43530D02*
X74467Y-43530D01*
X74729Y-44064D01*
X74467Y-44064D01*
X74062Y-44064D02*
X74062Y-43645D01*
X74085Y-43569D01*
X74133Y-43530D01*
X74228Y-43530D01*
X74276Y-43569D01*
X74062Y-44026D02*
X74109Y-44064D01*
X74228Y-44064D01*
X74276Y-44026D01*
X74300Y-43950D01*
X74300Y-43873D01*
X74276Y-43797D01*
X74228Y-43759D01*
X74109Y-43759D01*
X74062Y-43721D01*
X73610Y-44026D02*
X73657Y-44064D01*
X73753Y-44064D01*
X73800Y-44026D01*
X73824Y-43988D01*
X73848Y-43911D01*
X73848Y-43683D01*
X73824Y-43607D01*
X73800Y-43569D01*
X73753Y-43530D01*
X73657Y-43530D01*
X73610Y-43569D01*
X73395Y-44064D02*
X73395Y-43264D01*
X73181Y-44064D02*
X73181Y-43645D01*
X73204Y-43569D01*
X73252Y-43530D01*
X73324Y-43530D01*
X73371Y-43569D01*
X73395Y-43607D01*
X72943Y-43988D02*
X72919Y-44026D01*
X72943Y-44064D01*
X72967Y-44026D01*
X72943Y-43988D01*
X72943Y-44064D01*
X72705Y-44064D02*
X72705Y-43264D01*
X72491Y-44064D02*
X72491Y-43645D01*
X72514Y-43569D01*
X72562Y-43530D01*
X72634Y-43530D01*
X72681Y-43569D01*
X72705Y-43607D01*
X72062Y-44026D02*
X72110Y-44064D01*
X72205Y-44064D01*
X72253Y-44026D01*
X72277Y-43950D01*
X72277Y-43645D01*
X72253Y-43569D01*
X72205Y-43530D01*
X72110Y-43530D01*
X72062Y-43569D01*
X72039Y-43645D01*
X72039Y-43721D01*
X72277Y-43797D01*
X71824Y-44064D02*
X71824Y-43530D01*
X71824Y-43264D02*
X71848Y-43302D01*
X71824Y-43340D01*
X71800Y-43302D01*
X71824Y-43264D01*
X71824Y-43340D01*
X71515Y-44064D02*
X71562Y-44026D01*
X71586Y-43950D01*
X71586Y-43264D01*
X71324Y-44064D02*
X71324Y-43530D01*
X71324Y-43264D02*
X71348Y-43302D01*
X71324Y-43340D01*
X71300Y-43302D01*
X71324Y-43264D01*
X71324Y-43340D01*
X70872Y-43530D02*
X70872Y-44178D01*
X70895Y-44254D01*
X70919Y-44292D01*
X70967Y-44330D01*
X71038Y-44330D01*
X71086Y-44292D01*
X70872Y-44026D02*
X70919Y-44064D01*
X71015Y-44064D01*
X71062Y-44026D01*
X71086Y-43988D01*
X71110Y-43911D01*
X71110Y-43683D01*
X71086Y-43607D01*
X71062Y-43569D01*
X71015Y-43530D01*
X70919Y-43530D01*
X70872Y-43569D01*
X70324Y-43683D02*
X70348Y-43645D01*
X70396Y-43607D01*
X70443Y-43607D01*
X70491Y-43645D01*
X70515Y-43683D01*
X70539Y-43759D01*
X70539Y-43835D01*
X70515Y-43911D01*
X70491Y-43950D01*
X70443Y-43988D01*
X70396Y-43988D01*
X70348Y-43950D01*
X70324Y-43911D01*
X70324Y-43607D02*
X70324Y-43911D01*
X70301Y-43950D01*
X70277Y-43950D01*
X70229Y-43911D01*
X70205Y-43835D01*
X70205Y-43645D01*
X70253Y-43530D01*
X70324Y-43454D01*
X70420Y-43416D01*
X70515Y-43454D01*
X70586Y-43530D01*
X70634Y-43645D01*
X70658Y-43797D01*
X70634Y-43950D01*
X70586Y-44064D01*
X70515Y-44140D01*
X70420Y-44178D01*
X70324Y-44140D01*
X70253Y-44064D01*
X69777Y-43530D02*
X69777Y-44178D01*
X69800Y-44254D01*
X69824Y-44292D01*
X69872Y-44330D01*
X69943Y-44330D01*
X69991Y-44292D01*
X69777Y-44026D02*
X69824Y-44064D01*
X69920Y-44064D01*
X69967Y-44026D01*
X69991Y-43988D01*
X70015Y-43911D01*
X70015Y-43683D01*
X69991Y-43607D01*
X69967Y-43569D01*
X69920Y-43530D01*
X69824Y-43530D01*
X69777Y-43569D01*
X69539Y-44064D02*
X69539Y-43530D01*
X69539Y-43607D02*
X69515Y-43569D01*
X69468Y-43530D01*
X69396Y-43530D01*
X69348Y-43569D01*
X69325Y-43645D01*
X69325Y-44064D01*
X69325Y-43645D02*
X69301Y-43569D01*
X69253Y-43530D01*
X69182Y-43530D01*
X69134Y-43569D01*
X69110Y-43645D01*
X69110Y-44064D01*
X68658Y-44064D02*
X68658Y-43645D01*
X68681Y-43569D01*
X68729Y-43530D01*
X68824Y-43530D01*
X68872Y-43569D01*
X68658Y-44026D02*
X68705Y-44064D01*
X68824Y-44064D01*
X68872Y-44026D01*
X68896Y-43950D01*
X68896Y-43873D01*
X68872Y-43797D01*
X68824Y-43759D01*
X68705Y-43759D01*
X68658Y-43721D01*
X68420Y-44064D02*
X68420Y-43530D01*
X68420Y-43264D02*
X68444Y-43302D01*
X68420Y-43340D01*
X68396Y-43302D01*
X68420Y-43264D01*
X68420Y-43340D01*
X68111Y-44064D02*
X68158Y-44026D01*
X68182Y-43950D01*
X68182Y-43264D01*
X67920Y-43988D02*
X67896Y-44026D01*
X67920Y-44064D01*
X67944Y-44026D01*
X67920Y-43988D01*
X67920Y-44064D01*
X67468Y-44026D02*
X67515Y-44064D01*
X67611Y-44064D01*
X67658Y-44026D01*
X67682Y-43988D01*
X67706Y-43911D01*
X67706Y-43683D01*
X67682Y-43607D01*
X67658Y-43569D01*
X67611Y-43530D01*
X67515Y-43530D01*
X67468Y-43569D01*
X67182Y-44064D02*
X67229Y-44026D01*
X67253Y-43988D01*
X67277Y-43911D01*
X67277Y-43683D01*
X67253Y-43607D01*
X67229Y-43569D01*
X67182Y-43530D01*
X67110Y-43530D01*
X67062Y-43569D01*
X67039Y-43607D01*
X67015Y-43683D01*
X67015Y-43911D01*
X67039Y-43988D01*
X67062Y-44026D01*
X67110Y-44064D01*
X67182Y-44064D01*
X66801Y-44064D02*
X66801Y-43530D01*
X66801Y-43607D02*
X66777Y-43569D01*
X66730Y-43530D01*
X66658Y-43530D01*
X66610Y-43569D01*
X66587Y-43645D01*
X66587Y-44064D01*
X66587Y-43645D02*
X66563Y-43569D01*
X66515Y-43530D01*
X66444Y-43530D01*
X66396Y-43569D01*
X66372Y-43645D01*
X66372Y-44064D01*
G54D11*
X53681Y-51476D02*
X53681Y-28839D01*
X53681Y-28839D02*
X66319Y-28839D01*
X66319Y-28839D02*
X66319Y-51476D01*
X66319Y-51476D02*
X53681Y-51476D01*
M02*
