G04 (created by PCBNEW-RS274X (2012-01-19 BZR 3256)-stable) date 4/30/2012 12:17:17 AM*
G01*
G70*
G90*
%MOIN*%
G04 Gerber Fmt 3.4, Leading zero omitted, Abs format*
%FSLAX34Y34*%
G04 APERTURE LIST*
%ADD10C,0.006000*%
%ADD11C,0.015000*%
G04 APERTURE END LIST*
G54D10*
G54D11*
X46000Y-56900D02*
X47600Y-55300D01*
X43100Y-54000D02*
X46000Y-56900D01*
X44700Y-52400D02*
X43100Y-54000D01*
X76900Y-54000D02*
X74000Y-56900D01*
X75300Y-52400D02*
X76900Y-54000D01*
X72400Y-55300D02*
X74000Y-56900D01*
X47600Y-24700D02*
X51900Y-20400D01*
X46000Y-23100D02*
X43100Y-26000D01*
X47600Y-24700D02*
X46000Y-23100D01*
X44700Y-27600D02*
X43100Y-26000D01*
X79600Y-48100D02*
X75300Y-52400D01*
X68100Y-59600D02*
X72400Y-55300D01*
X40400Y-48100D02*
X44700Y-52400D01*
X51900Y-59600D02*
X47600Y-55300D01*
X40400Y-31900D02*
X44700Y-27600D01*
X75300Y-27600D02*
X79600Y-31900D01*
X72400Y-24700D02*
X68100Y-20400D01*
X76900Y-26000D02*
X74000Y-23100D01*
X75300Y-27600D02*
X76900Y-26000D01*
X72400Y-24700D02*
X74000Y-23100D01*
X79600Y-31900D02*
X79600Y-48100D01*
X51900Y-20400D02*
X68100Y-20400D01*
X40400Y-48100D02*
X40400Y-31900D01*
X68100Y-59600D02*
X51900Y-59600D01*
M02*
