M48
METRIC,TZ
T1C0.399
T2C0.500
T3C0.813
T4C0.914
T5C1.001
T6C1.016
T7C1.118
T8C1.199
T9C2.360
T10C3.175
%
G90
G05
T1
X144780Y-109982
X150899Y-140701
X152400Y-106680
T2
X156980Y-107315
X157980Y-107315
T3
X104704Y-096045
X104704Y-107155
X105380Y-101600
X105456Y-091496
X105456Y-111704
X106690Y-086876
X106693Y-116329
X107229Y-096309
X107229Y-106891
X107920Y-101600
X107940Y-092024
X107940Y-111176
X108316Y-082563
X108316Y-120637
X109108Y-087663
X109111Y-115542
X110637Y-083594
X110637Y-119606
X110802Y-096759
X110802Y-106441
X111458Y-092789
X111458Y-110411
X111521Y-101600
X111679Y-078090
X111679Y-125110
X112535Y-088758
X112537Y-114445
X113327Y-097023
X113327Y-106177
X113868Y-072941
X113868Y-130259
X113878Y-079360
X113878Y-123840
X113942Y-093317
X113942Y-109883
X113952Y-084996
X113952Y-118204
X114061Y-101600
X114953Y-089545
X114955Y-113657
X115926Y-074435
X115926Y-128765
X116274Y-086027
X116274Y-117173
X116794Y-069378
X116794Y-133822
X116997Y-081161
X116997Y-122039
X117589Y-101600
X118684Y-071079
X118684Y-132121
X118793Y-076606
X118793Y-126594
X119197Y-082431
X119197Y-120769
X120129Y-101600
X120178Y-065994
X120178Y-137206
X120851Y-078100
X120851Y-125100
X121346Y-073497
X121346Y-129703
X121879Y-067884
X121879Y-135316
X122253Y-084196
X122253Y-119004
X123236Y-075199
X123236Y-128001
X123741Y-063068
X123741Y-140132
X124297Y-070546
X124297Y-132654
X124452Y-085466
X124452Y-117734
X125235Y-065126
X125235Y-138074
X125999Y-072436
X125999Y-130764
X127406Y-067993
X127406Y-135207
X128890Y-060879
X128890Y-142321
X128900Y-070051
X128900Y-133149
X130160Y-063078
X130160Y-140122
X130810Y-105410
X130810Y-111760
X131961Y-066197
X131961Y-137003
X133231Y-068397
X133231Y-134803
X133358Y-057516
X133363Y-145684
X134389Y-059837
X134394Y-143363
X134996Y-071453
X134996Y-131747
X135796Y-063152
X135796Y-140048
X135890Y-088900
X135890Y-095250
X135890Y-107950
X135890Y-114300
X136266Y-073652
X136266Y-129548
X136827Y-065474
X136827Y-137726
X137676Y-055890
X137676Y-147310
X138430Y-088900
X138430Y-095250
X138463Y-058308
X138463Y-144892
X139558Y-061735
X139558Y-141465
X140345Y-064153
X140345Y-139047
X140970Y-088900
X140970Y-095250
X142296Y-054656
X142296Y-148544
X142824Y-057140
X142824Y-146060
X143510Y-088900
X143510Y-095250
X143510Y-107950
X143510Y-114300
X143589Y-060658
X143589Y-142542
X144117Y-063142
X144117Y-140058
X144780Y-077978
X144780Y-084328
X146050Y-088900
X146050Y-095250
X146050Y-107950
X146050Y-114300
X146845Y-053904
X146845Y-149296
X147109Y-056429
X147109Y-146771
X147559Y-060002
X147559Y-143198
X147823Y-062527
X147823Y-140673
X148590Y-107950
X148590Y-114300
X151130Y-073660
X151130Y-087884
X152400Y-054580
X152400Y-057120
X152400Y-060721
X152400Y-063261
X152400Y-066789
X152400Y-069329
X152400Y-133871
X152400Y-136411
X152400Y-139939
X152400Y-142479
X152400Y-146080
X152400Y-148620
X153670Y-073660
X153670Y-087884
X156977Y-062527
X156977Y-140673
X157241Y-060002
X157241Y-143198
X157480Y-077978
X157480Y-084328
X157691Y-056429
X157691Y-146771
X157955Y-053904
X157955Y-149296
X158750Y-088900
X158750Y-095250
X160683Y-063142
X160683Y-140058
X161211Y-060658
X161211Y-142542
X161290Y-088900
X161290Y-095250
X161290Y-107950
X161290Y-114300
X161976Y-146060
X162204Y-057140
X162504Y-148544
X162733Y-054656
X163830Y-088900
X163830Y-095250
X163830Y-107950
X163830Y-114300
X164455Y-064153
X164455Y-139047
X165242Y-061735
X165242Y-141465
X166337Y-058308
X166337Y-144892
X166370Y-088900
X166370Y-095250
X166370Y-107950
X166370Y-114300
X167124Y-055890
X167124Y-147310
X167973Y-065474
X167973Y-137726
X168534Y-073652
X168534Y-129548
X168910Y-088900
X168910Y-095250
X168910Y-107950
X168910Y-114300
X169004Y-063152
X169004Y-140048
X169804Y-071453
X169804Y-131747
X170180Y-077978
X170180Y-084328
X170406Y-059837
X170406Y-143363
X171437Y-057516
X171437Y-145684
X171569Y-068397
X171569Y-134803
X172839Y-066197
X172839Y-137003
X174640Y-063078
X174640Y-140122
X175900Y-070051
X175900Y-133149
X175910Y-060879
X175910Y-142321
X177394Y-067993
X177394Y-135207
X178801Y-072436
X178801Y-130764
X179565Y-065126
X179565Y-138074
X180348Y-085466
X180348Y-117734
X180503Y-070546
X180503Y-132654
X181059Y-063068
X181059Y-140132
X181564Y-075199
X181564Y-128001
X182547Y-084196
X182547Y-119004
X182921Y-067884
X182921Y-135316
X183454Y-073497
X183454Y-129703
X183949Y-078100
X183949Y-125100
X184622Y-065994
X184622Y-137206
X184671Y-101600
X185603Y-082431
X185603Y-120769
X186007Y-076606
X186007Y-126594
X186116Y-071079
X186116Y-132121
X187211Y-101600
X187803Y-081161
X187803Y-122039
X188006Y-069378
X188006Y-133822
X188526Y-086027
X188526Y-117173
X188874Y-074435
X188874Y-128765
X189847Y-089545
X189847Y-113655
X190739Y-101600
X190848Y-084996
X190848Y-118204
X190858Y-093317
X190858Y-109883
X190922Y-079360
X190922Y-123840
X190932Y-072941
X190932Y-130259
X191473Y-097023
X191473Y-106177
X192265Y-088758
X192265Y-114442
X193121Y-078090
X193121Y-125110
X193279Y-101600
X193342Y-092789
X193342Y-110411
X193998Y-096759
X193998Y-106441
X194163Y-083594
X194163Y-119606
X195692Y-087663
X195692Y-115537
X196484Y-082563
X196484Y-120637
X196860Y-092024
X196860Y-111176
X196880Y-101600
X197571Y-096309
X197571Y-106891
X198110Y-086876
X198110Y-116324
X199344Y-091496
X199344Y-111704
X199420Y-101600
X200096Y-096045
X200096Y-107155
T4
X133350Y-107950
X133350Y-110490
X147320Y-081788
X147320Y-084328
X151130Y-095250
X151130Y-107950
X153670Y-095250
X153670Y-107950
X156210Y-092710
X156210Y-095250
X160020Y-081788
X160020Y-084328
X172720Y-081788
X172720Y-084328
T5
X148590Y-117475
X156210Y-117475
T6
X126492Y-091989
X126492Y-096987
X144145Y-118765
X144145Y-121265
X144145Y-125364
X144145Y-127366
X160655Y-120284
X160655Y-122286
T7
X121844Y-106335
X121844Y-110835
X128346Y-106335
X128346Y-110835
X135890Y-097790
X135890Y-105410
X137450Y-077902
X137450Y-084404
X138430Y-097790
X138430Y-105410
X140970Y-097790
X140970Y-105410
X141950Y-077902
X141950Y-084404
X142113Y-132080
X143510Y-097790
X143510Y-105410
X144653Y-132080
X146050Y-097790
X146050Y-105410
X148590Y-097790
X148590Y-105410
X148590Y-120650
X148590Y-123190
X148590Y-125730
X148590Y-128270
X150150Y-077902
X150150Y-084404
X151130Y-097790
X151130Y-105410
X153670Y-097790
X153670Y-105410
X154650Y-077902
X154650Y-084404
X156210Y-097790
X156210Y-105410
X156210Y-120650
X156210Y-123190
X156210Y-125730
X156210Y-128270
X158750Y-097790
X158750Y-105410
X161290Y-097790
X161290Y-105410
X162850Y-077902
X162850Y-084404
X163830Y-097790
X163830Y-105410
X166370Y-097790
X166370Y-105410
X167350Y-077902
X167350Y-084404
X168910Y-097790
X168910Y-105410
X170180Y-119380
X170180Y-121920
X170180Y-124460
X173990Y-099060
X173990Y-101600
X173990Y-104140
X176530Y-099060
X176530Y-101600
X176530Y-104140
T8
X146050Y-128420
X158750Y-128420
T9
X140211Y-101600
X164589Y-101600
T10
X115570Y-064770
X115570Y-138430
X189230Y-064770
X189230Y-138430
T0
M30
