G04 (created by PCBNEW-RS274X (2012-01-19 BZR 3256)-stable) date 2/20/2012 2:12:21 PM*
G01*
G70*
G90*
%MOIN*%
G04 Gerber Fmt 3.4, Leading zero omitted, Abs format*
%FSLAX34Y34*%
G04 APERTURE LIST*
%ADD10C,0.006000*%
%ADD11C,0.015000*%
%ADD12C,0.056000*%
%ADD13R,0.060000X0.060000*%
%ADD14C,0.060000*%
%ADD15C,0.064000*%
%ADD16R,0.064000X0.064000*%
%ADD17R,0.068000X0.068000*%
%ADD18C,0.068000*%
%ADD19C,0.149000*%
%ADD20C,0.031500*%
%ADD21R,0.072000X0.072000*%
%ADD22C,0.072000*%
%ADD23C,0.071200*%
%ADD24C,0.124000*%
%ADD25C,0.008000*%
%ADD26C,0.012000*%
%ADD27C,0.060000*%
%ADD28C,0.024000*%
G04 APERTURE END LIST*
G54D10*
G54D11*
X46000Y-56900D02*
X47600Y-55300D01*
X43100Y-54000D02*
X46000Y-56900D01*
X44700Y-52400D02*
X43100Y-54000D01*
X76900Y-54000D02*
X74000Y-56900D01*
X75300Y-52400D02*
X76900Y-54000D01*
X72400Y-55300D02*
X74000Y-56900D01*
X47600Y-24700D02*
X51900Y-20400D01*
X46000Y-23100D02*
X43100Y-26000D01*
X47600Y-24700D02*
X46000Y-23100D01*
X44700Y-27600D02*
X43100Y-26000D01*
X79600Y-48100D02*
X75300Y-52400D01*
X68100Y-59600D02*
X72400Y-55300D01*
X40400Y-48100D02*
X44700Y-52400D01*
X51900Y-59600D02*
X47600Y-55300D01*
X40400Y-31900D02*
X44700Y-27600D01*
X75300Y-27600D02*
X79600Y-31900D01*
X72400Y-24700D02*
X68100Y-20400D01*
X76900Y-26000D02*
X74000Y-23100D01*
X75300Y-27600D02*
X76900Y-26000D01*
X72400Y-24700D02*
X74000Y-23100D01*
X79600Y-31900D02*
X79600Y-48100D01*
X51900Y-20400D02*
X68100Y-20400D01*
X40400Y-48100D02*
X40400Y-31900D01*
X68100Y-59600D02*
X51900Y-59600D01*
G54D12*
X60000Y-26295D03*
X60000Y-27295D03*
X60000Y-21488D03*
X60000Y-22488D03*
X69256Y-23968D03*
X68756Y-24834D03*
X60000Y-23906D03*
X60000Y-24906D03*
X68047Y-26062D03*
X67547Y-26928D03*
X66852Y-28131D03*
X66352Y-28997D03*
X62187Y-21222D03*
X62083Y-22216D03*
X64068Y-21518D03*
X63860Y-22496D03*
X65797Y-22004D03*
X65487Y-22956D03*
X67495Y-22644D03*
X67089Y-23558D03*
X61906Y-23623D03*
X61802Y-24617D03*
X63469Y-23881D03*
X63261Y-24859D03*
X65056Y-24305D03*
X64746Y-25257D03*
X66537Y-24863D03*
X66131Y-25777D03*
X76032Y-30744D03*
X75166Y-31244D03*
X73938Y-31953D03*
X73072Y-32453D03*
X71869Y-33148D03*
X71003Y-33648D03*
X71283Y-24830D03*
X70695Y-25640D03*
X72686Y-25982D03*
X72016Y-26726D03*
X74018Y-27314D03*
X73274Y-27984D03*
X75170Y-28717D03*
X74360Y-29305D03*
X69840Y-26769D03*
X69252Y-27579D03*
X71064Y-27774D03*
X70394Y-28518D03*
X72226Y-28936D03*
X71482Y-29606D03*
X73231Y-30160D03*
X72421Y-30748D03*
X78512Y-40000D03*
X77512Y-40000D03*
X76094Y-40000D03*
X75094Y-40000D03*
X73705Y-40000D03*
X72705Y-40000D03*
X77356Y-32505D03*
X76442Y-32911D03*
X77996Y-34203D03*
X77044Y-34513D03*
X78482Y-36022D03*
X77504Y-36230D03*
X78778Y-37813D03*
X77784Y-37917D03*
X75137Y-33463D03*
X74223Y-33869D03*
X75695Y-34944D03*
X74743Y-35254D03*
X76119Y-36531D03*
X75141Y-36739D03*
X76377Y-38094D03*
X75383Y-38198D03*
X76032Y-49256D03*
X75166Y-48756D03*
X73938Y-48047D03*
X73072Y-47547D03*
X71869Y-46852D03*
X71003Y-46352D03*
X78778Y-42187D03*
X77784Y-42083D03*
X78482Y-43978D03*
X77504Y-43770D03*
X77996Y-45797D03*
X77044Y-45487D03*
X77356Y-47495D03*
X76442Y-47089D03*
X76377Y-41906D03*
X75383Y-41802D03*
X76119Y-43469D03*
X75141Y-43261D03*
X75695Y-45056D03*
X74743Y-44746D03*
X75137Y-46537D03*
X74223Y-46131D03*
X69256Y-56032D03*
X68756Y-55166D03*
X68047Y-53938D03*
X67547Y-53072D03*
X66852Y-51869D03*
X66352Y-51003D03*
X75170Y-51283D03*
X74360Y-50695D03*
X74018Y-52686D03*
X73274Y-52016D03*
X72686Y-54018D03*
X72016Y-53274D03*
X71283Y-55170D03*
X70695Y-54360D03*
X73231Y-49840D03*
X72421Y-49252D03*
X72226Y-51064D03*
X71482Y-50394D03*
X71064Y-52226D03*
X70394Y-51482D03*
X69840Y-53231D03*
X69252Y-52421D03*
X60000Y-58512D03*
X60000Y-57512D03*
X60000Y-56094D03*
X60000Y-55094D03*
X60000Y-53705D03*
X60000Y-52705D03*
X67495Y-57356D03*
X67089Y-56442D03*
X65797Y-57996D03*
X65487Y-57044D03*
X63978Y-58482D03*
X63770Y-57504D03*
X62187Y-58778D03*
X62083Y-57784D03*
X66537Y-55137D03*
X66131Y-54223D03*
X65056Y-55695D03*
X64746Y-54743D03*
X63469Y-56119D03*
X63261Y-55141D03*
X61906Y-56377D03*
X61802Y-55383D03*
X50744Y-56032D03*
X51244Y-55166D03*
X51953Y-53938D03*
X52453Y-53072D03*
X53148Y-51869D03*
X53648Y-51003D03*
X57813Y-58778D03*
X57917Y-57784D03*
X56022Y-58482D03*
X56230Y-57504D03*
X54203Y-57996D03*
X54513Y-57044D03*
X52505Y-57356D03*
X52911Y-56442D03*
X58094Y-56377D03*
X58198Y-55383D03*
X56531Y-56119D03*
X56739Y-55141D03*
X54944Y-55695D03*
X55254Y-54743D03*
X53463Y-55137D03*
X53869Y-54223D03*
X43968Y-49256D03*
X44834Y-48756D03*
X46062Y-48047D03*
X46928Y-47547D03*
X48131Y-46852D03*
X48997Y-46352D03*
X48717Y-55170D03*
X49305Y-54360D03*
X47314Y-54018D03*
X47984Y-53274D03*
X45982Y-52686D03*
X46726Y-52016D03*
X44830Y-51283D03*
X45640Y-50695D03*
X50160Y-53231D03*
X50748Y-52421D03*
X48936Y-52226D03*
X49606Y-51482D03*
X47774Y-51064D03*
X48518Y-50394D03*
X46769Y-49840D03*
X47579Y-49252D03*
X62000Y-33200D03*
X62000Y-30700D03*
X57500Y-35000D03*
X57500Y-37500D03*
X56500Y-35000D03*
X56500Y-37500D03*
X67000Y-33200D03*
X67000Y-30700D03*
X57000Y-33200D03*
X57000Y-30700D03*
X66500Y-45000D03*
X66500Y-42500D03*
X65500Y-35000D03*
X65500Y-37500D03*
X56500Y-42500D03*
X56500Y-45000D03*
X58500Y-45000D03*
X58500Y-42500D03*
X64500Y-45000D03*
X64500Y-42500D03*
X55500Y-35000D03*
X55500Y-37500D03*
X53500Y-35000D03*
X53500Y-37500D03*
X66500Y-35000D03*
X66500Y-37500D03*
X54500Y-35000D03*
X54500Y-37500D03*
X57500Y-45000D03*
X57500Y-42500D03*
X63500Y-45000D03*
X63500Y-42500D03*
X65500Y-45000D03*
X65500Y-42500D03*
X53500Y-45000D03*
X53500Y-42500D03*
X63500Y-35000D03*
X63500Y-37500D03*
X64500Y-35000D03*
X64500Y-37500D03*
X62500Y-35000D03*
X62500Y-37500D03*
X51500Y-41500D03*
X51500Y-44000D03*
G54D13*
X59500Y-42500D03*
G54D14*
X60500Y-42500D03*
G54D13*
X61500Y-37500D03*
G54D14*
X61500Y-36500D03*
G54D13*
X63000Y-32200D03*
G54D14*
X63000Y-33200D03*
G54D13*
X60500Y-37500D03*
G54D14*
X59500Y-37500D03*
G54D13*
X68000Y-33200D03*
G54D14*
X68000Y-32200D03*
G54D13*
X58000Y-33200D03*
G54D14*
X58000Y-32200D03*
G54D13*
X52500Y-43500D03*
G54D14*
X52500Y-42500D03*
G54D15*
X61500Y-46250D03*
G54D16*
X58500Y-46250D03*
G54D17*
X61500Y-50500D03*
G54D18*
X61500Y-49500D03*
X61500Y-48500D03*
X61500Y-47500D03*
X58500Y-47500D03*
X58500Y-48500D03*
X58500Y-49500D03*
X58500Y-50500D03*
G54D12*
X41488Y-40000D03*
X42488Y-40000D03*
X43906Y-40000D03*
X44906Y-40000D03*
X46295Y-40000D03*
X47295Y-40000D03*
X42644Y-47495D03*
X43558Y-47089D03*
X42005Y-45799D03*
X42957Y-45489D03*
X41518Y-43978D03*
X42496Y-43770D03*
X41222Y-42187D03*
X42216Y-42083D03*
X44863Y-46537D03*
X45777Y-46131D03*
X44306Y-45057D03*
X45258Y-44747D03*
X43881Y-43469D03*
X44859Y-43261D03*
X43623Y-41906D03*
X44617Y-41802D03*
X60500Y-34600D03*
X59500Y-34600D03*
X60500Y-29000D03*
X59500Y-29000D03*
X43968Y-30744D03*
X44834Y-31244D03*
X46062Y-31953D03*
X46928Y-32453D03*
X48131Y-33148D03*
X48997Y-33648D03*
X41222Y-37813D03*
X42216Y-37917D03*
X41518Y-36022D03*
X42496Y-36230D03*
X42004Y-34203D03*
X42956Y-34513D03*
X42644Y-32505D03*
X43558Y-32911D03*
X43623Y-38094D03*
X44617Y-38198D03*
X43881Y-36531D03*
X44859Y-36739D03*
X44305Y-34944D03*
X45257Y-35254D03*
X44863Y-33463D03*
X45777Y-33869D03*
G54D18*
X54500Y-41500D03*
X55500Y-41500D03*
X56500Y-41500D03*
X57500Y-41500D03*
X58500Y-41500D03*
X59500Y-41500D03*
X60500Y-41500D03*
X61500Y-41500D03*
X62500Y-41500D03*
X63500Y-41500D03*
X64500Y-41500D03*
X65500Y-41500D03*
X66500Y-41500D03*
G54D17*
X53500Y-41500D03*
G54D18*
X66500Y-38500D03*
X65500Y-38500D03*
X64500Y-38500D03*
X63500Y-38500D03*
X62500Y-38500D03*
X61500Y-38500D03*
X60500Y-38500D03*
X59500Y-38500D03*
X58500Y-38500D03*
X57500Y-38500D03*
X56500Y-38500D03*
X55500Y-38500D03*
X54500Y-38500D03*
X53500Y-38500D03*
G54D12*
X50744Y-23968D03*
X51244Y-24834D03*
X51953Y-26062D03*
X52453Y-26928D03*
X53148Y-28131D03*
X53648Y-28997D03*
X44830Y-28717D03*
X45640Y-29305D03*
X45982Y-27314D03*
X46726Y-27984D03*
X47314Y-25982D03*
X47984Y-26726D03*
X48717Y-24830D03*
X49305Y-25640D03*
X46769Y-30160D03*
X47579Y-30748D03*
X47774Y-28936D03*
X48518Y-29606D03*
X48936Y-27774D03*
X49606Y-28518D03*
X50160Y-26769D03*
X50748Y-27579D03*
X52503Y-22644D03*
X52909Y-23558D03*
X54203Y-22004D03*
X54513Y-22956D03*
X56022Y-21518D03*
X56230Y-22496D03*
X57813Y-21222D03*
X57917Y-22216D03*
X53463Y-24863D03*
X53869Y-25777D03*
X54944Y-24305D03*
X55254Y-25257D03*
X56531Y-23881D03*
X56739Y-24859D03*
X58094Y-23623D03*
X58198Y-24617D03*
G54D18*
X60886Y-33230D03*
X59114Y-33230D03*
X60886Y-30670D03*
X59114Y-30670D03*
X65886Y-33230D03*
X64114Y-33230D03*
X65886Y-30670D03*
X64114Y-30670D03*
X55886Y-33230D03*
X54114Y-33230D03*
X55886Y-30670D03*
X54114Y-30670D03*
X47970Y-43636D03*
X47970Y-41864D03*
X50530Y-43636D03*
X50530Y-41864D03*
X67000Y-49000D03*
X67000Y-48000D03*
X67000Y-47000D03*
G54D19*
X45500Y-25500D03*
X74500Y-25500D03*
X45500Y-54500D03*
X74500Y-54500D03*
G54D20*
X61803Y-42250D03*
X62197Y-42250D03*
G54D21*
X49800Y-38184D03*
G54D22*
X49800Y-36216D03*
G54D16*
X56750Y-47742D03*
G54D15*
X56750Y-46758D03*
G54D16*
X56750Y-49356D03*
G54D15*
X56750Y-50144D03*
G54D16*
X63250Y-47356D03*
G54D15*
X63250Y-48144D03*
G54D18*
X55950Y-52000D03*
X56950Y-52000D03*
G54D23*
X62500Y-50559D03*
X57500Y-50559D03*
G54D24*
X55201Y-40000D03*
X64799Y-40000D03*
G54D17*
X68500Y-39000D03*
G54D18*
X69500Y-39000D03*
X68500Y-40000D03*
X69500Y-40000D03*
X68500Y-41000D03*
X69500Y-41000D03*
G54D20*
X59409Y-55394D03*
X57000Y-43300D03*
X60000Y-42000D03*
G54D25*
X63500Y-37500D02*
X63100Y-37500D01*
X62162Y-36332D02*
X61162Y-35332D01*
X61162Y-34038D02*
X62000Y-33200D01*
X61162Y-35332D02*
X61162Y-34038D01*
X62162Y-36830D02*
X62382Y-37050D01*
X67218Y-39162D02*
X67380Y-39000D01*
X65035Y-38965D02*
X65232Y-39162D01*
X65232Y-39162D02*
X67218Y-39162D01*
X63500Y-37500D02*
X63500Y-38500D01*
X62162Y-36650D02*
X62162Y-36332D01*
X64265Y-38965D02*
X65035Y-38965D01*
X62382Y-37050D02*
X62650Y-37050D01*
X63800Y-38500D02*
X64265Y-38965D01*
X63500Y-38500D02*
X63800Y-38500D01*
X67380Y-39000D02*
X68500Y-39000D01*
G54D26*
X62000Y-33200D02*
X63000Y-33200D01*
G54D25*
X62162Y-36650D02*
X62162Y-36830D01*
X63100Y-37500D02*
X62650Y-37050D01*
X56500Y-37500D02*
X56500Y-38500D01*
G54D26*
X60500Y-38500D02*
X60500Y-37500D01*
G54D25*
X64068Y-21093D02*
X63675Y-20700D01*
X64201Y-23450D02*
X65056Y-24305D01*
X76251Y-44701D02*
X75975Y-44425D01*
X57836Y-23881D02*
X58094Y-23623D01*
X62539Y-57953D02*
X62539Y-57010D01*
X66425Y-28250D02*
X66425Y-26071D01*
X70556Y-53355D02*
X69399Y-54512D01*
X75064Y-44425D02*
X74743Y-44746D01*
X71874Y-52226D02*
X73938Y-50162D01*
X74223Y-46131D02*
X74223Y-47762D01*
X70556Y-52657D02*
X70556Y-53355D01*
X66537Y-55137D02*
X65140Y-55137D01*
X75995Y-46131D02*
X76251Y-45875D01*
X75975Y-44425D02*
X75064Y-44425D01*
X61678Y-24617D02*
X60000Y-26295D01*
X57917Y-22216D02*
X59728Y-22216D01*
X70987Y-52226D02*
X70556Y-52657D01*
X62187Y-58778D02*
X62187Y-58305D01*
X59717Y-23623D02*
X60000Y-23906D01*
X59728Y-22216D02*
X60000Y-22488D01*
X63261Y-55141D02*
X64348Y-55141D01*
X66425Y-26071D02*
X66131Y-25777D01*
X59433Y-20700D02*
X57917Y-22216D01*
X58094Y-23623D02*
X59717Y-23623D01*
X62539Y-57010D02*
X61906Y-56377D01*
X61802Y-24617D02*
X61678Y-24617D01*
X65056Y-24702D02*
X66131Y-25777D01*
X64348Y-55141D02*
X64746Y-54743D01*
X74489Y-45000D02*
X74743Y-44746D01*
X74223Y-46131D02*
X75995Y-46131D01*
X69399Y-54512D02*
X67162Y-54512D01*
X60000Y-23906D02*
X60000Y-22488D01*
X76251Y-45875D02*
X76251Y-44701D01*
X62187Y-58305D02*
X62539Y-57953D01*
X56531Y-23881D02*
X57836Y-23881D01*
X63675Y-20700D02*
X59433Y-20700D01*
X56230Y-22496D02*
X57637Y-22496D01*
X74223Y-47762D02*
X73938Y-48047D01*
X60000Y-23906D02*
X61091Y-23906D01*
X66352Y-28997D02*
X66352Y-28323D01*
X65056Y-24305D02*
X65056Y-24702D01*
X66500Y-45000D02*
X74489Y-45000D01*
X67162Y-54512D02*
X66537Y-55137D01*
X65140Y-55137D02*
X64746Y-54743D01*
X71064Y-52226D02*
X70987Y-52226D01*
X61802Y-24617D02*
X61808Y-24617D01*
X73938Y-50162D02*
X73938Y-48047D01*
X57637Y-22496D02*
X57917Y-22216D01*
X61808Y-24617D02*
X62975Y-23450D01*
X66352Y-28323D02*
X66425Y-28250D01*
X61091Y-23906D02*
X61802Y-24617D01*
X71064Y-52226D02*
X71874Y-52226D01*
X62975Y-23450D02*
X64201Y-23450D01*
X64068Y-21518D02*
X64068Y-21093D01*
X75170Y-31240D02*
X75166Y-31244D01*
X78482Y-44049D02*
X77044Y-45487D01*
X71283Y-24830D02*
X71534Y-24830D01*
X77600Y-47950D02*
X77925Y-47625D01*
X72686Y-25982D02*
X74018Y-27314D01*
X77044Y-34513D02*
X77044Y-35770D01*
X71534Y-24830D02*
X72686Y-25982D01*
X74018Y-27565D02*
X75170Y-28717D01*
X65027Y-22496D02*
X65487Y-22956D01*
X76442Y-33911D02*
X76806Y-34275D01*
X76442Y-32911D02*
X76442Y-33911D01*
X75500Y-34275D02*
X76806Y-34275D01*
X71534Y-24830D02*
X72686Y-25982D01*
X76442Y-47480D02*
X75972Y-47950D01*
X74050Y-35000D02*
X74350Y-34700D01*
X61921Y-21488D02*
X62187Y-21222D01*
X62187Y-21222D02*
X62586Y-21222D01*
X60000Y-21488D02*
X61921Y-21488D01*
X77504Y-36230D02*
X77504Y-36539D01*
X78778Y-42187D02*
X78778Y-43682D01*
X75972Y-47950D02*
X75166Y-48756D01*
X62586Y-21222D02*
X63860Y-22496D01*
X77175Y-47950D02*
X77600Y-47950D01*
X74018Y-27314D02*
X74018Y-27565D01*
X78512Y-40000D02*
X78512Y-38079D01*
X66500Y-35000D02*
X74050Y-35000D01*
X78512Y-38079D02*
X78778Y-37813D01*
X75170Y-28717D02*
X75170Y-31240D01*
X75075Y-34700D02*
X75500Y-34275D01*
X67089Y-23558D02*
X67480Y-23558D01*
X76442Y-47475D02*
X76442Y-47480D01*
X71279Y-24834D02*
X71283Y-24830D01*
X78778Y-43682D02*
X78482Y-43978D01*
X76806Y-34275D02*
X77044Y-34513D01*
X76442Y-47089D02*
X76442Y-47475D01*
X77175Y-47950D02*
X75972Y-47950D01*
X63860Y-22496D02*
X65027Y-22496D01*
X66487Y-22956D02*
X67089Y-23558D01*
X77504Y-36539D02*
X78778Y-37813D01*
X78482Y-43978D02*
X78482Y-44049D01*
X68756Y-24834D02*
X71279Y-24834D01*
X74350Y-34700D02*
X75075Y-34700D01*
X77044Y-35770D02*
X77504Y-36230D01*
X65487Y-22956D02*
X66487Y-22956D01*
X77925Y-47625D02*
X77925Y-46368D01*
X67480Y-23558D02*
X68756Y-24834D01*
X77925Y-46368D02*
X77044Y-45487D01*
X69252Y-28227D02*
X69252Y-27579D01*
X50160Y-26769D02*
X52294Y-26769D01*
X46188Y-30933D02*
X45438Y-31683D01*
X52820Y-27295D02*
X52453Y-26928D01*
X43450Y-36350D02*
X43450Y-37650D01*
X68575Y-34070D02*
X71320Y-31325D01*
X67547Y-53072D02*
X69681Y-53072D01*
X44143Y-34482D02*
X43875Y-34750D01*
X69681Y-53072D02*
X69840Y-53231D01*
X44306Y-43814D02*
X44859Y-43261D01*
X44213Y-40307D02*
X43906Y-40000D01*
X44306Y-45057D02*
X44306Y-43814D01*
X70625Y-29025D02*
X70050Y-29025D01*
X50160Y-26769D02*
X50160Y-24552D01*
X71320Y-30070D02*
X71064Y-29814D01*
X65500Y-34960D02*
X66390Y-34070D01*
X65500Y-35000D02*
X65500Y-34960D01*
X44703Y-45057D02*
X45777Y-46131D01*
X43875Y-34750D02*
X43875Y-35925D01*
X66390Y-34070D02*
X68575Y-34070D01*
X70050Y-29025D02*
X69252Y-28227D01*
X47984Y-26726D02*
X47984Y-28136D01*
X66852Y-52377D02*
X67547Y-53072D01*
X71320Y-31325D02*
X71320Y-30070D01*
X68601Y-26928D02*
X69252Y-27579D01*
X71064Y-27774D02*
X71064Y-27678D01*
X43200Y-39294D02*
X43906Y-40000D01*
X47984Y-28136D02*
X46188Y-29932D01*
X43450Y-37650D02*
X43200Y-37900D01*
X44143Y-33377D02*
X44143Y-34482D01*
X66852Y-51869D02*
X68462Y-51869D01*
X44859Y-43261D02*
X44859Y-42615D01*
X43200Y-37900D02*
X43200Y-39294D01*
X71064Y-28586D02*
X70625Y-29025D01*
X46188Y-29932D02*
X46188Y-30933D01*
X44213Y-41969D02*
X44213Y-40307D01*
X50117Y-26726D02*
X50160Y-26769D01*
X66852Y-27623D02*
X67547Y-26928D01*
X50160Y-24552D02*
X50744Y-23968D01*
X71064Y-27678D02*
X72016Y-26726D01*
X71064Y-29814D02*
X71064Y-28586D01*
X71064Y-27774D02*
X71064Y-28586D01*
X66852Y-28131D02*
X66852Y-27623D01*
X71064Y-27678D02*
X72016Y-26726D01*
X44859Y-42615D02*
X44213Y-41969D01*
X44306Y-45057D02*
X44703Y-45057D01*
X43875Y-35925D02*
X43450Y-36350D01*
X66852Y-51869D02*
X66852Y-52377D01*
X71003Y-49328D02*
X71003Y-46352D01*
X47984Y-26726D02*
X50117Y-26726D01*
X67547Y-26928D02*
X68601Y-26928D01*
X45438Y-32082D02*
X44143Y-33377D01*
X68462Y-51869D02*
X71003Y-49328D01*
X60000Y-27295D02*
X52820Y-27295D01*
X45438Y-31683D02*
X45438Y-32082D01*
X52294Y-26769D02*
X52453Y-26928D01*
X57549Y-55383D02*
X58198Y-55383D01*
X54031Y-51199D02*
X54055Y-51175D01*
X56065Y-54735D02*
X55391Y-54061D01*
X57618Y-55847D02*
X57618Y-56536D01*
X54031Y-53781D02*
X54031Y-51199D01*
X46281Y-33869D02*
X46813Y-33337D01*
X54311Y-54061D02*
X54031Y-53781D01*
X73700Y-47525D02*
X73700Y-45950D01*
X56725Y-54735D02*
X56065Y-54735D01*
X70695Y-25640D02*
X70695Y-25914D01*
X62165Y-55965D02*
X62854Y-55276D01*
X45600Y-32150D02*
X45600Y-31750D01*
X55391Y-54061D02*
X54311Y-54061D01*
X47414Y-28936D02*
X47774Y-28936D01*
X62854Y-55276D02*
X62854Y-54941D01*
X72226Y-49447D02*
X72421Y-49252D01*
X52520Y-49272D02*
X52028Y-48780D01*
X54055Y-50807D02*
X54055Y-51175D01*
X48962Y-48462D02*
X49393Y-48462D01*
X42675Y-42312D02*
X42675Y-40187D01*
X51260Y-48462D02*
X51710Y-48462D01*
X53366Y-50118D02*
X52520Y-49272D01*
X48252Y-46352D02*
X48575Y-46675D01*
X48250Y-46352D02*
X47019Y-46352D01*
X51260Y-48462D02*
X49393Y-48462D01*
X44305Y-33445D02*
X45600Y-32150D01*
X53819Y-50571D02*
X54055Y-50807D01*
X63484Y-54311D02*
X65630Y-54311D01*
X43712Y-46382D02*
X43712Y-44707D01*
X53819Y-50571D02*
X53366Y-50118D01*
X47019Y-46352D02*
X46208Y-47163D01*
X43712Y-44707D02*
X43262Y-44257D01*
X69840Y-26769D02*
X69840Y-27964D01*
X43262Y-44257D02*
X43262Y-42899D01*
X58346Y-58245D02*
X57813Y-58778D01*
X48325Y-34150D02*
X51900Y-34150D01*
X42675Y-40187D02*
X42488Y-40000D01*
X46208Y-47163D02*
X44493Y-47163D01*
X58082Y-55383D02*
X57618Y-55847D01*
X66811Y-54350D02*
X66575Y-54350D01*
X41222Y-38734D02*
X42488Y-40000D01*
X51900Y-34150D02*
X53250Y-35500D01*
X44493Y-47163D02*
X43712Y-46382D01*
X48250Y-46352D02*
X48252Y-46352D01*
X70394Y-51482D02*
X71808Y-51482D01*
X46813Y-33337D02*
X47512Y-33337D01*
X45777Y-33869D02*
X46281Y-33869D01*
X56901Y-54735D02*
X57549Y-55383D01*
X51710Y-48462D02*
X52028Y-48780D01*
X56725Y-54735D02*
X56901Y-54735D01*
X58198Y-55383D02*
X58082Y-55383D01*
X44859Y-36739D02*
X44859Y-35498D01*
X46350Y-30000D02*
X47414Y-28936D01*
X45600Y-31750D02*
X46350Y-31000D01*
X47512Y-33337D02*
X48325Y-34150D01*
X44702Y-34944D02*
X45777Y-33869D01*
X70394Y-51482D02*
X70394Y-53091D01*
X75201Y-45550D02*
X75695Y-45056D01*
X66575Y-54350D02*
X66279Y-54646D01*
X56539Y-57504D02*
X57813Y-58778D01*
X56230Y-57504D02*
X56539Y-57504D01*
X60000Y-56094D02*
X61603Y-56094D01*
X44859Y-35498D02*
X44305Y-34944D01*
X62854Y-54941D02*
X63484Y-54311D01*
X46350Y-31000D02*
X46350Y-30000D01*
X70394Y-53091D02*
X70394Y-53287D01*
X70695Y-25914D02*
X69840Y-26769D01*
X48575Y-46675D02*
X48575Y-48075D01*
X61603Y-56094D02*
X61732Y-55965D01*
X43262Y-42899D02*
X42675Y-42312D01*
X48575Y-48075D02*
X48962Y-48462D01*
X66279Y-54646D02*
X65965Y-54646D01*
X70394Y-53287D02*
X69331Y-54350D01*
X72421Y-49252D02*
X72421Y-48804D01*
X58346Y-57264D02*
X58346Y-58245D01*
X43623Y-37975D02*
X44859Y-36739D01*
X72226Y-51064D02*
X72226Y-49447D01*
X73700Y-45950D02*
X74100Y-45550D01*
X69840Y-27964D02*
X70394Y-28518D01*
X61732Y-55965D02*
X62165Y-55965D01*
X55000Y-35500D02*
X53250Y-35500D01*
X44305Y-34944D02*
X44305Y-33445D01*
X44305Y-34944D02*
X44702Y-34944D01*
X55500Y-35000D02*
X55000Y-35500D01*
X65965Y-54646D02*
X65669Y-54350D01*
X74100Y-45550D02*
X75201Y-45550D01*
X71808Y-51482D02*
X72226Y-51064D01*
X65630Y-54311D02*
X65669Y-54350D01*
X41222Y-37813D02*
X41222Y-38734D01*
X72421Y-48804D02*
X73700Y-47525D01*
X69331Y-54350D02*
X66811Y-54350D01*
X60000Y-56094D02*
X60000Y-56591D01*
X60000Y-56591D02*
X58346Y-58245D01*
X43623Y-38094D02*
X43623Y-37975D01*
X57618Y-56536D02*
X58346Y-57264D01*
X41200Y-44300D02*
X41200Y-46100D01*
X41488Y-39563D02*
X41488Y-40000D01*
X61906Y-22393D02*
X62083Y-22216D01*
X58700Y-24200D02*
X56975Y-24200D01*
X42216Y-37917D02*
X42216Y-36510D01*
X42956Y-34513D02*
X42956Y-33513D01*
X46352Y-49252D02*
X47579Y-49252D01*
X56825Y-24350D02*
X55875Y-24350D01*
X41518Y-43978D02*
X41518Y-43982D01*
X51050Y-23475D02*
X51244Y-23669D01*
X47774Y-49447D02*
X47579Y-49252D01*
X41222Y-43682D02*
X41518Y-43978D01*
X56975Y-24200D02*
X56825Y-24350D01*
X47089Y-52686D02*
X47774Y-52001D01*
X47314Y-25361D02*
X49200Y-23475D01*
X40650Y-37475D02*
X40650Y-38725D01*
X42957Y-46087D02*
X42957Y-46093D01*
X52716Y-24834D02*
X51244Y-24834D01*
X42216Y-36510D02*
X42496Y-36230D01*
X40650Y-38725D02*
X41488Y-39563D01*
X41518Y-43982D02*
X41200Y-44300D01*
X45175Y-48075D02*
X46352Y-49252D01*
X41200Y-46100D02*
X41675Y-46575D01*
X44375Y-48075D02*
X45175Y-48075D01*
X41895Y-36230D02*
X40650Y-37475D01*
X55875Y-24350D02*
X55375Y-23850D01*
X59406Y-24906D02*
X58700Y-24200D01*
X41488Y-40000D02*
X41488Y-41921D01*
X53700Y-23850D02*
X52716Y-24834D01*
X42496Y-34973D02*
X42956Y-34513D01*
X42957Y-45993D02*
X42957Y-45489D01*
X43731Y-30744D02*
X43968Y-30744D01*
X42200Y-32700D02*
X42200Y-32275D01*
X43968Y-29579D02*
X44830Y-28717D01*
X43968Y-30744D02*
X43968Y-29579D01*
X47774Y-52001D02*
X47774Y-51064D01*
X42496Y-36230D02*
X42496Y-34973D01*
X49200Y-23475D02*
X51050Y-23475D01*
X42956Y-33513D02*
X43558Y-32911D01*
X61906Y-23623D02*
X61906Y-22393D01*
X41675Y-46575D02*
X42475Y-46575D01*
X43558Y-47089D02*
X43558Y-47258D01*
X42475Y-46575D02*
X42957Y-46093D01*
X42411Y-32911D02*
X42200Y-32700D01*
X45982Y-27314D02*
X47314Y-25982D01*
X43558Y-32911D02*
X42475Y-32911D01*
X43558Y-47258D02*
X44375Y-48075D01*
X44830Y-28717D02*
X44830Y-28466D01*
X42957Y-46087D02*
X42957Y-45993D01*
X42200Y-32275D02*
X43731Y-30744D01*
X60000Y-24906D02*
X59406Y-24906D01*
X41222Y-42187D02*
X41222Y-43682D01*
X44830Y-28466D02*
X45982Y-27314D01*
X47774Y-51064D02*
X47774Y-49447D01*
X42475Y-32911D02*
X42411Y-32911D01*
X42496Y-36230D02*
X41895Y-36230D01*
X47314Y-25982D02*
X47314Y-25361D01*
X41488Y-41921D02*
X41222Y-42187D01*
X51244Y-23669D02*
X51244Y-24834D01*
X45982Y-52686D02*
X47089Y-52686D01*
X55375Y-23850D02*
X53700Y-23850D01*
X74223Y-33869D02*
X74223Y-33502D01*
X49098Y-28383D02*
X49098Y-29956D01*
X49500Y-56650D02*
X52703Y-56650D01*
X52050Y-21850D02*
X54049Y-21850D01*
X51968Y-33988D02*
X52980Y-35000D01*
X72226Y-28936D02*
X72322Y-28936D01*
X47314Y-54464D02*
X49500Y-56650D01*
X46726Y-27984D02*
X46726Y-27324D01*
X48936Y-52226D02*
X47779Y-52226D01*
X45276Y-32014D02*
X43981Y-33309D01*
X50400Y-53700D02*
X50000Y-53700D01*
X47779Y-52226D02*
X47314Y-52691D01*
X73072Y-32453D02*
X73072Y-32718D01*
X52980Y-35000D02*
X53500Y-35000D01*
X56572Y-21222D02*
X56350Y-21000D01*
X72322Y-28936D02*
X73274Y-27984D01*
X43525Y-49043D02*
X43525Y-49450D01*
X71869Y-33148D02*
X72377Y-33148D01*
X42400Y-46975D02*
X42225Y-47150D01*
X46026Y-30865D02*
X45276Y-31615D01*
X51800Y-22100D02*
X52050Y-21850D01*
X55207Y-21000D02*
X54203Y-22004D01*
X45276Y-31615D02*
X45276Y-32014D01*
X52264Y-26062D02*
X53463Y-24863D01*
X51800Y-23050D02*
X51800Y-22100D01*
X56350Y-21000D02*
X55207Y-21000D01*
X52909Y-23558D02*
X52308Y-23558D01*
X50000Y-53700D02*
X48936Y-52636D01*
X57813Y-21222D02*
X56572Y-21222D01*
X43981Y-33309D02*
X43981Y-34415D01*
X49159Y-30017D02*
X49159Y-33206D01*
X50748Y-52421D02*
X50748Y-53352D01*
X56425Y-25275D02*
X57540Y-25275D01*
X43981Y-34415D02*
X43713Y-34683D01*
X48717Y-25333D02*
X48717Y-24830D01*
X50748Y-53352D02*
X50400Y-53700D01*
X72421Y-30748D02*
X72421Y-31802D01*
X43288Y-36283D02*
X43288Y-37400D01*
X43713Y-35858D02*
X43288Y-36283D01*
X74223Y-33502D02*
X74798Y-32927D01*
X57540Y-25275D02*
X58198Y-24617D01*
X51953Y-26062D02*
X52264Y-26062D01*
X48936Y-52636D02*
X48936Y-52226D01*
X47314Y-52691D02*
X47314Y-54018D01*
X72377Y-33148D02*
X73072Y-32453D01*
X46726Y-29164D02*
X46026Y-29864D01*
X56407Y-25257D02*
X56425Y-25275D01*
X54860Y-24863D02*
X55254Y-25257D01*
X55254Y-25257D02*
X56407Y-25257D01*
X46726Y-27324D02*
X48717Y-25333D01*
X53463Y-24863D02*
X54860Y-24863D01*
X43713Y-34683D02*
X43713Y-35858D01*
X54049Y-21850D02*
X54203Y-22004D01*
X77356Y-32505D02*
X77356Y-32331D01*
X49159Y-33206D02*
X49941Y-33988D01*
X47314Y-54018D02*
X47314Y-54464D01*
X41993Y-44025D02*
X41993Y-44043D01*
X41950Y-41600D02*
X41700Y-41850D01*
X41700Y-41850D02*
X41700Y-43525D01*
X77356Y-32331D02*
X77088Y-32063D01*
X40812Y-37544D02*
X40812Y-38657D01*
X40812Y-38657D02*
X41950Y-39795D01*
X73072Y-32718D02*
X74223Y-33869D01*
X43388Y-46287D02*
X42700Y-46975D01*
X43288Y-37400D02*
X43288Y-37512D01*
X41993Y-43818D02*
X41993Y-44025D01*
X44375Y-50300D02*
X44375Y-51600D01*
X41700Y-43525D02*
X41993Y-43818D01*
X42050Y-38375D02*
X41675Y-38000D01*
X42225Y-47743D02*
X43525Y-49043D01*
X41950Y-39795D02*
X41950Y-41600D01*
X49902Y-27579D02*
X49098Y-28383D01*
X42700Y-46975D02*
X42400Y-46975D01*
X40991Y-37365D02*
X40812Y-37544D01*
X41440Y-37365D02*
X40991Y-37365D01*
X41675Y-37600D02*
X41440Y-37365D01*
X43525Y-49450D02*
X44375Y-50300D01*
X42187Y-46413D02*
X42500Y-46100D01*
X41993Y-44357D02*
X41362Y-44988D01*
X41362Y-44988D02*
X41362Y-46032D01*
X42425Y-38375D02*
X42050Y-38375D01*
X42500Y-46100D02*
X42500Y-45200D01*
X41743Y-46413D02*
X42187Y-46413D01*
X41362Y-46032D02*
X41743Y-46413D01*
X42225Y-47150D02*
X42225Y-47743D01*
X50748Y-27579D02*
X49902Y-27579D01*
X43388Y-46225D02*
X43388Y-46287D01*
X43188Y-45000D02*
X43388Y-45200D01*
X74798Y-32927D02*
X75662Y-32063D01*
X42500Y-45200D02*
X42700Y-45000D01*
X42700Y-45000D02*
X43188Y-45000D01*
X77088Y-32063D02*
X75662Y-32063D01*
X43388Y-45200D02*
X43388Y-46225D01*
X41993Y-44025D02*
X41993Y-44357D01*
X46568Y-54018D02*
X47314Y-54018D01*
X44375Y-51600D02*
X45450Y-52675D01*
X41675Y-38000D02*
X41675Y-37600D01*
X43288Y-37512D02*
X42425Y-38375D01*
X45450Y-52675D02*
X45450Y-52900D01*
X45450Y-52900D02*
X46568Y-54018D01*
X46726Y-27984D02*
X46726Y-29164D01*
X52308Y-23558D02*
X51800Y-23050D01*
X49098Y-29956D02*
X49159Y-30017D01*
X72421Y-31802D02*
X73072Y-32453D01*
X52703Y-56650D02*
X52911Y-56442D01*
X46026Y-29864D02*
X46026Y-30865D01*
X49941Y-33988D02*
X51968Y-33988D01*
X62083Y-58055D02*
X61496Y-58642D01*
X65797Y-57996D02*
X66855Y-57996D01*
X58091Y-59232D02*
X58091Y-59250D01*
X61496Y-58642D02*
X61496Y-59096D01*
X63490Y-57784D02*
X63770Y-57504D01*
X63000Y-59250D02*
X63000Y-58274D01*
X59565Y-59250D02*
X58109Y-59250D01*
X73274Y-51781D02*
X74360Y-50695D01*
X60130Y-57512D02*
X60551Y-57933D01*
X64543Y-59250D02*
X65797Y-57996D01*
X56750Y-57025D02*
X56025Y-57025D01*
X56022Y-58482D02*
X56607Y-58482D01*
X71283Y-55170D02*
X71283Y-54007D01*
X58109Y-59250D02*
X58091Y-59232D01*
X52675Y-56000D02*
X53150Y-56000D01*
X71283Y-54007D02*
X72016Y-53274D01*
X63000Y-59250D02*
X64543Y-59250D01*
X60000Y-57512D02*
X60130Y-57512D01*
X57375Y-59250D02*
X58091Y-59250D01*
X60551Y-57933D02*
X60551Y-58937D01*
X69256Y-56032D02*
X70421Y-56032D01*
X73274Y-52016D02*
X73274Y-51781D01*
X61850Y-59250D02*
X60864Y-59250D01*
X53450Y-56300D02*
X53450Y-56650D01*
X47984Y-53274D02*
X48219Y-53274D01*
X70421Y-56032D02*
X71283Y-55170D01*
X53150Y-56000D02*
X53450Y-56300D01*
X61650Y-59250D02*
X61850Y-59250D01*
X55536Y-57514D02*
X55536Y-57996D01*
X63000Y-58274D02*
X63490Y-57784D01*
X74360Y-50695D02*
X74593Y-50695D01*
X52744Y-57356D02*
X52505Y-57356D01*
X42644Y-47495D02*
X42644Y-47932D01*
X56607Y-58482D02*
X57375Y-59250D01*
X53450Y-56650D02*
X52744Y-57356D01*
X49305Y-54360D02*
X49305Y-54593D01*
X45407Y-50695D02*
X43968Y-49256D01*
X60864Y-59250D02*
X59565Y-59250D01*
X72016Y-53274D02*
X73274Y-52016D01*
X49305Y-54593D02*
X50744Y-56032D01*
X50776Y-56000D02*
X50744Y-56032D01*
X42644Y-47932D02*
X43968Y-49256D01*
X48219Y-53274D02*
X49305Y-54360D01*
X66855Y-57996D02*
X67495Y-57356D01*
X45640Y-50695D02*
X45407Y-50695D01*
X62083Y-57784D02*
X62083Y-58055D01*
X52505Y-57356D02*
X53563Y-57356D01*
X53563Y-57356D02*
X54203Y-57996D01*
X45640Y-50930D02*
X46726Y-52016D01*
X61496Y-59096D02*
X61650Y-59250D01*
X67495Y-57356D02*
X67932Y-57356D01*
X54203Y-57996D02*
X55536Y-57996D01*
X52675Y-56000D02*
X50776Y-56000D01*
X60551Y-58937D02*
X60864Y-59250D01*
X57917Y-57784D02*
X57509Y-57784D01*
X74593Y-50695D02*
X76032Y-49256D01*
X67932Y-57356D02*
X69256Y-56032D01*
X56025Y-57025D02*
X55536Y-57514D01*
X45640Y-50695D02*
X45640Y-50930D01*
X55536Y-57996D02*
X56022Y-58482D01*
X57509Y-57784D02*
X56750Y-57025D01*
X61850Y-59250D02*
X63000Y-59250D01*
X46300Y-40000D02*
X46950Y-40650D01*
X51872Y-26931D02*
X52638Y-27697D01*
X48898Y-27300D02*
X49587Y-27300D01*
X46295Y-43650D02*
X48997Y-46352D01*
X57050Y-45450D02*
X49899Y-45450D01*
X55951Y-21518D02*
X54513Y-22956D01*
X56022Y-21518D02*
X55951Y-21518D01*
X57100Y-45400D02*
X57050Y-45450D01*
X46295Y-40000D02*
X46295Y-43650D01*
X50335Y-27185D02*
X50589Y-26931D01*
X47579Y-29771D02*
X47579Y-30748D01*
X53648Y-28018D02*
X53327Y-27697D01*
X77512Y-40000D02*
X76094Y-40000D01*
X48898Y-27300D02*
X48750Y-27300D01*
X45257Y-36257D02*
X47783Y-38783D01*
X49899Y-45450D02*
X48997Y-46352D01*
X47783Y-38783D02*
X47783Y-39374D01*
X79250Y-42625D02*
X79250Y-41738D01*
X46027Y-31953D02*
X46062Y-31953D01*
X53648Y-28997D02*
X53648Y-28018D01*
X54217Y-51251D02*
X54193Y-51275D01*
X56375Y-54573D02*
X56969Y-54573D01*
X79250Y-42625D02*
X79250Y-47875D01*
X57500Y-45000D02*
X57200Y-45300D01*
X51535Y-48300D02*
X51784Y-48300D01*
X46950Y-40650D02*
X47579Y-40650D01*
X52638Y-27697D02*
X53327Y-27697D01*
X46295Y-40000D02*
X46300Y-40000D01*
X49815Y-27185D02*
X49700Y-27300D01*
X44863Y-33463D02*
X44863Y-33117D01*
X75383Y-38198D02*
X75383Y-39289D01*
X49700Y-27300D02*
X49587Y-27300D01*
X48250Y-27800D02*
X48250Y-29100D01*
X50000Y-27185D02*
X50335Y-27185D01*
X50000Y-27185D02*
X49815Y-27185D01*
X47783Y-40446D02*
X47783Y-39374D01*
X63416Y-54149D02*
X65615Y-54149D01*
X50589Y-26931D02*
X51872Y-26931D01*
X66309Y-53809D02*
X66438Y-53938D01*
X57357Y-54961D02*
X57133Y-54737D01*
X54379Y-53899D02*
X55459Y-53899D01*
X79250Y-47875D02*
X74439Y-52686D01*
X56969Y-54573D02*
X57133Y-54737D01*
X54193Y-51275D02*
X54193Y-53713D01*
X48997Y-46352D02*
X48997Y-48122D01*
X47579Y-40650D02*
X47783Y-40446D01*
X54217Y-50739D02*
X53972Y-50494D01*
X59134Y-55689D02*
X58435Y-54990D01*
X48997Y-48122D02*
X49175Y-48300D01*
X55459Y-53899D02*
X56133Y-54573D01*
X54217Y-51000D02*
X54217Y-51251D01*
X48750Y-27300D02*
X48250Y-27800D01*
X75383Y-39289D02*
X76094Y-40000D01*
X79250Y-41738D02*
X77937Y-40425D01*
X53972Y-50488D02*
X53972Y-50494D01*
X59564Y-55689D02*
X59134Y-55689D01*
X61567Y-55785D02*
X60273Y-55785D01*
X54193Y-53713D02*
X54379Y-53899D01*
X77937Y-40425D02*
X77512Y-40000D01*
X58406Y-54961D02*
X57357Y-54961D01*
X62692Y-54873D02*
X63416Y-54149D01*
X61567Y-55785D02*
X61981Y-55785D01*
X44863Y-33117D02*
X46027Y-31953D01*
X57200Y-45300D02*
X57100Y-45400D01*
X60177Y-55689D02*
X59564Y-55689D01*
X45257Y-35254D02*
X45257Y-36257D01*
X52503Y-22644D02*
X54201Y-22644D01*
X58435Y-54990D02*
X58406Y-54961D01*
X66438Y-53938D02*
X66813Y-53938D01*
X54201Y-22644D02*
X54513Y-22956D01*
X65615Y-54149D02*
X65955Y-53809D01*
X62116Y-55785D02*
X62692Y-55209D01*
X48250Y-29100D02*
X47579Y-29771D01*
X61981Y-55785D02*
X62116Y-55785D01*
X49825Y-48300D02*
X51535Y-48300D01*
X68047Y-53938D02*
X66813Y-53938D01*
X51784Y-48300D02*
X53972Y-50488D01*
X60273Y-55785D02*
X60177Y-55689D01*
X49175Y-48300D02*
X49825Y-48300D01*
X74439Y-52686D02*
X74018Y-52686D01*
X65955Y-53809D02*
X66309Y-53809D01*
X54217Y-51000D02*
X54217Y-50739D01*
X62692Y-55209D02*
X62692Y-54873D01*
X56133Y-54573D02*
X56375Y-54573D01*
X54447Y-53737D02*
X55527Y-53737D01*
X54379Y-51300D02*
X54379Y-51376D01*
X56201Y-54411D02*
X57037Y-54411D01*
X54355Y-53645D02*
X54447Y-53737D01*
X57425Y-54799D02*
X57908Y-54799D01*
X55527Y-53737D02*
X56201Y-54411D01*
X57908Y-54799D02*
X59319Y-53388D01*
X59319Y-53388D02*
X59319Y-53387D01*
X57037Y-54411D02*
X57425Y-54799D01*
X54355Y-51400D02*
X54355Y-53645D01*
X75250Y-35875D02*
X76500Y-35875D01*
X75137Y-46537D02*
X76001Y-46537D01*
X75925Y-42025D02*
X75925Y-40831D01*
X71880Y-34525D02*
X71003Y-33648D01*
X76413Y-44363D02*
X75700Y-43650D01*
X54134Y-46200D02*
X54134Y-50426D01*
X76413Y-46125D02*
X76413Y-44363D01*
X45918Y-49840D02*
X44834Y-48756D01*
X54379Y-51122D02*
X54379Y-51300D01*
X76750Y-36125D02*
X76750Y-37721D01*
X52453Y-54127D02*
X53463Y-55137D01*
X54379Y-50671D02*
X54379Y-51122D01*
X74875Y-38575D02*
X74875Y-37900D01*
X53463Y-55137D02*
X54386Y-55137D01*
X54386Y-55137D02*
X54944Y-55695D01*
X57488Y-45612D02*
X56614Y-45612D01*
X74875Y-37900D02*
X75075Y-37700D01*
X74743Y-35254D02*
X74743Y-35368D01*
X75094Y-40000D02*
X73705Y-40000D01*
X75925Y-40831D02*
X75094Y-40000D01*
X75094Y-38794D02*
X74875Y-38575D01*
X56614Y-45612D02*
X54722Y-45612D01*
X54379Y-51376D02*
X54355Y-51400D01*
X59319Y-53387D02*
X59318Y-53387D01*
X58500Y-45000D02*
X58100Y-45000D01*
X75075Y-37700D02*
X75983Y-37700D01*
X54722Y-45612D02*
X54134Y-46200D01*
X77607Y-38094D02*
X77784Y-37917D01*
X75700Y-42250D02*
X75925Y-42025D01*
X76750Y-37721D02*
X76377Y-38094D01*
X76001Y-46537D02*
X76413Y-46125D01*
X75983Y-37700D02*
X76377Y-38094D01*
X74743Y-35368D02*
X75250Y-35875D01*
X76377Y-38094D02*
X77607Y-38094D01*
X48518Y-50394D02*
X49775Y-50394D01*
X75094Y-40000D02*
X75094Y-38794D01*
X58100Y-45000D02*
X57488Y-45612D01*
X74275Y-34525D02*
X71880Y-34525D01*
X49775Y-50394D02*
X52453Y-53072D01*
X54134Y-50426D02*
X54379Y-50671D01*
X71869Y-46852D02*
X72377Y-46852D01*
X75137Y-33663D02*
X74275Y-34525D01*
X52453Y-53072D02*
X52453Y-54127D01*
X46769Y-49840D02*
X45918Y-49840D01*
X75700Y-43650D02*
X75700Y-42250D01*
X72377Y-46852D02*
X73072Y-47547D01*
X59318Y-53387D02*
X60000Y-52705D01*
X75137Y-33463D02*
X75137Y-33663D01*
X76500Y-35875D02*
X76750Y-36125D01*
X55323Y-54223D02*
X56241Y-55141D01*
X69388Y-50484D02*
X70679Y-49193D01*
X53869Y-54223D02*
X55323Y-54223D01*
X60273Y-53054D02*
X60138Y-53189D01*
X67134Y-50484D02*
X67126Y-50492D01*
X63500Y-45000D02*
X63500Y-45193D01*
X63937Y-45630D02*
X65846Y-45630D01*
X63705Y-53054D02*
X66267Y-50492D01*
X70679Y-49193D02*
X70679Y-47134D01*
X77356Y-46956D02*
X76575Y-46175D01*
X77350Y-44725D02*
X77975Y-44100D01*
X67134Y-50484D02*
X69388Y-50484D01*
X63500Y-45193D02*
X63937Y-45630D01*
X63705Y-53054D02*
X60273Y-53054D01*
X65846Y-45630D02*
X67175Y-45630D01*
X60138Y-53189D02*
X59747Y-53189D01*
X59747Y-53189D02*
X59409Y-53527D01*
X59409Y-53527D02*
X59409Y-55394D01*
X69175Y-45630D02*
X67175Y-45630D01*
X70679Y-47134D02*
X69175Y-45630D01*
X51953Y-53938D02*
X51244Y-55166D01*
X53869Y-54223D02*
X53869Y-52590D01*
X47304Y-48642D02*
X47737Y-48642D01*
X50160Y-52036D02*
X49606Y-51482D01*
X48131Y-46852D02*
X46748Y-46852D01*
X45987Y-47325D02*
X47304Y-48642D01*
X77356Y-47495D02*
X77356Y-46956D01*
X67126Y-50492D02*
X66267Y-50492D01*
X45846Y-47325D02*
X45987Y-47325D01*
X43550Y-46450D02*
X43550Y-44775D01*
X49049Y-50925D02*
X49606Y-51482D01*
X43100Y-42967D02*
X42216Y-42083D01*
X46748Y-46852D02*
X46275Y-47325D01*
X44425Y-47325D02*
X43550Y-46450D01*
X45846Y-47325D02*
X44625Y-47325D01*
X43100Y-44325D02*
X43100Y-42967D01*
X77975Y-44100D02*
X77975Y-42274D01*
X44617Y-38198D02*
X45493Y-38198D01*
X56241Y-55141D02*
X56739Y-55141D01*
X45493Y-38198D02*
X47295Y-40000D01*
X48050Y-50075D02*
X48050Y-50675D01*
X46275Y-47325D02*
X45846Y-47325D01*
X48300Y-50925D02*
X49049Y-50925D01*
X76575Y-46175D02*
X76575Y-45275D01*
X76575Y-45275D02*
X77125Y-44725D01*
X50160Y-53231D02*
X50160Y-52036D01*
X44625Y-47325D02*
X44425Y-47325D01*
X43550Y-44775D02*
X43100Y-44325D01*
X77607Y-41906D02*
X77784Y-42083D01*
X53869Y-52590D02*
X53148Y-51869D01*
X48050Y-50675D02*
X48300Y-50925D01*
X77975Y-42274D02*
X77784Y-42083D01*
X48131Y-49994D02*
X48050Y-50075D01*
X77125Y-44725D02*
X77350Y-44725D01*
X47737Y-48642D02*
X48131Y-49036D01*
X48131Y-49036D02*
X48131Y-49994D01*
X76377Y-41906D02*
X77607Y-41906D01*
X50658Y-27093D02*
X50709Y-27093D01*
X72705Y-39175D02*
X75141Y-36739D01*
X77996Y-45797D02*
X77996Y-46204D01*
X70772Y-53370D02*
X70772Y-53248D01*
X48997Y-33648D02*
X48997Y-30085D01*
X69468Y-54674D02*
X67649Y-54674D01*
X49252Y-27462D02*
X49767Y-27462D01*
X70772Y-53248D02*
X70772Y-53092D01*
X64049Y-58482D02*
X65487Y-57044D01*
X77675Y-48112D02*
X76513Y-48112D01*
X78091Y-46299D02*
X78091Y-47696D01*
X71476Y-52388D02*
X71942Y-52388D01*
X70772Y-53370D02*
X69468Y-54674D01*
X48940Y-27774D02*
X49252Y-27462D01*
X74664Y-49961D02*
X74369Y-49961D01*
X67649Y-54674D02*
X66628Y-55695D01*
X72705Y-40000D02*
X72705Y-39175D01*
X66628Y-55695D02*
X65056Y-55695D01*
X50404Y-27347D02*
X50658Y-27093D01*
X64500Y-44831D02*
X64922Y-44409D01*
X74369Y-49961D02*
X72047Y-52283D01*
X76513Y-48112D02*
X74664Y-49961D01*
X71942Y-52388D02*
X72047Y-52283D01*
X48936Y-27774D02*
X48940Y-27774D01*
X77203Y-43469D02*
X77504Y-43770D01*
X77996Y-46204D02*
X78091Y-46299D01*
X49882Y-27347D02*
X50404Y-27347D01*
X49767Y-27462D02*
X49882Y-27347D01*
X42005Y-45799D02*
X42005Y-44995D01*
X42005Y-44995D02*
X42496Y-44504D01*
X42496Y-43770D02*
X42496Y-44504D01*
X51804Y-27093D02*
X52842Y-28131D01*
X63978Y-58482D02*
X64049Y-58482D01*
X65487Y-57044D02*
X65487Y-56126D01*
X72705Y-42945D02*
X72705Y-40000D01*
X65487Y-56126D02*
X65056Y-55695D01*
X48997Y-30085D02*
X48518Y-29606D01*
X48936Y-27774D02*
X48936Y-29188D01*
X52842Y-28131D02*
X53148Y-28131D01*
X78091Y-47696D02*
X77675Y-48112D01*
X71319Y-44331D02*
X72705Y-42945D01*
X50709Y-27093D02*
X51804Y-27093D01*
X76119Y-43469D02*
X77203Y-43469D01*
X71241Y-44409D02*
X71319Y-44331D01*
X64500Y-45000D02*
X64500Y-44831D01*
X64922Y-44409D02*
X71241Y-44409D01*
X70772Y-53092D02*
X71476Y-52388D01*
X48936Y-29188D02*
X48518Y-29606D01*
X55254Y-54743D02*
X53779Y-54743D01*
X71173Y-44247D02*
X64453Y-44247D01*
X69243Y-45468D02*
X70841Y-47066D01*
X60000Y-55094D02*
X61513Y-55094D01*
X64035Y-45275D02*
X64228Y-45468D01*
X70841Y-49260D02*
X68801Y-51300D01*
X68801Y-51300D02*
X66731Y-51300D01*
X43623Y-42701D02*
X43424Y-42900D01*
X73231Y-30160D02*
X73505Y-30160D01*
X43424Y-42900D02*
X43424Y-44189D01*
X72677Y-29606D02*
X73231Y-30160D01*
X43874Y-45548D02*
X44863Y-46537D01*
X74438Y-35875D02*
X74438Y-37213D01*
X65984Y-35217D02*
X66298Y-35531D01*
X61513Y-55094D02*
X61802Y-55383D01*
X55606Y-57044D02*
X56531Y-56119D01*
X72543Y-41102D02*
X72543Y-42877D01*
X64453Y-44247D02*
X64035Y-44665D01*
X64228Y-45468D02*
X65335Y-45468D01*
X65335Y-45468D02*
X65500Y-45303D01*
X53445Y-52815D02*
X52746Y-52116D01*
X65665Y-45468D02*
X67300Y-45468D01*
X65500Y-45000D02*
X65500Y-45303D01*
X53268Y-51003D02*
X53648Y-51003D01*
X43623Y-41906D02*
X43623Y-42701D01*
X72185Y-40744D02*
X72543Y-41102D01*
X71482Y-29606D02*
X72677Y-29606D01*
X52746Y-52116D02*
X52677Y-52047D01*
X43424Y-44189D02*
X43874Y-44639D01*
X72185Y-39466D02*
X72185Y-40744D01*
X64035Y-44665D02*
X64035Y-45275D01*
X74438Y-37213D02*
X72185Y-39466D01*
X52677Y-52047D02*
X52677Y-51594D01*
X52677Y-51594D02*
X53268Y-51003D01*
X46769Y-30160D02*
X46769Y-32294D01*
X66457Y-34232D02*
X65984Y-34705D01*
X65984Y-34705D02*
X65984Y-35217D01*
X71482Y-31392D02*
X68642Y-34232D01*
X67300Y-45468D02*
X69243Y-45468D01*
X66731Y-51300D02*
X64815Y-53216D01*
X48293Y-49573D02*
X48293Y-48968D01*
X52441Y-51811D02*
X51422Y-51811D01*
X73505Y-30160D02*
X74360Y-29305D01*
X55254Y-54743D02*
X55254Y-54842D01*
X52746Y-52116D02*
X52441Y-51811D01*
X68642Y-34232D02*
X66457Y-34232D01*
X48952Y-50232D02*
X48293Y-49573D01*
X46928Y-47603D02*
X46928Y-47547D01*
X60489Y-53216D02*
X60000Y-53705D01*
X71482Y-29606D02*
X71482Y-31392D01*
X64815Y-53216D02*
X60489Y-53216D01*
X49843Y-50232D02*
X48952Y-50232D01*
X70841Y-47066D02*
X70841Y-49260D01*
X51422Y-51811D02*
X49843Y-50232D01*
X65500Y-45303D02*
X65665Y-45468D01*
X66298Y-35531D02*
X74094Y-35531D01*
X72543Y-42877D02*
X71173Y-44247D01*
X46769Y-32294D02*
X46928Y-32453D01*
X74094Y-35531D02*
X74438Y-35875D01*
X53445Y-54409D02*
X53445Y-52815D01*
X55254Y-54842D02*
X56531Y-56119D01*
X48293Y-48968D02*
X46928Y-47603D01*
X43874Y-44639D02*
X43874Y-45548D01*
X53779Y-54743D02*
X53445Y-54409D01*
X54513Y-57044D02*
X55606Y-57044D01*
X44834Y-31244D02*
X43905Y-31244D01*
X43905Y-31244D02*
X42644Y-32505D01*
X66500Y-41500D02*
X66500Y-42500D01*
X66500Y-37500D02*
X66500Y-38500D01*
X64500Y-41500D02*
X64500Y-42500D01*
X65500Y-41500D02*
X65500Y-42500D01*
X65500Y-37500D02*
X65500Y-38500D01*
X55500Y-37500D02*
X55500Y-38500D01*
X54500Y-37500D02*
X54500Y-38500D01*
X53500Y-37500D02*
X53500Y-38500D01*
X56500Y-41500D02*
X56500Y-42500D01*
X57500Y-41500D02*
X57500Y-42500D01*
X58500Y-41500D02*
X58500Y-42500D01*
X63500Y-41500D02*
X63500Y-42500D01*
X60500Y-41500D02*
X60950Y-41050D01*
X63000Y-41250D02*
X63000Y-44213D01*
G54D26*
X63000Y-44362D02*
X62638Y-44724D01*
X61000Y-44780D02*
X61417Y-45197D01*
G54D25*
X62750Y-41000D02*
X63000Y-41250D01*
G54D26*
X61417Y-45197D02*
X62480Y-45197D01*
G54D25*
X61000Y-41000D02*
X62750Y-41000D01*
X61000Y-44724D02*
X61000Y-41250D01*
G54D26*
X62638Y-44724D02*
X62638Y-45039D01*
X63000Y-44213D02*
X63000Y-44362D01*
G54D25*
X60950Y-41050D02*
X61000Y-41000D01*
G54D26*
X62480Y-45197D02*
X62638Y-45039D01*
X61000Y-44724D02*
X61000Y-44780D01*
G54D25*
X65164Y-39324D02*
X67824Y-39324D01*
X61000Y-34150D02*
X60600Y-33750D01*
X60600Y-33750D02*
X58150Y-33750D01*
X64070Y-39000D02*
X64197Y-39127D01*
X62000Y-36898D02*
X62500Y-37398D01*
X62500Y-37500D02*
X62500Y-38500D01*
X62500Y-37398D02*
X62500Y-37500D01*
X62000Y-36700D02*
X62000Y-36400D01*
G54D26*
X57000Y-33200D02*
X58000Y-33200D01*
G54D25*
X61000Y-35400D02*
X61000Y-34150D01*
G54D26*
X58000Y-33200D02*
X58000Y-33600D01*
G54D25*
X64197Y-39127D02*
X64967Y-39127D01*
X62000Y-36700D02*
X62000Y-36898D01*
X63300Y-39000D02*
X64070Y-39000D01*
X62000Y-36400D02*
X61000Y-35400D01*
X62500Y-38500D02*
X62800Y-38500D01*
X62800Y-38500D02*
X63300Y-39000D01*
X58000Y-33600D02*
X58000Y-33200D01*
X64967Y-39127D02*
X65164Y-39324D01*
X67824Y-39324D02*
X68500Y-40000D01*
X58150Y-33750D02*
X58000Y-33600D01*
X51184Y-38184D02*
X54500Y-41500D01*
X49800Y-38184D02*
X51184Y-38184D01*
X54230Y-41000D02*
X55000Y-41000D01*
X49800Y-36570D02*
X54230Y-41000D01*
X55000Y-41000D02*
X55500Y-41500D01*
X49800Y-36216D02*
X49800Y-36570D01*
G54D26*
X58500Y-38500D02*
X57500Y-37500D01*
G54D25*
X68800Y-38400D02*
X69000Y-38600D01*
X69000Y-39500D02*
X69500Y-40000D01*
G54D26*
X67000Y-33200D02*
X68000Y-33200D01*
G54D25*
X61680Y-33750D02*
X61324Y-34106D01*
X66050Y-33750D02*
X61680Y-33750D01*
X62880Y-37050D02*
X64050Y-37050D01*
X67000Y-33200D02*
X66600Y-33200D01*
X67150Y-39000D02*
X67750Y-38400D01*
X61324Y-35264D02*
X62324Y-36264D01*
X67750Y-38400D02*
X68800Y-38400D01*
X62324Y-36762D02*
X62450Y-36888D01*
G54D26*
X69000Y-39500D02*
X69500Y-40000D01*
G54D25*
X64500Y-37500D02*
X64500Y-38500D01*
X62718Y-36888D02*
X62880Y-37050D01*
X64500Y-38500D02*
X64800Y-38500D01*
X64800Y-38500D02*
X65300Y-39000D01*
X64050Y-37050D02*
X64500Y-37500D01*
X62450Y-36888D02*
X62718Y-36888D01*
X66600Y-33200D02*
X66050Y-33750D01*
X65300Y-39000D02*
X67150Y-39000D01*
X62324Y-36264D02*
X62324Y-36762D01*
X61324Y-34106D02*
X61324Y-35264D01*
X69000Y-38600D02*
X69000Y-39500D01*
G54D27*
X58500Y-49500D02*
X58800Y-49500D01*
X58500Y-46250D02*
X57258Y-46250D01*
X57258Y-46250D02*
X56750Y-46758D01*
X59250Y-46500D02*
X59000Y-46250D01*
X58800Y-49500D02*
X59250Y-49050D01*
X59000Y-46250D02*
X58500Y-46250D01*
X59250Y-49050D02*
X59250Y-46500D01*
X56244Y-49356D02*
X56750Y-49356D01*
X55950Y-49650D02*
X56244Y-49356D01*
X57150Y-48500D02*
X56750Y-48100D01*
G54D26*
X57000Y-39000D02*
X57000Y-41900D01*
G54D27*
X56750Y-48100D02*
X56750Y-49356D01*
G54D26*
X57500Y-38500D02*
X57000Y-39000D01*
G54D27*
X55950Y-52000D02*
X55950Y-49650D01*
X58500Y-48500D02*
X57150Y-48500D01*
G54D26*
X57000Y-43200D02*
X57000Y-43300D01*
X57000Y-41900D02*
X57000Y-43200D01*
G54D27*
X56750Y-47742D02*
X56750Y-48100D01*
X57450Y-51500D02*
X56950Y-52000D01*
X61850Y-51500D02*
X57450Y-51500D01*
X62500Y-50850D02*
X61850Y-51500D01*
X62500Y-50559D02*
X62500Y-50850D01*
G54D26*
X59100Y-42500D02*
X59000Y-42400D01*
X55102Y-30034D02*
X55102Y-33316D01*
X64764Y-42992D02*
X64961Y-42992D01*
X59700Y-35400D02*
X59500Y-35600D01*
X68876Y-37950D02*
X68876Y-38218D01*
X63250Y-47356D02*
X63250Y-45849D01*
X58950Y-29202D02*
X55934Y-29202D01*
X55950Y-44550D02*
X53950Y-44550D01*
X68150Y-41550D02*
X69750Y-41550D01*
X59500Y-42500D02*
X59100Y-42500D01*
G54D27*
X61500Y-46250D02*
X61500Y-47500D01*
G54D26*
X63250Y-47356D02*
X64856Y-47356D01*
G54D25*
X70000Y-39500D02*
X69500Y-39000D01*
G54D26*
X61500Y-37500D02*
X61050Y-37500D01*
X62953Y-45552D02*
X62953Y-44803D01*
X68876Y-37550D02*
X68876Y-37276D01*
X65400Y-35900D02*
X64500Y-35000D01*
X60500Y-34600D02*
X59700Y-35400D01*
X60500Y-39500D02*
X60500Y-40500D01*
X57250Y-35600D02*
X59500Y-35600D01*
X60500Y-40500D02*
X59500Y-41500D01*
X64961Y-43000D02*
X66700Y-43000D01*
X56286Y-34500D02*
X56650Y-34500D01*
X69200Y-38542D02*
X69200Y-38700D01*
X56650Y-34500D02*
X57000Y-34850D01*
X63500Y-35000D02*
X63900Y-35400D01*
X66700Y-43000D02*
X68150Y-41550D01*
X59248Y-29500D02*
X58950Y-29202D01*
X70000Y-39500D02*
X69500Y-39000D01*
G54D28*
X61500Y-46250D02*
X59500Y-44250D01*
G54D26*
X60500Y-36400D02*
X60300Y-36400D01*
X68876Y-38218D02*
X69200Y-38542D01*
X53950Y-44550D02*
X53500Y-45000D01*
G54D28*
X59500Y-44250D02*
X59500Y-42500D01*
G54D26*
X60300Y-36400D02*
X59500Y-35600D01*
X55934Y-29202D02*
X55102Y-30034D01*
X60000Y-29500D02*
X60500Y-29000D01*
X60975Y-37425D02*
X60975Y-36875D01*
X64856Y-47356D02*
X65500Y-48000D01*
X61050Y-37500D02*
X60975Y-37425D01*
X57000Y-35350D02*
X57250Y-35600D01*
X64961Y-42992D02*
X64961Y-43000D01*
X63250Y-45849D02*
X62953Y-45552D01*
X62953Y-44803D02*
X64764Y-42992D01*
X60975Y-36875D02*
X60500Y-36400D01*
X55950Y-44550D02*
X59200Y-44550D01*
X67500Y-35900D02*
X65400Y-35900D01*
X62500Y-35000D02*
X62850Y-35350D01*
X59000Y-42400D02*
X59000Y-42000D01*
X59000Y-42000D02*
X59500Y-41500D01*
X59550Y-29500D02*
X60000Y-29500D01*
X61500Y-38500D02*
X60500Y-39500D01*
X57000Y-34850D02*
X57000Y-35350D01*
X63900Y-35400D02*
X64100Y-35400D01*
X69750Y-41550D02*
X70000Y-41300D01*
X64100Y-35400D02*
X64500Y-35000D01*
X70000Y-41300D02*
X70000Y-39500D01*
X61050Y-37500D02*
X61000Y-37550D01*
X68876Y-37276D02*
X67500Y-35900D01*
G54D25*
X69750Y-41550D02*
X70000Y-41300D01*
G54D26*
X61000Y-38000D02*
X61500Y-38500D01*
X69200Y-38700D02*
X69500Y-39000D01*
G54D27*
X61500Y-47500D02*
X61644Y-47356D01*
G54D26*
X59550Y-29500D02*
X59248Y-29500D01*
X55102Y-33316D02*
X56286Y-34500D01*
X63150Y-35350D02*
X63500Y-35000D01*
X61000Y-37550D02*
X61000Y-38000D01*
X68876Y-37550D02*
X68876Y-37950D01*
X59200Y-44550D02*
X59500Y-44250D01*
G54D27*
X61644Y-47356D02*
X63250Y-47356D01*
G54D26*
X62850Y-35350D02*
X63150Y-35350D01*
X61803Y-41803D02*
X61500Y-41500D01*
X61803Y-42250D02*
X61803Y-41803D01*
X62197Y-42250D02*
X62197Y-41803D01*
X62197Y-41803D02*
X62500Y-41500D01*
G54D25*
X60912Y-40838D02*
X67388Y-40838D01*
X60000Y-42000D02*
X60000Y-41258D01*
X60254Y-41004D02*
X60746Y-41004D01*
X68500Y-41000D02*
X67550Y-41000D01*
X60000Y-41258D02*
X60004Y-41254D01*
X60004Y-41254D02*
X60254Y-41004D01*
X53500Y-41500D02*
X52500Y-41500D01*
X52500Y-41500D02*
X52500Y-42500D01*
X67388Y-40838D02*
X67550Y-41000D01*
X51500Y-41500D02*
X52500Y-41500D01*
X53500Y-42500D02*
X53500Y-41500D01*
X60746Y-41004D02*
X60912Y-40838D01*
G54D26*
X65500Y-49500D02*
X64250Y-49500D01*
X64250Y-49500D02*
X61500Y-49500D01*
X67000Y-48000D02*
X65500Y-49500D01*
X65500Y-49500D02*
X64250Y-49500D01*
X65886Y-30670D02*
X66970Y-30670D01*
X66970Y-30670D02*
X67000Y-30700D01*
G54D25*
X51136Y-43636D02*
X51500Y-44000D01*
X50530Y-43636D02*
X51136Y-43636D01*
G54D26*
X55750Y-34250D02*
X54900Y-33400D01*
X55850Y-29000D02*
X59500Y-29000D01*
X54900Y-33400D02*
X54900Y-29950D01*
X54900Y-29950D02*
X55850Y-29000D01*
X56500Y-35000D02*
X55750Y-34250D01*
X61970Y-30670D02*
X62000Y-30700D01*
X60886Y-30670D02*
X61970Y-30670D01*
X56970Y-30670D02*
X57000Y-30700D01*
X55886Y-30670D02*
X56970Y-30670D01*
X57900Y-34600D02*
X57500Y-35000D01*
X59500Y-34600D02*
X57900Y-34600D01*
G54D10*
G36*
X74218Y-37121D02*
X72029Y-39310D01*
X71982Y-39382D01*
X71964Y-39466D01*
X71965Y-39470D01*
X71965Y-40739D01*
X71964Y-40744D01*
X71982Y-40828D01*
X72029Y-40900D01*
X72323Y-41193D01*
X72323Y-42785D01*
X71081Y-44027D01*
X70020Y-44027D01*
X70020Y-41104D01*
X70020Y-40897D01*
X69941Y-40706D01*
X69795Y-40559D01*
X69651Y-40499D01*
X69794Y-40441D01*
X69941Y-40295D01*
X70020Y-40104D01*
X70020Y-39897D01*
X70013Y-39880D01*
X70013Y-39081D01*
X70005Y-38878D01*
X69943Y-38728D01*
X69863Y-38694D01*
X69557Y-39000D01*
X69863Y-39306D01*
X69943Y-39272D01*
X70013Y-39081D01*
X70013Y-39880D01*
X69941Y-39706D01*
X69795Y-39559D01*
X69643Y-39496D01*
X69772Y-39443D01*
X69806Y-39363D01*
X69542Y-39099D01*
X69500Y-39057D01*
X69443Y-39000D01*
X69500Y-38943D01*
X69542Y-38901D01*
X69806Y-38637D01*
X69772Y-38557D01*
X69581Y-38487D01*
X69378Y-38495D01*
X69228Y-38557D01*
X69218Y-38576D01*
X69214Y-38572D01*
X69203Y-38516D01*
X69202Y-38515D01*
X69156Y-38444D01*
X69153Y-38442D01*
X68956Y-38244D01*
X68884Y-38197D01*
X68800Y-38179D01*
X68795Y-38180D01*
X67750Y-38180D01*
X67665Y-38197D01*
X67636Y-38215D01*
X67594Y-38244D01*
X67592Y-38246D01*
X67058Y-38780D01*
X66947Y-38780D01*
X67020Y-38604D01*
X67020Y-38397D01*
X66941Y-38206D01*
X66795Y-38059D01*
X66720Y-38027D01*
X66720Y-37906D01*
X66760Y-37890D01*
X66890Y-37761D01*
X66960Y-37592D01*
X66960Y-37409D01*
X66890Y-37240D01*
X66761Y-37110D01*
X66592Y-37040D01*
X66409Y-37040D01*
X66240Y-37110D01*
X66110Y-37239D01*
X66040Y-37408D01*
X66040Y-37591D01*
X66110Y-37760D01*
X66239Y-37890D01*
X66280Y-37906D01*
X66280Y-38028D01*
X66206Y-38059D01*
X66059Y-38205D01*
X65999Y-38348D01*
X65941Y-38206D01*
X65795Y-38059D01*
X65720Y-38027D01*
X65720Y-37906D01*
X65760Y-37890D01*
X65890Y-37761D01*
X65960Y-37592D01*
X65960Y-37409D01*
X65890Y-37240D01*
X65761Y-37110D01*
X65592Y-37040D01*
X65409Y-37040D01*
X65240Y-37110D01*
X65110Y-37239D01*
X65040Y-37408D01*
X65040Y-37591D01*
X65110Y-37760D01*
X65239Y-37890D01*
X65280Y-37906D01*
X65280Y-38028D01*
X65206Y-38059D01*
X65059Y-38205D01*
X64999Y-38348D01*
X64941Y-38206D01*
X64795Y-38059D01*
X64720Y-38027D01*
X64720Y-37906D01*
X64760Y-37890D01*
X64890Y-37761D01*
X64960Y-37592D01*
X64960Y-37409D01*
X64955Y-37396D01*
X64955Y-35069D01*
X64946Y-34889D01*
X64894Y-34763D01*
X64820Y-34736D01*
X64764Y-34792D01*
X64764Y-34680D01*
X64737Y-34606D01*
X64569Y-34545D01*
X64389Y-34554D01*
X64263Y-34606D01*
X64236Y-34680D01*
X64500Y-34943D01*
X64764Y-34680D01*
X64764Y-34792D01*
X64557Y-35000D01*
X64820Y-35264D01*
X64894Y-35237D01*
X64955Y-35069D01*
X64955Y-37396D01*
X64890Y-37240D01*
X64764Y-37113D01*
X64764Y-35320D01*
X64500Y-35057D01*
X64443Y-35113D01*
X64443Y-35000D01*
X64180Y-34736D01*
X64106Y-34763D01*
X64045Y-34931D01*
X64054Y-35111D01*
X64106Y-35237D01*
X64180Y-35264D01*
X64443Y-35000D01*
X64443Y-35113D01*
X64236Y-35320D01*
X64263Y-35394D01*
X64431Y-35455D01*
X64611Y-35446D01*
X64737Y-35394D01*
X64764Y-35320D01*
X64764Y-37113D01*
X64761Y-37110D01*
X64592Y-37040D01*
X64409Y-37040D01*
X64368Y-37056D01*
X64206Y-36894D01*
X64134Y-36847D01*
X64050Y-36829D01*
X64045Y-36830D01*
X63955Y-36830D01*
X63955Y-35069D01*
X63946Y-34889D01*
X63894Y-34763D01*
X63820Y-34736D01*
X63764Y-34792D01*
X63764Y-34680D01*
X63737Y-34606D01*
X63569Y-34545D01*
X63389Y-34554D01*
X63263Y-34606D01*
X63236Y-34680D01*
X63500Y-34943D01*
X63764Y-34680D01*
X63764Y-34792D01*
X63557Y-35000D01*
X63820Y-35264D01*
X63894Y-35237D01*
X63955Y-35069D01*
X63955Y-36830D01*
X63764Y-36830D01*
X63764Y-35320D01*
X63500Y-35057D01*
X63443Y-35113D01*
X63443Y-35000D01*
X63180Y-34736D01*
X63106Y-34763D01*
X63045Y-34931D01*
X63054Y-35111D01*
X63106Y-35237D01*
X63180Y-35264D01*
X63443Y-35000D01*
X63443Y-35113D01*
X63236Y-35320D01*
X63263Y-35394D01*
X63431Y-35455D01*
X63611Y-35446D01*
X63737Y-35394D01*
X63764Y-35320D01*
X63764Y-36830D01*
X62971Y-36830D01*
X62955Y-36813D01*
X62955Y-35069D01*
X62946Y-34889D01*
X62894Y-34763D01*
X62820Y-34736D01*
X62764Y-34792D01*
X62764Y-34680D01*
X62737Y-34606D01*
X62569Y-34545D01*
X62389Y-34554D01*
X62263Y-34606D01*
X62236Y-34680D01*
X62500Y-34943D01*
X62764Y-34680D01*
X62764Y-34792D01*
X62557Y-35000D01*
X62820Y-35264D01*
X62894Y-35237D01*
X62955Y-35069D01*
X62955Y-36813D01*
X62874Y-36732D01*
X62802Y-36685D01*
X62764Y-36676D01*
X62764Y-35320D01*
X62500Y-35057D01*
X62443Y-35113D01*
X62443Y-35000D01*
X62180Y-34736D01*
X62106Y-34763D01*
X62045Y-34931D01*
X62054Y-35111D01*
X62106Y-35237D01*
X62180Y-35264D01*
X62443Y-35000D01*
X62443Y-35113D01*
X62236Y-35320D01*
X62263Y-35394D01*
X62431Y-35455D01*
X62611Y-35446D01*
X62737Y-35394D01*
X62764Y-35320D01*
X62764Y-36676D01*
X62718Y-36667D01*
X62713Y-36668D01*
X62544Y-36668D01*
X62544Y-36264D01*
X62527Y-36180D01*
X62480Y-36108D01*
X62477Y-36106D01*
X61544Y-35172D01*
X61544Y-34197D01*
X61771Y-33970D01*
X66045Y-33970D01*
X66050Y-33971D01*
X66050Y-33970D01*
X66134Y-33953D01*
X66206Y-33906D01*
X66630Y-33480D01*
X66739Y-33590D01*
X66908Y-33660D01*
X67091Y-33660D01*
X67260Y-33590D01*
X67390Y-33461D01*
X67398Y-33440D01*
X67520Y-33440D01*
X67520Y-33536D01*
X67547Y-33602D01*
X67598Y-33653D01*
X67664Y-33680D01*
X67736Y-33680D01*
X68336Y-33680D01*
X68402Y-33653D01*
X68453Y-33602D01*
X68480Y-33536D01*
X68480Y-33464D01*
X68480Y-32864D01*
X68480Y-32296D01*
X68480Y-32105D01*
X68407Y-31929D01*
X68272Y-31793D01*
X68096Y-31720D01*
X67905Y-31720D01*
X67729Y-31793D01*
X67593Y-31928D01*
X67520Y-32104D01*
X67520Y-32295D01*
X67593Y-32471D01*
X67728Y-32607D01*
X67904Y-32680D01*
X68095Y-32680D01*
X68271Y-32607D01*
X68407Y-32472D01*
X68480Y-32296D01*
X68480Y-32864D01*
X68453Y-32798D01*
X68402Y-32747D01*
X68336Y-32720D01*
X68264Y-32720D01*
X67664Y-32720D01*
X67598Y-32747D01*
X67547Y-32798D01*
X67520Y-32864D01*
X67520Y-32936D01*
X67520Y-32960D01*
X67460Y-32960D01*
X67460Y-30792D01*
X67460Y-30609D01*
X67390Y-30440D01*
X67261Y-30310D01*
X67092Y-30240D01*
X66909Y-30240D01*
X66740Y-30310D01*
X66619Y-30430D01*
X66349Y-30430D01*
X66327Y-30376D01*
X66181Y-30229D01*
X65990Y-30150D01*
X65783Y-30150D01*
X65592Y-30229D01*
X65445Y-30375D01*
X65366Y-30566D01*
X65366Y-30773D01*
X65445Y-30964D01*
X65591Y-31111D01*
X65782Y-31190D01*
X65989Y-31190D01*
X66180Y-31111D01*
X66327Y-30965D01*
X66349Y-30910D01*
X66589Y-30910D01*
X66610Y-30960D01*
X66739Y-31090D01*
X66908Y-31160D01*
X67091Y-31160D01*
X67260Y-31090D01*
X67390Y-30961D01*
X67460Y-30792D01*
X67460Y-32960D01*
X67398Y-32960D01*
X67390Y-32940D01*
X67261Y-32810D01*
X67092Y-32740D01*
X66909Y-32740D01*
X66740Y-32810D01*
X66610Y-32939D01*
X66592Y-32981D01*
X66582Y-32983D01*
X66516Y-32997D01*
X66444Y-33044D01*
X66442Y-33046D01*
X66393Y-33095D01*
X66327Y-32936D01*
X66181Y-32789D01*
X65990Y-32710D01*
X65783Y-32710D01*
X65592Y-32789D01*
X65445Y-32935D01*
X65366Y-33126D01*
X65366Y-33333D01*
X65445Y-33524D01*
X65450Y-33530D01*
X64549Y-33530D01*
X64555Y-33525D01*
X64634Y-33334D01*
X64634Y-33127D01*
X64634Y-30774D01*
X64634Y-30567D01*
X64555Y-30376D01*
X64409Y-30229D01*
X64218Y-30150D01*
X64011Y-30150D01*
X63820Y-30229D01*
X63721Y-30327D01*
X63721Y-24951D01*
X63721Y-24768D01*
X63651Y-24599D01*
X63522Y-24469D01*
X63353Y-24399D01*
X63170Y-24399D01*
X63001Y-24469D01*
X62871Y-24598D01*
X62801Y-24767D01*
X62801Y-24950D01*
X62871Y-25119D01*
X63000Y-25249D01*
X63169Y-25319D01*
X63352Y-25319D01*
X63521Y-25249D01*
X63651Y-25120D01*
X63721Y-24951D01*
X63721Y-30327D01*
X63673Y-30375D01*
X63594Y-30566D01*
X63594Y-30773D01*
X63673Y-30964D01*
X63819Y-31111D01*
X64010Y-31190D01*
X64217Y-31190D01*
X64408Y-31111D01*
X64555Y-30965D01*
X64634Y-30774D01*
X64634Y-33127D01*
X64555Y-32936D01*
X64409Y-32789D01*
X64218Y-32710D01*
X64011Y-32710D01*
X63820Y-32789D01*
X63673Y-32935D01*
X63594Y-33126D01*
X63594Y-33333D01*
X63673Y-33524D01*
X63678Y-33530D01*
X63348Y-33530D01*
X63407Y-33472D01*
X63480Y-33296D01*
X63480Y-33105D01*
X63480Y-32536D01*
X63480Y-32464D01*
X63480Y-31864D01*
X63453Y-31798D01*
X63402Y-31747D01*
X63336Y-31720D01*
X63264Y-31720D01*
X62664Y-31720D01*
X62598Y-31747D01*
X62547Y-31798D01*
X62520Y-31864D01*
X62520Y-31936D01*
X62520Y-32536D01*
X62547Y-32602D01*
X62598Y-32653D01*
X62664Y-32680D01*
X62736Y-32680D01*
X63336Y-32680D01*
X63402Y-32653D01*
X63453Y-32602D01*
X63480Y-32536D01*
X63480Y-33105D01*
X63407Y-32929D01*
X63272Y-32793D01*
X63096Y-32720D01*
X62905Y-32720D01*
X62729Y-32793D01*
X62593Y-32928D01*
X62579Y-32960D01*
X62460Y-32960D01*
X62460Y-30792D01*
X62460Y-30609D01*
X62390Y-30440D01*
X62261Y-30310D01*
X62092Y-30240D01*
X61909Y-30240D01*
X61740Y-30310D01*
X61619Y-30430D01*
X61349Y-30430D01*
X61327Y-30376D01*
X61181Y-30229D01*
X60990Y-30150D01*
X60955Y-30150D01*
X60955Y-29069D01*
X60946Y-28889D01*
X60894Y-28763D01*
X60820Y-28736D01*
X60764Y-28792D01*
X60764Y-28680D01*
X60737Y-28606D01*
X60569Y-28545D01*
X60389Y-28554D01*
X60263Y-28606D01*
X60236Y-28680D01*
X60500Y-28943D01*
X60764Y-28680D01*
X60764Y-28792D01*
X60557Y-29000D01*
X60820Y-29264D01*
X60894Y-29237D01*
X60955Y-29069D01*
X60955Y-30150D01*
X60783Y-30150D01*
X60764Y-30157D01*
X60764Y-29320D01*
X60500Y-29057D01*
X60443Y-29113D01*
X60443Y-29000D01*
X60180Y-28736D01*
X60106Y-28763D01*
X60045Y-28931D01*
X60054Y-29111D01*
X60106Y-29237D01*
X60180Y-29264D01*
X60443Y-29000D01*
X60443Y-29113D01*
X60236Y-29320D01*
X60263Y-29394D01*
X60431Y-29455D01*
X60611Y-29446D01*
X60737Y-29394D01*
X60764Y-29320D01*
X60764Y-30157D01*
X60592Y-30229D01*
X60445Y-30375D01*
X60366Y-30566D01*
X60366Y-30773D01*
X60445Y-30964D01*
X60591Y-31111D01*
X60782Y-31190D01*
X60989Y-31190D01*
X61180Y-31111D01*
X61327Y-30965D01*
X61349Y-30910D01*
X61589Y-30910D01*
X61610Y-30960D01*
X61739Y-31090D01*
X61908Y-31160D01*
X62091Y-31160D01*
X62260Y-31090D01*
X62390Y-30961D01*
X62460Y-30792D01*
X62460Y-32960D01*
X62398Y-32960D01*
X62390Y-32940D01*
X62261Y-32810D01*
X62092Y-32740D01*
X61909Y-32740D01*
X61740Y-32810D01*
X61610Y-32939D01*
X61540Y-33108D01*
X61540Y-33291D01*
X61556Y-33331D01*
X61024Y-33863D01*
X60911Y-33750D01*
X60989Y-33750D01*
X61180Y-33671D01*
X61327Y-33525D01*
X61406Y-33334D01*
X61406Y-33127D01*
X61327Y-32936D01*
X61181Y-32789D01*
X60990Y-32710D01*
X60783Y-32710D01*
X60592Y-32789D01*
X60445Y-32935D01*
X60366Y-33126D01*
X60366Y-33333D01*
X60445Y-33524D01*
X60450Y-33530D01*
X59960Y-33530D01*
X59960Y-29092D01*
X59960Y-28909D01*
X59890Y-28740D01*
X59761Y-28610D01*
X59592Y-28540D01*
X59409Y-28540D01*
X59240Y-28610D01*
X59110Y-28739D01*
X59101Y-28760D01*
X55850Y-28760D01*
X55758Y-28778D01*
X55680Y-28830D01*
X55678Y-28832D01*
X54730Y-29780D01*
X54678Y-29858D01*
X54660Y-29950D01*
X54660Y-33400D01*
X54678Y-33492D01*
X54730Y-33570D01*
X55580Y-34420D01*
X56048Y-34887D01*
X56040Y-34908D01*
X56040Y-35091D01*
X56110Y-35260D01*
X56239Y-35390D01*
X56408Y-35460D01*
X56591Y-35460D01*
X56760Y-35390D01*
X56890Y-35261D01*
X56960Y-35092D01*
X56960Y-34909D01*
X56890Y-34740D01*
X56761Y-34610D01*
X56592Y-34540D01*
X56409Y-34540D01*
X56406Y-34541D01*
X56406Y-33334D01*
X56406Y-33127D01*
X56327Y-32936D01*
X56181Y-32789D01*
X55990Y-32710D01*
X55783Y-32710D01*
X55592Y-32789D01*
X55445Y-32935D01*
X55366Y-33126D01*
X55366Y-33333D01*
X55445Y-33524D01*
X55591Y-33671D01*
X55782Y-33750D01*
X55989Y-33750D01*
X56180Y-33671D01*
X56327Y-33525D01*
X56406Y-33334D01*
X56406Y-34541D01*
X56388Y-34548D01*
X55920Y-34080D01*
X55140Y-33300D01*
X55140Y-30049D01*
X55949Y-29240D01*
X59101Y-29240D01*
X59110Y-29260D01*
X59239Y-29390D01*
X59408Y-29460D01*
X59591Y-29460D01*
X59760Y-29390D01*
X59890Y-29261D01*
X59960Y-29092D01*
X59960Y-33530D01*
X59549Y-33530D01*
X59555Y-33525D01*
X59634Y-33334D01*
X59634Y-33127D01*
X59634Y-30774D01*
X59634Y-30567D01*
X59555Y-30376D01*
X59409Y-30229D01*
X59218Y-30150D01*
X59011Y-30150D01*
X58820Y-30229D01*
X58673Y-30375D01*
X58594Y-30566D01*
X58594Y-30773D01*
X58673Y-30964D01*
X58819Y-31111D01*
X59010Y-31190D01*
X59217Y-31190D01*
X59408Y-31111D01*
X59555Y-30965D01*
X59634Y-30774D01*
X59634Y-33127D01*
X59555Y-32936D01*
X59409Y-32789D01*
X59218Y-32710D01*
X59011Y-32710D01*
X58820Y-32789D01*
X58673Y-32935D01*
X58594Y-33126D01*
X58594Y-33333D01*
X58673Y-33524D01*
X58678Y-33530D01*
X58480Y-33530D01*
X58480Y-33464D01*
X58480Y-32864D01*
X58480Y-32296D01*
X58480Y-32105D01*
X58407Y-31929D01*
X58272Y-31793D01*
X58096Y-31720D01*
X57905Y-31720D01*
X57729Y-31793D01*
X57593Y-31928D01*
X57520Y-32104D01*
X57520Y-32295D01*
X57593Y-32471D01*
X57728Y-32607D01*
X57904Y-32680D01*
X58095Y-32680D01*
X58271Y-32607D01*
X58407Y-32472D01*
X58480Y-32296D01*
X58480Y-32864D01*
X58453Y-32798D01*
X58402Y-32747D01*
X58336Y-32720D01*
X58264Y-32720D01*
X57664Y-32720D01*
X57598Y-32747D01*
X57547Y-32798D01*
X57520Y-32864D01*
X57520Y-32936D01*
X57520Y-32960D01*
X57460Y-32960D01*
X57460Y-30792D01*
X57460Y-30609D01*
X57390Y-30440D01*
X57261Y-30310D01*
X57092Y-30240D01*
X56909Y-30240D01*
X56740Y-30310D01*
X56619Y-30430D01*
X56349Y-30430D01*
X56327Y-30376D01*
X56181Y-30229D01*
X55990Y-30150D01*
X55783Y-30150D01*
X55592Y-30229D01*
X55445Y-30375D01*
X55366Y-30566D01*
X55366Y-30773D01*
X55445Y-30964D01*
X55591Y-31111D01*
X55782Y-31190D01*
X55989Y-31190D01*
X56180Y-31111D01*
X56327Y-30965D01*
X56349Y-30910D01*
X56589Y-30910D01*
X56610Y-30960D01*
X56739Y-31090D01*
X56908Y-31160D01*
X57091Y-31160D01*
X57260Y-31090D01*
X57390Y-30961D01*
X57460Y-30792D01*
X57460Y-32960D01*
X57398Y-32960D01*
X57390Y-32940D01*
X57261Y-32810D01*
X57092Y-32740D01*
X56909Y-32740D01*
X56740Y-32810D01*
X56610Y-32939D01*
X56540Y-33108D01*
X56540Y-33291D01*
X56610Y-33460D01*
X56739Y-33590D01*
X56908Y-33660D01*
X57091Y-33660D01*
X57260Y-33590D01*
X57390Y-33461D01*
X57398Y-33440D01*
X57520Y-33440D01*
X57520Y-33536D01*
X57547Y-33602D01*
X57598Y-33653D01*
X57664Y-33680D01*
X57736Y-33680D01*
X57775Y-33680D01*
X57778Y-33692D01*
X57830Y-33770D01*
X57908Y-33822D01*
X57911Y-33822D01*
X57992Y-33903D01*
X57994Y-33906D01*
X58066Y-33953D01*
X58150Y-33971D01*
X58150Y-33970D01*
X58154Y-33970D01*
X60508Y-33970D01*
X60748Y-34210D01*
X60741Y-34217D01*
X60737Y-34206D01*
X60569Y-34145D01*
X60389Y-34154D01*
X60263Y-34206D01*
X60236Y-34280D01*
X60458Y-34501D01*
X60500Y-34543D01*
X60557Y-34600D01*
X60500Y-34657D01*
X60443Y-34713D01*
X60443Y-34600D01*
X60180Y-34336D01*
X60106Y-34363D01*
X60045Y-34531D01*
X60054Y-34711D01*
X60106Y-34837D01*
X60180Y-34864D01*
X60443Y-34600D01*
X60443Y-34713D01*
X60236Y-34920D01*
X60263Y-34994D01*
X60431Y-35055D01*
X60611Y-35046D01*
X60737Y-34994D01*
X60741Y-34982D01*
X60760Y-35001D01*
X60764Y-34997D01*
X60780Y-34981D01*
X60780Y-35395D01*
X60779Y-35400D01*
X60797Y-35484D01*
X60844Y-35556D01*
X61336Y-36048D01*
X61229Y-36093D01*
X61093Y-36228D01*
X61020Y-36404D01*
X61020Y-36595D01*
X61093Y-36771D01*
X61228Y-36907D01*
X61404Y-36980D01*
X61595Y-36980D01*
X61771Y-36907D01*
X61779Y-36898D01*
X61797Y-36982D01*
X61821Y-37020D01*
X61764Y-37020D01*
X61585Y-37020D01*
X61540Y-37065D01*
X61540Y-37460D01*
X61935Y-37460D01*
X61980Y-37415D01*
X61980Y-37189D01*
X62086Y-37295D01*
X62040Y-37408D01*
X62040Y-37591D01*
X62110Y-37760D01*
X62239Y-37890D01*
X62280Y-37906D01*
X62280Y-38028D01*
X62206Y-38059D01*
X62059Y-38205D01*
X61996Y-38356D01*
X61980Y-38317D01*
X61980Y-37836D01*
X61980Y-37585D01*
X61935Y-37540D01*
X61540Y-37540D01*
X61540Y-37935D01*
X61585Y-37980D01*
X61764Y-37980D01*
X61836Y-37980D01*
X61902Y-37953D01*
X61953Y-37902D01*
X61980Y-37836D01*
X61980Y-38317D01*
X61943Y-38228D01*
X61863Y-38194D01*
X61806Y-38251D01*
X61806Y-38137D01*
X61772Y-38057D01*
X61581Y-37987D01*
X61460Y-37991D01*
X61460Y-37935D01*
X61460Y-37540D01*
X61460Y-37460D01*
X61460Y-37065D01*
X61415Y-37020D01*
X61236Y-37020D01*
X61164Y-37020D01*
X61098Y-37047D01*
X61047Y-37098D01*
X61020Y-37164D01*
X61020Y-37415D01*
X61065Y-37460D01*
X61460Y-37460D01*
X61460Y-37540D01*
X61065Y-37540D01*
X61020Y-37585D01*
X61020Y-37836D01*
X61047Y-37902D01*
X61098Y-37953D01*
X61164Y-37980D01*
X61236Y-37980D01*
X61415Y-37980D01*
X61460Y-37935D01*
X61460Y-37991D01*
X61378Y-37995D01*
X61228Y-38057D01*
X61194Y-38137D01*
X61500Y-38443D01*
X61806Y-38137D01*
X61806Y-38251D01*
X61557Y-38500D01*
X61863Y-38806D01*
X61943Y-38772D01*
X61993Y-38634D01*
X62059Y-38794D01*
X62205Y-38941D01*
X62396Y-39020D01*
X62603Y-39020D01*
X62794Y-38941D01*
X62861Y-38873D01*
X63142Y-39153D01*
X63144Y-39156D01*
X63216Y-39203D01*
X63300Y-39221D01*
X63300Y-39220D01*
X63304Y-39220D01*
X63978Y-39220D01*
X64039Y-39280D01*
X64041Y-39283D01*
X64083Y-39311D01*
X64112Y-39330D01*
X64113Y-39330D01*
X64197Y-39347D01*
X64322Y-39347D01*
X64122Y-39547D01*
X64000Y-39840D01*
X64000Y-40158D01*
X64121Y-40452D01*
X64287Y-40618D01*
X61806Y-40618D01*
X61806Y-38863D01*
X61500Y-38557D01*
X61443Y-38614D01*
X61443Y-38500D01*
X61137Y-38194D01*
X61057Y-38228D01*
X61006Y-38365D01*
X60941Y-38206D01*
X60795Y-38059D01*
X60740Y-38036D01*
X60740Y-37980D01*
X60836Y-37980D01*
X60902Y-37953D01*
X60953Y-37902D01*
X60980Y-37836D01*
X60980Y-37764D01*
X60980Y-37164D01*
X60953Y-37098D01*
X60902Y-37047D01*
X60836Y-37020D01*
X60764Y-37020D01*
X60164Y-37020D01*
X60098Y-37047D01*
X60047Y-37098D01*
X60020Y-37164D01*
X60020Y-37236D01*
X60020Y-37836D01*
X60047Y-37902D01*
X60098Y-37953D01*
X60164Y-37980D01*
X60236Y-37980D01*
X60260Y-37980D01*
X60260Y-38036D01*
X60206Y-38059D01*
X60059Y-38205D01*
X59999Y-38348D01*
X59941Y-38206D01*
X59795Y-38059D01*
X59604Y-37980D01*
X59595Y-37980D01*
X59771Y-37907D01*
X59907Y-37772D01*
X59980Y-37596D01*
X59980Y-37405D01*
X59960Y-37356D01*
X59960Y-34692D01*
X59960Y-34509D01*
X59890Y-34340D01*
X59761Y-34210D01*
X59592Y-34140D01*
X59409Y-34140D01*
X59240Y-34210D01*
X59110Y-34339D01*
X59101Y-34360D01*
X57900Y-34360D01*
X57808Y-34378D01*
X57730Y-34430D01*
X57728Y-34432D01*
X57612Y-34548D01*
X57592Y-34540D01*
X57409Y-34540D01*
X57240Y-34610D01*
X57110Y-34739D01*
X57040Y-34908D01*
X57040Y-35091D01*
X57110Y-35260D01*
X57239Y-35390D01*
X57408Y-35460D01*
X57591Y-35460D01*
X57760Y-35390D01*
X57890Y-35261D01*
X57960Y-35092D01*
X57960Y-34909D01*
X57951Y-34887D01*
X57999Y-34840D01*
X59101Y-34840D01*
X59110Y-34860D01*
X59239Y-34990D01*
X59408Y-35060D01*
X59591Y-35060D01*
X59760Y-34990D01*
X59890Y-34861D01*
X59960Y-34692D01*
X59960Y-37356D01*
X59907Y-37229D01*
X59772Y-37093D01*
X59596Y-37020D01*
X59405Y-37020D01*
X59229Y-37093D01*
X59093Y-37228D01*
X59020Y-37404D01*
X59020Y-37595D01*
X59093Y-37771D01*
X59228Y-37907D01*
X59404Y-37980D01*
X59397Y-37980D01*
X59206Y-38059D01*
X59059Y-38205D01*
X58999Y-38348D01*
X58941Y-38206D01*
X58795Y-38059D01*
X58604Y-37980D01*
X58397Y-37980D01*
X58342Y-38002D01*
X57951Y-37611D01*
X57960Y-37592D01*
X57960Y-37409D01*
X57890Y-37240D01*
X57761Y-37110D01*
X57592Y-37040D01*
X57409Y-37040D01*
X57240Y-37110D01*
X57110Y-37239D01*
X57040Y-37408D01*
X57040Y-37591D01*
X57110Y-37760D01*
X57239Y-37890D01*
X57408Y-37960D01*
X57591Y-37960D01*
X57611Y-37951D01*
X57665Y-38005D01*
X57604Y-37980D01*
X57397Y-37980D01*
X57206Y-38059D01*
X57059Y-38205D01*
X56999Y-38348D01*
X56941Y-38206D01*
X56795Y-38059D01*
X56720Y-38027D01*
X56720Y-37906D01*
X56760Y-37890D01*
X56890Y-37761D01*
X56960Y-37592D01*
X56960Y-37409D01*
X56890Y-37240D01*
X56761Y-37110D01*
X56592Y-37040D01*
X56409Y-37040D01*
X56240Y-37110D01*
X56110Y-37239D01*
X56040Y-37408D01*
X56040Y-37591D01*
X56110Y-37760D01*
X56239Y-37890D01*
X56280Y-37906D01*
X56280Y-38028D01*
X56206Y-38059D01*
X56059Y-38205D01*
X55999Y-38348D01*
X55941Y-38206D01*
X55795Y-38059D01*
X55720Y-38027D01*
X55720Y-37906D01*
X55760Y-37890D01*
X55890Y-37761D01*
X55960Y-37592D01*
X55960Y-37409D01*
X55890Y-37240D01*
X55761Y-37110D01*
X55592Y-37040D01*
X55409Y-37040D01*
X55240Y-37110D01*
X55110Y-37239D01*
X55040Y-37408D01*
X55040Y-37591D01*
X55110Y-37760D01*
X55239Y-37890D01*
X55280Y-37906D01*
X55280Y-38028D01*
X55206Y-38059D01*
X55059Y-38205D01*
X54999Y-38348D01*
X54941Y-38206D01*
X54795Y-38059D01*
X54720Y-38027D01*
X54720Y-37906D01*
X54760Y-37890D01*
X54890Y-37761D01*
X54960Y-37592D01*
X54960Y-37409D01*
X54890Y-37240D01*
X54761Y-37110D01*
X54592Y-37040D01*
X54409Y-37040D01*
X54240Y-37110D01*
X54110Y-37239D01*
X54040Y-37408D01*
X54040Y-37591D01*
X54110Y-37760D01*
X54239Y-37890D01*
X54280Y-37906D01*
X54280Y-38028D01*
X54206Y-38059D01*
X54059Y-38205D01*
X53999Y-38348D01*
X53941Y-38206D01*
X53795Y-38059D01*
X53720Y-38027D01*
X53720Y-37906D01*
X53760Y-37890D01*
X53890Y-37761D01*
X53960Y-37592D01*
X53960Y-37409D01*
X53890Y-37240D01*
X53761Y-37110D01*
X53592Y-37040D01*
X53409Y-37040D01*
X53240Y-37110D01*
X53110Y-37239D01*
X53040Y-37408D01*
X53040Y-37591D01*
X53110Y-37760D01*
X53239Y-37890D01*
X53280Y-37906D01*
X53280Y-38028D01*
X53206Y-38059D01*
X53059Y-38205D01*
X52980Y-38396D01*
X52980Y-38603D01*
X53059Y-38794D01*
X53205Y-38941D01*
X53396Y-39020D01*
X53603Y-39020D01*
X53794Y-38941D01*
X53941Y-38795D01*
X54000Y-38651D01*
X54059Y-38794D01*
X54205Y-38941D01*
X54396Y-39020D01*
X54603Y-39020D01*
X54794Y-38941D01*
X54941Y-38795D01*
X55000Y-38651D01*
X55059Y-38794D01*
X55205Y-38941D01*
X55396Y-39020D01*
X55603Y-39020D01*
X55794Y-38941D01*
X55941Y-38795D01*
X56000Y-38651D01*
X56059Y-38794D01*
X56205Y-38941D01*
X56396Y-39020D01*
X56603Y-39020D01*
X56769Y-38951D01*
X56760Y-39000D01*
X56760Y-41044D01*
X56604Y-40980D01*
X56397Y-40980D01*
X56206Y-41059D01*
X56059Y-41205D01*
X55999Y-41348D01*
X55941Y-41206D01*
X55795Y-41059D01*
X55604Y-40980D01*
X55397Y-40980D01*
X55322Y-41010D01*
X55156Y-40844D01*
X55087Y-40799D01*
X55359Y-40799D01*
X55653Y-40678D01*
X55878Y-40453D01*
X56000Y-40160D01*
X56000Y-39842D01*
X55879Y-39548D01*
X55654Y-39323D01*
X55361Y-39201D01*
X55043Y-39201D01*
X54749Y-39322D01*
X54524Y-39547D01*
X54402Y-39840D01*
X54402Y-40158D01*
X54523Y-40452D01*
X54748Y-40677D01*
X54995Y-40779D01*
X54995Y-40780D01*
X54321Y-40780D01*
X50160Y-36618D01*
X50257Y-36522D01*
X50340Y-36324D01*
X50340Y-36109D01*
X50258Y-35910D01*
X50106Y-35759D01*
X49908Y-35676D01*
X49693Y-35676D01*
X49494Y-35758D01*
X49343Y-35910D01*
X49260Y-36108D01*
X49260Y-36323D01*
X49342Y-36522D01*
X49494Y-36673D01*
X49661Y-36743D01*
X50882Y-37964D01*
X50340Y-37964D01*
X50340Y-37788D01*
X50313Y-37722D01*
X50262Y-37671D01*
X50196Y-37644D01*
X50124Y-37644D01*
X49404Y-37644D01*
X49338Y-37671D01*
X49287Y-37722D01*
X49260Y-37788D01*
X49260Y-37860D01*
X49260Y-38580D01*
X49287Y-38646D01*
X49338Y-38697D01*
X49404Y-38724D01*
X49476Y-38724D01*
X50196Y-38724D01*
X50262Y-38697D01*
X50313Y-38646D01*
X50340Y-38580D01*
X50340Y-38508D01*
X50340Y-38404D01*
X51092Y-38404D01*
X53668Y-40980D01*
X53124Y-40980D01*
X53058Y-41007D01*
X53007Y-41058D01*
X52980Y-41124D01*
X52980Y-41196D01*
X52980Y-41280D01*
X52500Y-41280D01*
X51906Y-41280D01*
X51890Y-41240D01*
X51761Y-41110D01*
X51592Y-41040D01*
X51409Y-41040D01*
X51240Y-41110D01*
X51110Y-41239D01*
X51040Y-41408D01*
X51040Y-41591D01*
X51110Y-41760D01*
X51239Y-41890D01*
X51408Y-41960D01*
X51591Y-41960D01*
X51760Y-41890D01*
X51890Y-41761D01*
X51906Y-41720D01*
X52280Y-41720D01*
X52280Y-42071D01*
X52229Y-42093D01*
X52093Y-42228D01*
X52020Y-42404D01*
X52020Y-42595D01*
X52093Y-42771D01*
X52228Y-42907D01*
X52404Y-42980D01*
X52595Y-42980D01*
X52771Y-42907D01*
X52907Y-42772D01*
X52980Y-42596D01*
X52980Y-42405D01*
X52907Y-42229D01*
X52772Y-42093D01*
X52720Y-42071D01*
X52720Y-41720D01*
X52980Y-41720D01*
X52980Y-41876D01*
X53007Y-41942D01*
X53058Y-41993D01*
X53124Y-42020D01*
X53196Y-42020D01*
X53280Y-42020D01*
X53280Y-42093D01*
X53240Y-42110D01*
X53110Y-42239D01*
X53040Y-42408D01*
X53040Y-42591D01*
X53110Y-42760D01*
X53239Y-42890D01*
X53408Y-42960D01*
X53591Y-42960D01*
X53760Y-42890D01*
X53890Y-42761D01*
X53960Y-42592D01*
X53960Y-42409D01*
X53890Y-42240D01*
X53761Y-42110D01*
X53720Y-42093D01*
X53720Y-42020D01*
X53876Y-42020D01*
X53942Y-41993D01*
X53993Y-41942D01*
X54020Y-41876D01*
X54020Y-41804D01*
X54020Y-41699D01*
X54059Y-41794D01*
X54205Y-41941D01*
X54396Y-42020D01*
X54603Y-42020D01*
X54794Y-41941D01*
X54941Y-41795D01*
X55000Y-41651D01*
X55059Y-41794D01*
X55205Y-41941D01*
X55396Y-42020D01*
X55603Y-42020D01*
X55794Y-41941D01*
X55941Y-41795D01*
X56000Y-41651D01*
X56059Y-41794D01*
X56205Y-41941D01*
X56280Y-41972D01*
X56280Y-42093D01*
X56240Y-42110D01*
X56110Y-42239D01*
X56040Y-42408D01*
X56040Y-42591D01*
X56110Y-42760D01*
X56239Y-42890D01*
X56408Y-42960D01*
X56591Y-42960D01*
X56760Y-42890D01*
X56760Y-43065D01*
X56715Y-43110D01*
X56664Y-43233D01*
X56664Y-43367D01*
X56715Y-43490D01*
X56810Y-43585D01*
X56933Y-43636D01*
X57067Y-43636D01*
X57190Y-43585D01*
X57285Y-43490D01*
X57336Y-43367D01*
X57336Y-43233D01*
X57285Y-43110D01*
X57240Y-43065D01*
X57240Y-42890D01*
X57408Y-42960D01*
X57591Y-42960D01*
X57760Y-42890D01*
X57890Y-42761D01*
X57960Y-42592D01*
X57960Y-42409D01*
X57890Y-42240D01*
X57761Y-42110D01*
X57720Y-42093D01*
X57720Y-41971D01*
X57794Y-41941D01*
X57941Y-41795D01*
X58000Y-41651D01*
X58059Y-41794D01*
X58205Y-41941D01*
X58280Y-41972D01*
X58280Y-42093D01*
X58240Y-42110D01*
X58110Y-42239D01*
X58040Y-42408D01*
X58040Y-42591D01*
X58110Y-42760D01*
X58239Y-42890D01*
X58408Y-42960D01*
X58591Y-42960D01*
X58760Y-42890D01*
X58890Y-42761D01*
X58960Y-42592D01*
X58960Y-42409D01*
X58890Y-42240D01*
X58761Y-42110D01*
X58720Y-42093D01*
X58720Y-41971D01*
X58794Y-41941D01*
X58941Y-41795D01*
X59003Y-41643D01*
X59057Y-41772D01*
X59137Y-41806D01*
X59443Y-41500D01*
X59137Y-41194D01*
X59057Y-41228D01*
X59006Y-41365D01*
X58941Y-41206D01*
X58795Y-41059D01*
X58604Y-40980D01*
X58397Y-40980D01*
X58206Y-41059D01*
X58059Y-41205D01*
X57999Y-41348D01*
X57941Y-41206D01*
X57795Y-41059D01*
X57604Y-40980D01*
X57397Y-40980D01*
X57240Y-41044D01*
X57240Y-39100D01*
X57342Y-38997D01*
X57396Y-39020D01*
X57603Y-39020D01*
X57794Y-38941D01*
X57941Y-38795D01*
X58000Y-38651D01*
X58059Y-38794D01*
X58205Y-38941D01*
X58396Y-39020D01*
X58603Y-39020D01*
X58794Y-38941D01*
X58941Y-38795D01*
X59000Y-38651D01*
X59059Y-38794D01*
X59205Y-38941D01*
X59396Y-39020D01*
X59603Y-39020D01*
X59794Y-38941D01*
X59941Y-38795D01*
X60000Y-38651D01*
X60059Y-38794D01*
X60205Y-38941D01*
X60396Y-39020D01*
X60603Y-39020D01*
X60794Y-38941D01*
X60941Y-38795D01*
X61003Y-38643D01*
X61057Y-38772D01*
X61137Y-38806D01*
X61443Y-38500D01*
X61443Y-38614D01*
X61194Y-38863D01*
X61228Y-38943D01*
X61419Y-39013D01*
X61622Y-39005D01*
X61772Y-38943D01*
X61806Y-38863D01*
X61806Y-40618D01*
X60912Y-40618D01*
X60911Y-40618D01*
X60894Y-40621D01*
X60828Y-40635D01*
X60756Y-40682D01*
X60754Y-40684D01*
X60654Y-40784D01*
X60254Y-40784D01*
X60169Y-40801D01*
X60140Y-40819D01*
X60098Y-40848D01*
X60096Y-40850D01*
X59848Y-41098D01*
X59846Y-41098D01*
X59803Y-41055D01*
X59780Y-41077D01*
X59772Y-41057D01*
X59581Y-40987D01*
X59378Y-40995D01*
X59228Y-41057D01*
X59194Y-41137D01*
X59458Y-41401D01*
X59500Y-41443D01*
X59557Y-41500D01*
X59500Y-41557D01*
X59458Y-41599D01*
X59194Y-41863D01*
X59228Y-41943D01*
X59419Y-42013D01*
X59622Y-42005D01*
X59664Y-41987D01*
X59664Y-42020D01*
X59585Y-42020D01*
X59540Y-42065D01*
X59540Y-42460D01*
X59935Y-42460D01*
X59980Y-42415D01*
X59980Y-42336D01*
X60048Y-42336D01*
X60020Y-42404D01*
X60020Y-42595D01*
X60093Y-42771D01*
X60228Y-42907D01*
X60404Y-42980D01*
X60595Y-42980D01*
X60771Y-42907D01*
X60780Y-42898D01*
X60780Y-44629D01*
X60778Y-44632D01*
X60760Y-44724D01*
X60760Y-44780D01*
X60778Y-44872D01*
X60830Y-44950D01*
X61245Y-45364D01*
X61247Y-45367D01*
X61325Y-45419D01*
X61416Y-45437D01*
X61416Y-45436D01*
X61417Y-45437D01*
X62480Y-45437D01*
X62572Y-45419D01*
X62650Y-45367D01*
X62805Y-45210D01*
X62807Y-45209D01*
X62808Y-45209D01*
X62860Y-45131D01*
X62878Y-45039D01*
X62878Y-44823D01*
X63167Y-44533D01*
X63169Y-44532D01*
X63170Y-44532D01*
X63221Y-44455D01*
X63222Y-44454D01*
X63236Y-44381D01*
X63240Y-44363D01*
X63239Y-44362D01*
X63240Y-44362D01*
X63240Y-44213D01*
X63222Y-44121D01*
X63220Y-44118D01*
X63220Y-42870D01*
X63239Y-42890D01*
X63408Y-42960D01*
X63591Y-42960D01*
X63760Y-42890D01*
X63890Y-42761D01*
X63960Y-42592D01*
X63960Y-42409D01*
X63890Y-42240D01*
X63761Y-42110D01*
X63720Y-42093D01*
X63720Y-41971D01*
X63794Y-41941D01*
X63941Y-41795D01*
X64000Y-41651D01*
X64059Y-41794D01*
X64205Y-41941D01*
X64280Y-41972D01*
X64280Y-42093D01*
X64240Y-42110D01*
X64110Y-42239D01*
X64040Y-42408D01*
X64040Y-42591D01*
X64110Y-42760D01*
X64239Y-42890D01*
X64408Y-42960D01*
X64591Y-42960D01*
X64760Y-42890D01*
X64890Y-42761D01*
X64960Y-42592D01*
X64960Y-42409D01*
X64890Y-42240D01*
X64761Y-42110D01*
X64720Y-42093D01*
X64720Y-41971D01*
X64794Y-41941D01*
X64941Y-41795D01*
X65000Y-41651D01*
X65059Y-41794D01*
X65205Y-41941D01*
X65280Y-41972D01*
X65280Y-42093D01*
X65240Y-42110D01*
X65110Y-42239D01*
X65040Y-42408D01*
X65040Y-42591D01*
X65110Y-42760D01*
X65239Y-42890D01*
X65408Y-42960D01*
X65591Y-42960D01*
X65760Y-42890D01*
X65890Y-42761D01*
X65960Y-42592D01*
X65960Y-42409D01*
X65890Y-42240D01*
X65761Y-42110D01*
X65720Y-42093D01*
X65720Y-41971D01*
X65794Y-41941D01*
X65941Y-41795D01*
X66000Y-41651D01*
X66059Y-41794D01*
X66205Y-41941D01*
X66280Y-41972D01*
X66280Y-42093D01*
X66240Y-42110D01*
X66110Y-42239D01*
X66040Y-42408D01*
X66040Y-42591D01*
X66110Y-42760D01*
X66239Y-42890D01*
X66408Y-42960D01*
X66591Y-42960D01*
X66760Y-42890D01*
X66890Y-42761D01*
X66960Y-42592D01*
X66960Y-42409D01*
X66890Y-42240D01*
X66761Y-42110D01*
X66720Y-42093D01*
X66720Y-41971D01*
X66794Y-41941D01*
X66941Y-41795D01*
X67020Y-41604D01*
X67020Y-41397D01*
X66941Y-41206D01*
X66795Y-41059D01*
X66792Y-41058D01*
X67296Y-41058D01*
X67392Y-41153D01*
X67394Y-41156D01*
X67466Y-41203D01*
X67550Y-41221D01*
X67550Y-41220D01*
X67554Y-41220D01*
X68028Y-41220D01*
X68059Y-41294D01*
X68205Y-41441D01*
X68396Y-41520D01*
X68603Y-41520D01*
X68794Y-41441D01*
X68941Y-41295D01*
X69000Y-41151D01*
X69059Y-41294D01*
X69205Y-41441D01*
X69396Y-41520D01*
X69603Y-41520D01*
X69794Y-41441D01*
X69941Y-41295D01*
X70020Y-41104D01*
X70020Y-44027D01*
X64457Y-44027D01*
X64453Y-44026D01*
X64369Y-44044D01*
X64297Y-44091D01*
X64295Y-44093D01*
X63879Y-44509D01*
X63832Y-44581D01*
X63814Y-44663D01*
X63761Y-44610D01*
X63592Y-44540D01*
X63409Y-44540D01*
X63240Y-44610D01*
X63110Y-44739D01*
X63040Y-44908D01*
X63040Y-45091D01*
X63110Y-45260D01*
X63239Y-45390D01*
X63408Y-45460D01*
X63455Y-45460D01*
X63781Y-45786D01*
X63853Y-45833D01*
X63937Y-45851D01*
X63937Y-45850D01*
X63941Y-45850D01*
X65846Y-45850D01*
X67175Y-45850D01*
X69083Y-45850D01*
X70459Y-47225D01*
X70459Y-49101D01*
X69296Y-50264D01*
X67134Y-50264D01*
X67094Y-50272D01*
X66267Y-50272D01*
X66183Y-50289D01*
X66111Y-50336D01*
X66109Y-50338D01*
X63613Y-52834D01*
X60444Y-52834D01*
X60460Y-52797D01*
X60460Y-52614D01*
X60390Y-52445D01*
X60261Y-52315D01*
X60092Y-52245D01*
X59909Y-52245D01*
X59740Y-52315D01*
X59610Y-52444D01*
X59540Y-52613D01*
X59540Y-52796D01*
X59556Y-52836D01*
X59162Y-53231D01*
X59156Y-53239D01*
X57816Y-54579D01*
X57516Y-54579D01*
X57193Y-54255D01*
X57121Y-54208D01*
X57037Y-54190D01*
X57032Y-54191D01*
X56292Y-54191D01*
X55683Y-53581D01*
X55611Y-53534D01*
X55527Y-53516D01*
X55522Y-53517D01*
X54575Y-53517D01*
X54575Y-51470D01*
X54581Y-51461D01*
X54582Y-51460D01*
X54595Y-51394D01*
X54599Y-51377D01*
X54598Y-51376D01*
X54599Y-51376D01*
X54599Y-51300D01*
X54599Y-51122D01*
X54599Y-50671D01*
X54582Y-50587D01*
X54535Y-50515D01*
X54532Y-50513D01*
X54354Y-50334D01*
X54354Y-46291D01*
X54813Y-45832D01*
X56614Y-45832D01*
X57036Y-45832D01*
X56996Y-45859D01*
X56918Y-45911D01*
X56513Y-46315D01*
X56468Y-46335D01*
X56327Y-46475D01*
X56251Y-46659D01*
X56251Y-46857D01*
X56327Y-47040D01*
X56467Y-47181D01*
X56614Y-47242D01*
X56394Y-47242D01*
X56328Y-47269D01*
X56277Y-47320D01*
X56250Y-47386D01*
X56250Y-47458D01*
X56250Y-48098D01*
X56270Y-48146D01*
X56270Y-48876D01*
X56244Y-48876D01*
X56060Y-48913D01*
X55904Y-49017D01*
X55611Y-49311D01*
X55507Y-49466D01*
X55470Y-49650D01*
X55470Y-51799D01*
X55430Y-51896D01*
X55430Y-52103D01*
X55509Y-52294D01*
X55655Y-52441D01*
X55846Y-52520D01*
X56053Y-52520D01*
X56244Y-52441D01*
X56391Y-52295D01*
X56450Y-52151D01*
X56509Y-52294D01*
X56655Y-52441D01*
X56846Y-52520D01*
X57053Y-52520D01*
X57244Y-52441D01*
X57391Y-52295D01*
X57431Y-52196D01*
X57648Y-51980D01*
X61850Y-51980D01*
X61850Y-51979D01*
X62033Y-51943D01*
X62034Y-51943D01*
X62189Y-51839D01*
X62839Y-51190D01*
X62839Y-51189D01*
X62891Y-51111D01*
X62943Y-51034D01*
X62943Y-51033D01*
X62979Y-50850D01*
X62980Y-50850D01*
X62980Y-50800D01*
X63036Y-50666D01*
X63036Y-50453D01*
X62955Y-50256D01*
X62804Y-50105D01*
X62607Y-50023D01*
X62394Y-50023D01*
X62197Y-50104D01*
X62046Y-50255D01*
X62020Y-50317D01*
X62020Y-50124D01*
X61993Y-50058D01*
X61942Y-50007D01*
X61876Y-49980D01*
X61804Y-49980D01*
X61699Y-49980D01*
X61794Y-49941D01*
X61941Y-49795D01*
X61963Y-49740D01*
X64250Y-49740D01*
X65500Y-49740D01*
X65592Y-49722D01*
X65670Y-49670D01*
X66505Y-48833D01*
X66480Y-48896D01*
X66480Y-49103D01*
X66559Y-49294D01*
X66705Y-49441D01*
X66896Y-49520D01*
X67103Y-49520D01*
X67294Y-49441D01*
X67441Y-49295D01*
X67520Y-49104D01*
X67520Y-48897D01*
X67441Y-48706D01*
X67295Y-48559D01*
X67151Y-48499D01*
X67294Y-48441D01*
X67441Y-48295D01*
X67520Y-48104D01*
X67520Y-47897D01*
X67513Y-47880D01*
X67513Y-47081D01*
X67505Y-46878D01*
X67443Y-46728D01*
X67363Y-46694D01*
X67306Y-46751D01*
X67306Y-46637D01*
X67272Y-46557D01*
X67081Y-46487D01*
X66878Y-46495D01*
X66728Y-46557D01*
X66694Y-46637D01*
X67000Y-46943D01*
X67306Y-46637D01*
X67306Y-46751D01*
X67057Y-47000D01*
X67363Y-47306D01*
X67443Y-47272D01*
X67513Y-47081D01*
X67513Y-47880D01*
X67441Y-47706D01*
X67295Y-47559D01*
X67143Y-47496D01*
X67272Y-47443D01*
X67306Y-47363D01*
X67000Y-47057D01*
X66943Y-47114D01*
X66943Y-47000D01*
X66637Y-46694D01*
X66557Y-46728D01*
X66487Y-46919D01*
X66495Y-47122D01*
X66557Y-47272D01*
X66637Y-47306D01*
X66943Y-47000D01*
X66943Y-47114D01*
X66694Y-47363D01*
X66728Y-47443D01*
X66865Y-47493D01*
X66706Y-47559D01*
X66559Y-47705D01*
X66480Y-47896D01*
X66480Y-48103D01*
X66502Y-48158D01*
X65400Y-49260D01*
X64250Y-49260D01*
X63750Y-49260D01*
X63750Y-47712D01*
X63750Y-47441D01*
X63750Y-47271D01*
X63750Y-47000D01*
X63723Y-46934D01*
X63672Y-46883D01*
X63606Y-46856D01*
X63534Y-46856D01*
X63335Y-46856D01*
X63290Y-46901D01*
X63290Y-47316D01*
X63705Y-47316D01*
X63750Y-47271D01*
X63750Y-47441D01*
X63705Y-47396D01*
X63350Y-47396D01*
X63290Y-47396D01*
X63210Y-47396D01*
X63210Y-47316D01*
X63210Y-46901D01*
X63165Y-46856D01*
X62966Y-46856D01*
X62894Y-46856D01*
X62828Y-46883D01*
X62777Y-46934D01*
X62750Y-47000D01*
X62750Y-47271D01*
X62795Y-47316D01*
X63210Y-47316D01*
X63210Y-47396D01*
X63150Y-47396D01*
X62795Y-47396D01*
X62750Y-47441D01*
X62750Y-47712D01*
X62777Y-47778D01*
X62828Y-47829D01*
X62850Y-47838D01*
X62827Y-47861D01*
X62751Y-48045D01*
X62751Y-48243D01*
X62827Y-48426D01*
X62967Y-48567D01*
X63151Y-48643D01*
X63349Y-48643D01*
X63532Y-48567D01*
X63673Y-48427D01*
X63749Y-48243D01*
X63749Y-48045D01*
X63673Y-47862D01*
X63649Y-47838D01*
X63672Y-47829D01*
X63723Y-47778D01*
X63750Y-47712D01*
X63750Y-49260D01*
X61963Y-49260D01*
X61941Y-49206D01*
X61795Y-49059D01*
X61651Y-48999D01*
X61794Y-48941D01*
X61941Y-48795D01*
X62020Y-48604D01*
X62020Y-48397D01*
X62013Y-48380D01*
X62013Y-47581D01*
X62005Y-47378D01*
X61994Y-47351D01*
X61994Y-46328D01*
X61986Y-46133D01*
X61926Y-45989D01*
X61849Y-45958D01*
X61792Y-46015D01*
X61792Y-45901D01*
X61761Y-45824D01*
X61578Y-45756D01*
X61383Y-45764D01*
X61239Y-45824D01*
X61208Y-45901D01*
X61500Y-46193D01*
X61792Y-45901D01*
X61792Y-46015D01*
X61557Y-46250D01*
X61849Y-46542D01*
X61926Y-46511D01*
X61994Y-46328D01*
X61994Y-47351D01*
X61943Y-47228D01*
X61863Y-47194D01*
X61806Y-47251D01*
X61806Y-47137D01*
X61792Y-47104D01*
X61792Y-46599D01*
X61500Y-46307D01*
X61443Y-46364D01*
X61443Y-46250D01*
X61151Y-45958D01*
X61074Y-45989D01*
X61006Y-46172D01*
X61014Y-46367D01*
X61074Y-46511D01*
X61151Y-46542D01*
X61443Y-46250D01*
X61443Y-46364D01*
X61208Y-46599D01*
X61239Y-46676D01*
X61422Y-46744D01*
X61617Y-46736D01*
X61761Y-46676D01*
X61792Y-46599D01*
X61792Y-47104D01*
X61772Y-47057D01*
X61581Y-46987D01*
X61378Y-46995D01*
X61228Y-47057D01*
X61194Y-47137D01*
X61500Y-47443D01*
X61806Y-47137D01*
X61806Y-47251D01*
X61557Y-47500D01*
X61863Y-47806D01*
X61943Y-47772D01*
X62013Y-47581D01*
X62013Y-48380D01*
X61941Y-48206D01*
X61795Y-48059D01*
X61643Y-47996D01*
X61772Y-47943D01*
X61806Y-47863D01*
X61500Y-47557D01*
X61443Y-47614D01*
X61443Y-47500D01*
X61137Y-47194D01*
X61057Y-47228D01*
X60987Y-47419D01*
X60995Y-47622D01*
X61057Y-47772D01*
X61137Y-47806D01*
X61443Y-47500D01*
X61443Y-47614D01*
X61194Y-47863D01*
X61228Y-47943D01*
X61365Y-47993D01*
X61206Y-48059D01*
X61059Y-48205D01*
X60980Y-48396D01*
X60980Y-48603D01*
X61059Y-48794D01*
X61205Y-48941D01*
X61348Y-49000D01*
X61206Y-49059D01*
X61059Y-49205D01*
X60980Y-49396D01*
X60980Y-49603D01*
X61059Y-49794D01*
X61205Y-49941D01*
X61299Y-49980D01*
X61124Y-49980D01*
X61058Y-50007D01*
X61007Y-50058D01*
X60980Y-50124D01*
X60980Y-50196D01*
X60980Y-50876D01*
X61007Y-50942D01*
X61058Y-50993D01*
X61124Y-51020D01*
X59980Y-51020D01*
X59980Y-42836D01*
X59980Y-42764D01*
X59980Y-42585D01*
X59935Y-42540D01*
X59540Y-42540D01*
X59540Y-42935D01*
X59585Y-42980D01*
X59836Y-42980D01*
X59902Y-42953D01*
X59953Y-42902D01*
X59980Y-42836D01*
X59980Y-51020D01*
X58603Y-51020D01*
X58794Y-50941D01*
X58941Y-50795D01*
X59020Y-50604D01*
X59020Y-50397D01*
X58941Y-50206D01*
X58795Y-50059D01*
X58651Y-49999D01*
X58699Y-49980D01*
X58800Y-49980D01*
X58800Y-49979D01*
X58983Y-49943D01*
X58984Y-49943D01*
X59139Y-49839D01*
X59589Y-49390D01*
X59589Y-49389D01*
X59641Y-49311D01*
X59693Y-49234D01*
X59693Y-49233D01*
X59729Y-49050D01*
X59730Y-49050D01*
X59730Y-46500D01*
X59693Y-46316D01*
X59589Y-46161D01*
X59589Y-46160D01*
X59460Y-46031D01*
X59460Y-42935D01*
X59460Y-42540D01*
X59460Y-42460D01*
X59460Y-42065D01*
X59415Y-42020D01*
X59164Y-42020D01*
X59098Y-42047D01*
X59047Y-42098D01*
X59020Y-42164D01*
X59020Y-42236D01*
X59020Y-42415D01*
X59065Y-42460D01*
X59460Y-42460D01*
X59460Y-42540D01*
X59065Y-42540D01*
X59020Y-42585D01*
X59020Y-42764D01*
X59020Y-42836D01*
X59047Y-42902D01*
X59098Y-42953D01*
X59164Y-42980D01*
X59415Y-42980D01*
X59460Y-42935D01*
X59460Y-46031D01*
X59339Y-45911D01*
X59184Y-45807D01*
X59000Y-45770D01*
X58904Y-45770D01*
X58856Y-45750D01*
X58784Y-45750D01*
X58144Y-45750D01*
X58095Y-45770D01*
X57640Y-45770D01*
X57644Y-45768D01*
X58130Y-45280D01*
X58239Y-45390D01*
X58408Y-45460D01*
X58591Y-45460D01*
X58760Y-45390D01*
X58890Y-45261D01*
X58960Y-45092D01*
X58960Y-44909D01*
X58890Y-44740D01*
X58761Y-44610D01*
X58592Y-44540D01*
X58409Y-44540D01*
X58240Y-44610D01*
X58110Y-44739D01*
X58092Y-44781D01*
X58016Y-44797D01*
X57944Y-44844D01*
X57942Y-44846D01*
X57936Y-44852D01*
X57890Y-44740D01*
X57761Y-44610D01*
X57592Y-44540D01*
X57409Y-44540D01*
X57240Y-44610D01*
X57110Y-44739D01*
X57040Y-44908D01*
X57040Y-45091D01*
X57056Y-45131D01*
X57044Y-45144D01*
X57042Y-45146D01*
X56958Y-45230D01*
X56902Y-45230D01*
X56960Y-45092D01*
X56960Y-44909D01*
X56890Y-44740D01*
X56761Y-44610D01*
X56592Y-44540D01*
X56409Y-44540D01*
X56240Y-44610D01*
X56110Y-44739D01*
X56040Y-44908D01*
X56040Y-45091D01*
X56097Y-45230D01*
X53896Y-45230D01*
X53955Y-45069D01*
X53946Y-44889D01*
X53894Y-44763D01*
X53820Y-44736D01*
X53764Y-44792D01*
X53764Y-44680D01*
X53737Y-44606D01*
X53569Y-44545D01*
X53389Y-44554D01*
X53263Y-44606D01*
X53236Y-44680D01*
X53500Y-44943D01*
X53764Y-44680D01*
X53764Y-44792D01*
X53557Y-45000D01*
X53500Y-45057D01*
X53443Y-45000D01*
X53401Y-44958D01*
X53180Y-44736D01*
X53106Y-44763D01*
X53045Y-44931D01*
X53054Y-45111D01*
X53103Y-45230D01*
X52980Y-45230D01*
X52980Y-43836D01*
X52980Y-43764D01*
X52980Y-43164D01*
X52953Y-43098D01*
X52902Y-43047D01*
X52836Y-43020D01*
X52764Y-43020D01*
X52164Y-43020D01*
X52098Y-43047D01*
X52047Y-43098D01*
X52020Y-43164D01*
X52020Y-43236D01*
X52020Y-43836D01*
X52047Y-43902D01*
X52098Y-43953D01*
X52164Y-43980D01*
X52236Y-43980D01*
X52836Y-43980D01*
X52902Y-43953D01*
X52953Y-43902D01*
X52980Y-43836D01*
X52980Y-45230D01*
X51960Y-45230D01*
X51960Y-44092D01*
X51960Y-43909D01*
X51890Y-43740D01*
X51761Y-43610D01*
X51592Y-43540D01*
X51409Y-43540D01*
X51368Y-43556D01*
X51292Y-43480D01*
X51220Y-43433D01*
X51136Y-43415D01*
X51131Y-43416D01*
X51050Y-43416D01*
X51050Y-41968D01*
X51050Y-41761D01*
X50971Y-41570D01*
X50825Y-41423D01*
X50634Y-41344D01*
X50427Y-41344D01*
X50236Y-41423D01*
X50089Y-41569D01*
X50010Y-41760D01*
X50010Y-41967D01*
X50089Y-42158D01*
X50235Y-42305D01*
X50426Y-42384D01*
X50633Y-42384D01*
X50824Y-42305D01*
X50971Y-42159D01*
X51050Y-41968D01*
X51050Y-43416D01*
X51001Y-43416D01*
X50971Y-43342D01*
X50825Y-43195D01*
X50634Y-43116D01*
X50427Y-43116D01*
X50236Y-43195D01*
X50089Y-43341D01*
X50010Y-43532D01*
X50010Y-43739D01*
X50089Y-43930D01*
X50235Y-44077D01*
X50426Y-44156D01*
X50633Y-44156D01*
X50824Y-44077D01*
X50971Y-43931D01*
X51002Y-43856D01*
X51044Y-43856D01*
X51056Y-43868D01*
X51040Y-43908D01*
X51040Y-44091D01*
X51110Y-44260D01*
X51239Y-44390D01*
X51408Y-44460D01*
X51591Y-44460D01*
X51760Y-44390D01*
X51890Y-44261D01*
X51960Y-44092D01*
X51960Y-45230D01*
X49899Y-45230D01*
X49814Y-45247D01*
X49785Y-45265D01*
X49743Y-45294D01*
X49741Y-45296D01*
X49128Y-45908D01*
X49089Y-45892D01*
X48906Y-45892D01*
X48865Y-45908D01*
X48490Y-45533D01*
X48490Y-43740D01*
X48490Y-43533D01*
X48490Y-41968D01*
X48490Y-41761D01*
X48411Y-41570D01*
X48265Y-41423D01*
X48074Y-41344D01*
X47867Y-41344D01*
X47676Y-41423D01*
X47529Y-41569D01*
X47450Y-41760D01*
X47450Y-41967D01*
X47529Y-42158D01*
X47675Y-42305D01*
X47866Y-42384D01*
X48073Y-42384D01*
X48264Y-42305D01*
X48411Y-42159D01*
X48490Y-41968D01*
X48490Y-43533D01*
X48411Y-43342D01*
X48265Y-43195D01*
X48074Y-43116D01*
X47867Y-43116D01*
X47676Y-43195D01*
X47529Y-43341D01*
X47450Y-43532D01*
X47450Y-43739D01*
X47529Y-43930D01*
X47675Y-44077D01*
X47866Y-44156D01*
X48073Y-44156D01*
X48264Y-44077D01*
X48411Y-43931D01*
X48490Y-43740D01*
X48490Y-45533D01*
X46515Y-43558D01*
X46515Y-40526D01*
X46792Y-40803D01*
X46794Y-40806D01*
X46866Y-40853D01*
X46950Y-40870D01*
X47574Y-40870D01*
X47579Y-40871D01*
X47579Y-40870D01*
X47663Y-40853D01*
X47735Y-40806D01*
X47936Y-40603D01*
X47938Y-40602D01*
X47939Y-40602D01*
X47986Y-40530D01*
X48003Y-40446D01*
X48003Y-39374D01*
X48003Y-38783D01*
X47986Y-38699D01*
X47939Y-38627D01*
X47936Y-38625D01*
X45477Y-36165D01*
X45477Y-35660D01*
X45517Y-35644D01*
X45647Y-35515D01*
X45717Y-35346D01*
X45717Y-35163D01*
X45647Y-34994D01*
X45518Y-34864D01*
X45349Y-34794D01*
X45166Y-34794D01*
X45162Y-34795D01*
X45644Y-34312D01*
X45685Y-34329D01*
X45868Y-34329D01*
X46037Y-34259D01*
X46167Y-34130D01*
X46183Y-34089D01*
X46276Y-34089D01*
X46281Y-34090D01*
X46281Y-34089D01*
X46365Y-34072D01*
X46437Y-34025D01*
X46904Y-33557D01*
X47420Y-33557D01*
X48167Y-34303D01*
X48169Y-34306D01*
X48240Y-34352D01*
X48241Y-34353D01*
X48307Y-34366D01*
X48324Y-34370D01*
X48324Y-34369D01*
X48325Y-34370D01*
X51808Y-34370D01*
X53092Y-35653D01*
X53094Y-35656D01*
X53166Y-35703D01*
X53250Y-35720D01*
X54995Y-35720D01*
X55000Y-35721D01*
X55000Y-35720D01*
X55084Y-35703D01*
X55156Y-35656D01*
X55368Y-35443D01*
X55408Y-35460D01*
X55591Y-35460D01*
X55760Y-35390D01*
X55890Y-35261D01*
X55960Y-35092D01*
X55960Y-34909D01*
X55890Y-34740D01*
X55761Y-34610D01*
X55592Y-34540D01*
X55409Y-34540D01*
X55240Y-34610D01*
X55110Y-34739D01*
X55040Y-34908D01*
X55040Y-35091D01*
X55056Y-35131D01*
X54908Y-35280D01*
X54870Y-35280D01*
X54890Y-35261D01*
X54960Y-35092D01*
X54960Y-34909D01*
X54890Y-34740D01*
X54761Y-34610D01*
X54634Y-34557D01*
X54634Y-33334D01*
X54634Y-33127D01*
X54634Y-30774D01*
X54634Y-30567D01*
X54555Y-30376D01*
X54409Y-30229D01*
X54218Y-30150D01*
X54011Y-30150D01*
X53820Y-30229D01*
X53673Y-30375D01*
X53594Y-30566D01*
X53594Y-30773D01*
X53673Y-30964D01*
X53819Y-31111D01*
X54010Y-31190D01*
X54217Y-31190D01*
X54408Y-31111D01*
X54555Y-30965D01*
X54634Y-30774D01*
X54634Y-33127D01*
X54555Y-32936D01*
X54409Y-32789D01*
X54218Y-32710D01*
X54011Y-32710D01*
X53820Y-32789D01*
X53673Y-32935D01*
X53594Y-33126D01*
X53594Y-33333D01*
X53673Y-33524D01*
X53819Y-33671D01*
X54010Y-33750D01*
X54217Y-33750D01*
X54408Y-33671D01*
X54555Y-33525D01*
X54634Y-33334D01*
X54634Y-34557D01*
X54592Y-34540D01*
X54409Y-34540D01*
X54240Y-34610D01*
X54110Y-34739D01*
X54040Y-34908D01*
X54040Y-35091D01*
X54110Y-35260D01*
X54129Y-35280D01*
X53870Y-35280D01*
X53890Y-35261D01*
X53960Y-35092D01*
X53960Y-34909D01*
X53890Y-34740D01*
X53761Y-34610D01*
X53592Y-34540D01*
X53409Y-34540D01*
X53240Y-34610D01*
X53110Y-34739D01*
X53093Y-34780D01*
X53071Y-34780D01*
X52124Y-33832D01*
X52052Y-33785D01*
X51968Y-33767D01*
X51963Y-33768D01*
X50032Y-33768D01*
X49379Y-33114D01*
X49379Y-30017D01*
X49362Y-29933D01*
X49318Y-29867D01*
X49318Y-29865D01*
X49318Y-28880D01*
X49345Y-28908D01*
X49514Y-28978D01*
X49697Y-28978D01*
X49866Y-28908D01*
X49996Y-28779D01*
X50066Y-28610D01*
X50066Y-28427D01*
X49996Y-28258D01*
X49867Y-28128D01*
X49724Y-28068D01*
X49994Y-27799D01*
X50341Y-27799D01*
X50358Y-27839D01*
X50487Y-27969D01*
X50656Y-28039D01*
X50839Y-28039D01*
X51008Y-27969D01*
X51138Y-27840D01*
X51208Y-27671D01*
X51208Y-27488D01*
X51138Y-27319D01*
X51132Y-27313D01*
X51712Y-27313D01*
X52684Y-28284D01*
X52686Y-28287D01*
X52725Y-28312D01*
X52758Y-28391D01*
X52887Y-28521D01*
X53056Y-28591D01*
X53239Y-28591D01*
X53408Y-28521D01*
X53428Y-28501D01*
X53428Y-28590D01*
X53388Y-28607D01*
X53258Y-28736D01*
X53188Y-28905D01*
X53188Y-29088D01*
X53258Y-29257D01*
X53387Y-29387D01*
X53556Y-29457D01*
X53739Y-29457D01*
X53908Y-29387D01*
X54038Y-29258D01*
X54108Y-29089D01*
X54108Y-28906D01*
X54038Y-28737D01*
X53909Y-28607D01*
X53868Y-28590D01*
X53868Y-28018D01*
X53867Y-28017D01*
X53868Y-28017D01*
X53864Y-28000D01*
X53851Y-27934D01*
X53850Y-27933D01*
X53804Y-27862D01*
X53801Y-27860D01*
X53483Y-27541D01*
X53443Y-27515D01*
X59593Y-27515D01*
X59610Y-27555D01*
X59739Y-27685D01*
X59908Y-27755D01*
X60091Y-27755D01*
X60260Y-27685D01*
X60390Y-27556D01*
X60460Y-27387D01*
X60460Y-27204D01*
X60390Y-27035D01*
X60261Y-26905D01*
X60092Y-26835D01*
X59909Y-26835D01*
X59740Y-26905D01*
X59610Y-27034D01*
X59593Y-27075D01*
X54329Y-27075D01*
X54329Y-25869D01*
X54329Y-25686D01*
X54259Y-25517D01*
X54130Y-25387D01*
X53961Y-25317D01*
X53778Y-25317D01*
X53609Y-25387D01*
X53479Y-25516D01*
X53409Y-25685D01*
X53409Y-25868D01*
X53479Y-26037D01*
X53608Y-26167D01*
X53777Y-26237D01*
X53960Y-26237D01*
X54129Y-26167D01*
X54259Y-26038D01*
X54329Y-25869D01*
X54329Y-27075D01*
X52912Y-27075D01*
X52896Y-27059D01*
X52913Y-27020D01*
X52913Y-26837D01*
X52843Y-26668D01*
X52714Y-26538D01*
X52545Y-26468D01*
X52362Y-26468D01*
X52193Y-26538D01*
X52181Y-26549D01*
X50566Y-26549D01*
X50550Y-26509D01*
X50421Y-26379D01*
X50380Y-26362D01*
X50380Y-24643D01*
X50612Y-24411D01*
X50652Y-24428D01*
X50835Y-24428D01*
X51004Y-24358D01*
X51024Y-24338D01*
X51024Y-24427D01*
X50984Y-24444D01*
X50854Y-24573D01*
X50784Y-24742D01*
X50784Y-24925D01*
X50854Y-25094D01*
X50983Y-25224D01*
X51152Y-25294D01*
X51335Y-25294D01*
X51504Y-25224D01*
X51634Y-25095D01*
X51650Y-25054D01*
X52711Y-25054D01*
X52716Y-25055D01*
X52716Y-25054D01*
X52800Y-25037D01*
X52872Y-24990D01*
X53003Y-24858D01*
X53003Y-24954D01*
X53019Y-24994D01*
X52277Y-25736D01*
X52214Y-25672D01*
X52045Y-25602D01*
X51862Y-25602D01*
X51693Y-25672D01*
X51563Y-25801D01*
X51493Y-25970D01*
X51493Y-26153D01*
X51563Y-26322D01*
X51692Y-26452D01*
X51861Y-26522D01*
X52044Y-26522D01*
X52213Y-26452D01*
X52343Y-26323D01*
X52374Y-26247D01*
X52420Y-26218D01*
X53330Y-25306D01*
X53371Y-25323D01*
X53554Y-25323D01*
X53723Y-25253D01*
X53853Y-25124D01*
X53869Y-25083D01*
X54768Y-25083D01*
X54810Y-25125D01*
X54794Y-25165D01*
X54794Y-25348D01*
X54864Y-25517D01*
X54993Y-25647D01*
X55162Y-25717D01*
X55345Y-25717D01*
X55514Y-25647D01*
X55644Y-25518D01*
X55660Y-25477D01*
X56339Y-25477D01*
X56341Y-25478D01*
X56425Y-25495D01*
X57535Y-25495D01*
X57540Y-25496D01*
X57540Y-25495D01*
X57624Y-25478D01*
X57696Y-25431D01*
X58066Y-25060D01*
X58106Y-25077D01*
X58289Y-25077D01*
X58458Y-25007D01*
X58588Y-24878D01*
X58658Y-24709D01*
X58658Y-24526D01*
X58618Y-24430D01*
X59248Y-25059D01*
X59250Y-25062D01*
X59322Y-25109D01*
X59406Y-25126D01*
X59593Y-25126D01*
X59610Y-25166D01*
X59739Y-25296D01*
X59908Y-25366D01*
X60091Y-25366D01*
X60260Y-25296D01*
X60390Y-25167D01*
X60460Y-24998D01*
X60460Y-24815D01*
X60390Y-24646D01*
X60261Y-24516D01*
X60092Y-24446D01*
X59909Y-24446D01*
X59740Y-24516D01*
X59610Y-24645D01*
X59593Y-24686D01*
X59497Y-24686D01*
X58856Y-24044D01*
X58784Y-23997D01*
X58700Y-23979D01*
X58695Y-23980D01*
X58387Y-23980D01*
X58484Y-23884D01*
X58500Y-23843D01*
X59540Y-23843D01*
X59540Y-23997D01*
X59610Y-24166D01*
X59739Y-24296D01*
X59908Y-24366D01*
X60091Y-24366D01*
X60260Y-24296D01*
X60390Y-24167D01*
X60406Y-24126D01*
X60999Y-24126D01*
X61358Y-24484D01*
X61342Y-24525D01*
X61342Y-24641D01*
X60131Y-25851D01*
X60092Y-25835D01*
X59909Y-25835D01*
X59740Y-25905D01*
X59610Y-26034D01*
X59540Y-26203D01*
X59540Y-26386D01*
X59610Y-26555D01*
X59739Y-26685D01*
X59908Y-26755D01*
X60091Y-26755D01*
X60260Y-26685D01*
X60390Y-26556D01*
X60460Y-26387D01*
X60460Y-26204D01*
X60443Y-26163D01*
X61582Y-25024D01*
X61710Y-25077D01*
X61893Y-25077D01*
X62062Y-25007D01*
X62192Y-24878D01*
X62262Y-24709D01*
X62262Y-24526D01*
X62246Y-24489D01*
X63052Y-23683D01*
X63009Y-23789D01*
X63009Y-23972D01*
X63079Y-24141D01*
X63208Y-24271D01*
X63377Y-24341D01*
X63560Y-24341D01*
X63729Y-24271D01*
X63859Y-24142D01*
X63929Y-23973D01*
X63929Y-23790D01*
X63879Y-23670D01*
X64109Y-23670D01*
X64612Y-24172D01*
X64596Y-24213D01*
X64596Y-24396D01*
X64666Y-24565D01*
X64795Y-24695D01*
X64837Y-24712D01*
X64853Y-24786D01*
X64868Y-24809D01*
X64838Y-24797D01*
X64655Y-24797D01*
X64486Y-24867D01*
X64356Y-24996D01*
X64286Y-25165D01*
X64286Y-25348D01*
X64356Y-25517D01*
X64485Y-25647D01*
X64654Y-25717D01*
X64837Y-25717D01*
X65006Y-25647D01*
X65136Y-25518D01*
X65206Y-25349D01*
X65206Y-25166D01*
X65204Y-25162D01*
X65687Y-25644D01*
X65671Y-25685D01*
X65671Y-25868D01*
X65741Y-26037D01*
X65870Y-26167D01*
X66039Y-26237D01*
X66205Y-26237D01*
X66205Y-28158D01*
X66196Y-28167D01*
X66149Y-28239D01*
X66131Y-28323D01*
X66132Y-28327D01*
X66132Y-28590D01*
X66092Y-28607D01*
X65962Y-28736D01*
X65892Y-28905D01*
X65892Y-29088D01*
X65962Y-29257D01*
X66091Y-29387D01*
X66260Y-29457D01*
X66443Y-29457D01*
X66612Y-29387D01*
X66742Y-29258D01*
X66812Y-29089D01*
X66812Y-28906D01*
X66742Y-28737D01*
X66613Y-28607D01*
X66572Y-28590D01*
X66572Y-28501D01*
X66591Y-28521D01*
X66760Y-28591D01*
X66943Y-28591D01*
X67112Y-28521D01*
X67242Y-28392D01*
X67312Y-28223D01*
X67312Y-28040D01*
X67242Y-27871D01*
X67113Y-27741D01*
X67072Y-27724D01*
X67072Y-27714D01*
X67414Y-27371D01*
X67455Y-27388D01*
X67638Y-27388D01*
X67807Y-27318D01*
X67937Y-27189D01*
X67953Y-27148D01*
X68509Y-27148D01*
X68808Y-27447D01*
X68792Y-27487D01*
X68792Y-27670D01*
X68862Y-27839D01*
X68991Y-27969D01*
X69032Y-27985D01*
X69032Y-28222D01*
X69031Y-28227D01*
X69049Y-28311D01*
X69096Y-28383D01*
X69892Y-29178D01*
X69894Y-29181D01*
X69936Y-29209D01*
X69965Y-29228D01*
X69966Y-29228D01*
X70050Y-29245D01*
X70620Y-29245D01*
X70625Y-29246D01*
X70625Y-29245D01*
X70709Y-29228D01*
X70781Y-29181D01*
X70844Y-29117D01*
X70844Y-29809D01*
X70843Y-29814D01*
X70861Y-29898D01*
X70908Y-29970D01*
X71100Y-30162D01*
X71100Y-31233D01*
X68483Y-33850D01*
X66390Y-33850D01*
X66306Y-33867D01*
X66234Y-33914D01*
X66232Y-33916D01*
X65603Y-34544D01*
X65592Y-34540D01*
X65409Y-34540D01*
X65240Y-34610D01*
X65110Y-34739D01*
X65040Y-34908D01*
X65040Y-35091D01*
X65110Y-35260D01*
X65239Y-35390D01*
X65408Y-35460D01*
X65591Y-35460D01*
X65760Y-35390D01*
X65808Y-35342D01*
X65828Y-35373D01*
X66142Y-35687D01*
X66214Y-35734D01*
X66298Y-35752D01*
X66298Y-35751D01*
X66302Y-35751D01*
X74002Y-35751D01*
X74218Y-35966D01*
X74218Y-37121D01*
X74218Y-37121D01*
G37*
G54D26*
X74218Y-37121D02*
X72029Y-39310D01*
X71982Y-39382D01*
X71964Y-39466D01*
X71965Y-39470D01*
X71965Y-40739D01*
X71964Y-40744D01*
X71982Y-40828D01*
X72029Y-40900D01*
X72323Y-41193D01*
X72323Y-42785D01*
X71081Y-44027D01*
X70020Y-44027D01*
X70020Y-41104D01*
X70020Y-40897D01*
X69941Y-40706D01*
X69795Y-40559D01*
X69651Y-40499D01*
X69794Y-40441D01*
X69941Y-40295D01*
X70020Y-40104D01*
X70020Y-39897D01*
X70013Y-39880D01*
X70013Y-39081D01*
X70005Y-38878D01*
X69943Y-38728D01*
X69863Y-38694D01*
X69557Y-39000D01*
X69863Y-39306D01*
X69943Y-39272D01*
X70013Y-39081D01*
X70013Y-39880D01*
X69941Y-39706D01*
X69795Y-39559D01*
X69643Y-39496D01*
X69772Y-39443D01*
X69806Y-39363D01*
X69542Y-39099D01*
X69500Y-39057D01*
X69443Y-39000D01*
X69500Y-38943D01*
X69542Y-38901D01*
X69806Y-38637D01*
X69772Y-38557D01*
X69581Y-38487D01*
X69378Y-38495D01*
X69228Y-38557D01*
X69218Y-38576D01*
X69214Y-38572D01*
X69203Y-38516D01*
X69202Y-38515D01*
X69156Y-38444D01*
X69153Y-38442D01*
X68956Y-38244D01*
X68884Y-38197D01*
X68800Y-38179D01*
X68795Y-38180D01*
X67750Y-38180D01*
X67665Y-38197D01*
X67636Y-38215D01*
X67594Y-38244D01*
X67592Y-38246D01*
X67058Y-38780D01*
X66947Y-38780D01*
X67020Y-38604D01*
X67020Y-38397D01*
X66941Y-38206D01*
X66795Y-38059D01*
X66720Y-38027D01*
X66720Y-37906D01*
X66760Y-37890D01*
X66890Y-37761D01*
X66960Y-37592D01*
X66960Y-37409D01*
X66890Y-37240D01*
X66761Y-37110D01*
X66592Y-37040D01*
X66409Y-37040D01*
X66240Y-37110D01*
X66110Y-37239D01*
X66040Y-37408D01*
X66040Y-37591D01*
X66110Y-37760D01*
X66239Y-37890D01*
X66280Y-37906D01*
X66280Y-38028D01*
X66206Y-38059D01*
X66059Y-38205D01*
X65999Y-38348D01*
X65941Y-38206D01*
X65795Y-38059D01*
X65720Y-38027D01*
X65720Y-37906D01*
X65760Y-37890D01*
X65890Y-37761D01*
X65960Y-37592D01*
X65960Y-37409D01*
X65890Y-37240D01*
X65761Y-37110D01*
X65592Y-37040D01*
X65409Y-37040D01*
X65240Y-37110D01*
X65110Y-37239D01*
X65040Y-37408D01*
X65040Y-37591D01*
X65110Y-37760D01*
X65239Y-37890D01*
X65280Y-37906D01*
X65280Y-38028D01*
X65206Y-38059D01*
X65059Y-38205D01*
X64999Y-38348D01*
X64941Y-38206D01*
X64795Y-38059D01*
X64720Y-38027D01*
X64720Y-37906D01*
X64760Y-37890D01*
X64890Y-37761D01*
X64960Y-37592D01*
X64960Y-37409D01*
X64955Y-37396D01*
X64955Y-35069D01*
X64946Y-34889D01*
X64894Y-34763D01*
X64820Y-34736D01*
X64764Y-34792D01*
X64764Y-34680D01*
X64737Y-34606D01*
X64569Y-34545D01*
X64389Y-34554D01*
X64263Y-34606D01*
X64236Y-34680D01*
X64500Y-34943D01*
X64764Y-34680D01*
X64764Y-34792D01*
X64557Y-35000D01*
X64820Y-35264D01*
X64894Y-35237D01*
X64955Y-35069D01*
X64955Y-37396D01*
X64890Y-37240D01*
X64764Y-37113D01*
X64764Y-35320D01*
X64500Y-35057D01*
X64443Y-35113D01*
X64443Y-35000D01*
X64180Y-34736D01*
X64106Y-34763D01*
X64045Y-34931D01*
X64054Y-35111D01*
X64106Y-35237D01*
X64180Y-35264D01*
X64443Y-35000D01*
X64443Y-35113D01*
X64236Y-35320D01*
X64263Y-35394D01*
X64431Y-35455D01*
X64611Y-35446D01*
X64737Y-35394D01*
X64764Y-35320D01*
X64764Y-37113D01*
X64761Y-37110D01*
X64592Y-37040D01*
X64409Y-37040D01*
X64368Y-37056D01*
X64206Y-36894D01*
X64134Y-36847D01*
X64050Y-36829D01*
X64045Y-36830D01*
X63955Y-36830D01*
X63955Y-35069D01*
X63946Y-34889D01*
X63894Y-34763D01*
X63820Y-34736D01*
X63764Y-34792D01*
X63764Y-34680D01*
X63737Y-34606D01*
X63569Y-34545D01*
X63389Y-34554D01*
X63263Y-34606D01*
X63236Y-34680D01*
X63500Y-34943D01*
X63764Y-34680D01*
X63764Y-34792D01*
X63557Y-35000D01*
X63820Y-35264D01*
X63894Y-35237D01*
X63955Y-35069D01*
X63955Y-36830D01*
X63764Y-36830D01*
X63764Y-35320D01*
X63500Y-35057D01*
X63443Y-35113D01*
X63443Y-35000D01*
X63180Y-34736D01*
X63106Y-34763D01*
X63045Y-34931D01*
X63054Y-35111D01*
X63106Y-35237D01*
X63180Y-35264D01*
X63443Y-35000D01*
X63443Y-35113D01*
X63236Y-35320D01*
X63263Y-35394D01*
X63431Y-35455D01*
X63611Y-35446D01*
X63737Y-35394D01*
X63764Y-35320D01*
X63764Y-36830D01*
X62971Y-36830D01*
X62955Y-36813D01*
X62955Y-35069D01*
X62946Y-34889D01*
X62894Y-34763D01*
X62820Y-34736D01*
X62764Y-34792D01*
X62764Y-34680D01*
X62737Y-34606D01*
X62569Y-34545D01*
X62389Y-34554D01*
X62263Y-34606D01*
X62236Y-34680D01*
X62500Y-34943D01*
X62764Y-34680D01*
X62764Y-34792D01*
X62557Y-35000D01*
X62820Y-35264D01*
X62894Y-35237D01*
X62955Y-35069D01*
X62955Y-36813D01*
X62874Y-36732D01*
X62802Y-36685D01*
X62764Y-36676D01*
X62764Y-35320D01*
X62500Y-35057D01*
X62443Y-35113D01*
X62443Y-35000D01*
X62180Y-34736D01*
X62106Y-34763D01*
X62045Y-34931D01*
X62054Y-35111D01*
X62106Y-35237D01*
X62180Y-35264D01*
X62443Y-35000D01*
X62443Y-35113D01*
X62236Y-35320D01*
X62263Y-35394D01*
X62431Y-35455D01*
X62611Y-35446D01*
X62737Y-35394D01*
X62764Y-35320D01*
X62764Y-36676D01*
X62718Y-36667D01*
X62713Y-36668D01*
X62544Y-36668D01*
X62544Y-36264D01*
X62527Y-36180D01*
X62480Y-36108D01*
X62477Y-36106D01*
X61544Y-35172D01*
X61544Y-34197D01*
X61771Y-33970D01*
X66045Y-33970D01*
X66050Y-33971D01*
X66050Y-33970D01*
X66134Y-33953D01*
X66206Y-33906D01*
X66630Y-33480D01*
X66739Y-33590D01*
X66908Y-33660D01*
X67091Y-33660D01*
X67260Y-33590D01*
X67390Y-33461D01*
X67398Y-33440D01*
X67520Y-33440D01*
X67520Y-33536D01*
X67547Y-33602D01*
X67598Y-33653D01*
X67664Y-33680D01*
X67736Y-33680D01*
X68336Y-33680D01*
X68402Y-33653D01*
X68453Y-33602D01*
X68480Y-33536D01*
X68480Y-33464D01*
X68480Y-32864D01*
X68480Y-32296D01*
X68480Y-32105D01*
X68407Y-31929D01*
X68272Y-31793D01*
X68096Y-31720D01*
X67905Y-31720D01*
X67729Y-31793D01*
X67593Y-31928D01*
X67520Y-32104D01*
X67520Y-32295D01*
X67593Y-32471D01*
X67728Y-32607D01*
X67904Y-32680D01*
X68095Y-32680D01*
X68271Y-32607D01*
X68407Y-32472D01*
X68480Y-32296D01*
X68480Y-32864D01*
X68453Y-32798D01*
X68402Y-32747D01*
X68336Y-32720D01*
X68264Y-32720D01*
X67664Y-32720D01*
X67598Y-32747D01*
X67547Y-32798D01*
X67520Y-32864D01*
X67520Y-32936D01*
X67520Y-32960D01*
X67460Y-32960D01*
X67460Y-30792D01*
X67460Y-30609D01*
X67390Y-30440D01*
X67261Y-30310D01*
X67092Y-30240D01*
X66909Y-30240D01*
X66740Y-30310D01*
X66619Y-30430D01*
X66349Y-30430D01*
X66327Y-30376D01*
X66181Y-30229D01*
X65990Y-30150D01*
X65783Y-30150D01*
X65592Y-30229D01*
X65445Y-30375D01*
X65366Y-30566D01*
X65366Y-30773D01*
X65445Y-30964D01*
X65591Y-31111D01*
X65782Y-31190D01*
X65989Y-31190D01*
X66180Y-31111D01*
X66327Y-30965D01*
X66349Y-30910D01*
X66589Y-30910D01*
X66610Y-30960D01*
X66739Y-31090D01*
X66908Y-31160D01*
X67091Y-31160D01*
X67260Y-31090D01*
X67390Y-30961D01*
X67460Y-30792D01*
X67460Y-32960D01*
X67398Y-32960D01*
X67390Y-32940D01*
X67261Y-32810D01*
X67092Y-32740D01*
X66909Y-32740D01*
X66740Y-32810D01*
X66610Y-32939D01*
X66592Y-32981D01*
X66582Y-32983D01*
X66516Y-32997D01*
X66444Y-33044D01*
X66442Y-33046D01*
X66393Y-33095D01*
X66327Y-32936D01*
X66181Y-32789D01*
X65990Y-32710D01*
X65783Y-32710D01*
X65592Y-32789D01*
X65445Y-32935D01*
X65366Y-33126D01*
X65366Y-33333D01*
X65445Y-33524D01*
X65450Y-33530D01*
X64549Y-33530D01*
X64555Y-33525D01*
X64634Y-33334D01*
X64634Y-33127D01*
X64634Y-30774D01*
X64634Y-30567D01*
X64555Y-30376D01*
X64409Y-30229D01*
X64218Y-30150D01*
X64011Y-30150D01*
X63820Y-30229D01*
X63721Y-30327D01*
X63721Y-24951D01*
X63721Y-24768D01*
X63651Y-24599D01*
X63522Y-24469D01*
X63353Y-24399D01*
X63170Y-24399D01*
X63001Y-24469D01*
X62871Y-24598D01*
X62801Y-24767D01*
X62801Y-24950D01*
X62871Y-25119D01*
X63000Y-25249D01*
X63169Y-25319D01*
X63352Y-25319D01*
X63521Y-25249D01*
X63651Y-25120D01*
X63721Y-24951D01*
X63721Y-30327D01*
X63673Y-30375D01*
X63594Y-30566D01*
X63594Y-30773D01*
X63673Y-30964D01*
X63819Y-31111D01*
X64010Y-31190D01*
X64217Y-31190D01*
X64408Y-31111D01*
X64555Y-30965D01*
X64634Y-30774D01*
X64634Y-33127D01*
X64555Y-32936D01*
X64409Y-32789D01*
X64218Y-32710D01*
X64011Y-32710D01*
X63820Y-32789D01*
X63673Y-32935D01*
X63594Y-33126D01*
X63594Y-33333D01*
X63673Y-33524D01*
X63678Y-33530D01*
X63348Y-33530D01*
X63407Y-33472D01*
X63480Y-33296D01*
X63480Y-33105D01*
X63480Y-32536D01*
X63480Y-32464D01*
X63480Y-31864D01*
X63453Y-31798D01*
X63402Y-31747D01*
X63336Y-31720D01*
X63264Y-31720D01*
X62664Y-31720D01*
X62598Y-31747D01*
X62547Y-31798D01*
X62520Y-31864D01*
X62520Y-31936D01*
X62520Y-32536D01*
X62547Y-32602D01*
X62598Y-32653D01*
X62664Y-32680D01*
X62736Y-32680D01*
X63336Y-32680D01*
X63402Y-32653D01*
X63453Y-32602D01*
X63480Y-32536D01*
X63480Y-33105D01*
X63407Y-32929D01*
X63272Y-32793D01*
X63096Y-32720D01*
X62905Y-32720D01*
X62729Y-32793D01*
X62593Y-32928D01*
X62579Y-32960D01*
X62460Y-32960D01*
X62460Y-30792D01*
X62460Y-30609D01*
X62390Y-30440D01*
X62261Y-30310D01*
X62092Y-30240D01*
X61909Y-30240D01*
X61740Y-30310D01*
X61619Y-30430D01*
X61349Y-30430D01*
X61327Y-30376D01*
X61181Y-30229D01*
X60990Y-30150D01*
X60955Y-30150D01*
X60955Y-29069D01*
X60946Y-28889D01*
X60894Y-28763D01*
X60820Y-28736D01*
X60764Y-28792D01*
X60764Y-28680D01*
X60737Y-28606D01*
X60569Y-28545D01*
X60389Y-28554D01*
X60263Y-28606D01*
X60236Y-28680D01*
X60500Y-28943D01*
X60764Y-28680D01*
X60764Y-28792D01*
X60557Y-29000D01*
X60820Y-29264D01*
X60894Y-29237D01*
X60955Y-29069D01*
X60955Y-30150D01*
X60783Y-30150D01*
X60764Y-30157D01*
X60764Y-29320D01*
X60500Y-29057D01*
X60443Y-29113D01*
X60443Y-29000D01*
X60180Y-28736D01*
X60106Y-28763D01*
X60045Y-28931D01*
X60054Y-29111D01*
X60106Y-29237D01*
X60180Y-29264D01*
X60443Y-29000D01*
X60443Y-29113D01*
X60236Y-29320D01*
X60263Y-29394D01*
X60431Y-29455D01*
X60611Y-29446D01*
X60737Y-29394D01*
X60764Y-29320D01*
X60764Y-30157D01*
X60592Y-30229D01*
X60445Y-30375D01*
X60366Y-30566D01*
X60366Y-30773D01*
X60445Y-30964D01*
X60591Y-31111D01*
X60782Y-31190D01*
X60989Y-31190D01*
X61180Y-31111D01*
X61327Y-30965D01*
X61349Y-30910D01*
X61589Y-30910D01*
X61610Y-30960D01*
X61739Y-31090D01*
X61908Y-31160D01*
X62091Y-31160D01*
X62260Y-31090D01*
X62390Y-30961D01*
X62460Y-30792D01*
X62460Y-32960D01*
X62398Y-32960D01*
X62390Y-32940D01*
X62261Y-32810D01*
X62092Y-32740D01*
X61909Y-32740D01*
X61740Y-32810D01*
X61610Y-32939D01*
X61540Y-33108D01*
X61540Y-33291D01*
X61556Y-33331D01*
X61024Y-33863D01*
X60911Y-33750D01*
X60989Y-33750D01*
X61180Y-33671D01*
X61327Y-33525D01*
X61406Y-33334D01*
X61406Y-33127D01*
X61327Y-32936D01*
X61181Y-32789D01*
X60990Y-32710D01*
X60783Y-32710D01*
X60592Y-32789D01*
X60445Y-32935D01*
X60366Y-33126D01*
X60366Y-33333D01*
X60445Y-33524D01*
X60450Y-33530D01*
X59960Y-33530D01*
X59960Y-29092D01*
X59960Y-28909D01*
X59890Y-28740D01*
X59761Y-28610D01*
X59592Y-28540D01*
X59409Y-28540D01*
X59240Y-28610D01*
X59110Y-28739D01*
X59101Y-28760D01*
X55850Y-28760D01*
X55758Y-28778D01*
X55680Y-28830D01*
X55678Y-28832D01*
X54730Y-29780D01*
X54678Y-29858D01*
X54660Y-29950D01*
X54660Y-33400D01*
X54678Y-33492D01*
X54730Y-33570D01*
X55580Y-34420D01*
X56048Y-34887D01*
X56040Y-34908D01*
X56040Y-35091D01*
X56110Y-35260D01*
X56239Y-35390D01*
X56408Y-35460D01*
X56591Y-35460D01*
X56760Y-35390D01*
X56890Y-35261D01*
X56960Y-35092D01*
X56960Y-34909D01*
X56890Y-34740D01*
X56761Y-34610D01*
X56592Y-34540D01*
X56409Y-34540D01*
X56406Y-34541D01*
X56406Y-33334D01*
X56406Y-33127D01*
X56327Y-32936D01*
X56181Y-32789D01*
X55990Y-32710D01*
X55783Y-32710D01*
X55592Y-32789D01*
X55445Y-32935D01*
X55366Y-33126D01*
X55366Y-33333D01*
X55445Y-33524D01*
X55591Y-33671D01*
X55782Y-33750D01*
X55989Y-33750D01*
X56180Y-33671D01*
X56327Y-33525D01*
X56406Y-33334D01*
X56406Y-34541D01*
X56388Y-34548D01*
X55920Y-34080D01*
X55140Y-33300D01*
X55140Y-30049D01*
X55949Y-29240D01*
X59101Y-29240D01*
X59110Y-29260D01*
X59239Y-29390D01*
X59408Y-29460D01*
X59591Y-29460D01*
X59760Y-29390D01*
X59890Y-29261D01*
X59960Y-29092D01*
X59960Y-33530D01*
X59549Y-33530D01*
X59555Y-33525D01*
X59634Y-33334D01*
X59634Y-33127D01*
X59634Y-30774D01*
X59634Y-30567D01*
X59555Y-30376D01*
X59409Y-30229D01*
X59218Y-30150D01*
X59011Y-30150D01*
X58820Y-30229D01*
X58673Y-30375D01*
X58594Y-30566D01*
X58594Y-30773D01*
X58673Y-30964D01*
X58819Y-31111D01*
X59010Y-31190D01*
X59217Y-31190D01*
X59408Y-31111D01*
X59555Y-30965D01*
X59634Y-30774D01*
X59634Y-33127D01*
X59555Y-32936D01*
X59409Y-32789D01*
X59218Y-32710D01*
X59011Y-32710D01*
X58820Y-32789D01*
X58673Y-32935D01*
X58594Y-33126D01*
X58594Y-33333D01*
X58673Y-33524D01*
X58678Y-33530D01*
X58480Y-33530D01*
X58480Y-33464D01*
X58480Y-32864D01*
X58480Y-32296D01*
X58480Y-32105D01*
X58407Y-31929D01*
X58272Y-31793D01*
X58096Y-31720D01*
X57905Y-31720D01*
X57729Y-31793D01*
X57593Y-31928D01*
X57520Y-32104D01*
X57520Y-32295D01*
X57593Y-32471D01*
X57728Y-32607D01*
X57904Y-32680D01*
X58095Y-32680D01*
X58271Y-32607D01*
X58407Y-32472D01*
X58480Y-32296D01*
X58480Y-32864D01*
X58453Y-32798D01*
X58402Y-32747D01*
X58336Y-32720D01*
X58264Y-32720D01*
X57664Y-32720D01*
X57598Y-32747D01*
X57547Y-32798D01*
X57520Y-32864D01*
X57520Y-32936D01*
X57520Y-32960D01*
X57460Y-32960D01*
X57460Y-30792D01*
X57460Y-30609D01*
X57390Y-30440D01*
X57261Y-30310D01*
X57092Y-30240D01*
X56909Y-30240D01*
X56740Y-30310D01*
X56619Y-30430D01*
X56349Y-30430D01*
X56327Y-30376D01*
X56181Y-30229D01*
X55990Y-30150D01*
X55783Y-30150D01*
X55592Y-30229D01*
X55445Y-30375D01*
X55366Y-30566D01*
X55366Y-30773D01*
X55445Y-30964D01*
X55591Y-31111D01*
X55782Y-31190D01*
X55989Y-31190D01*
X56180Y-31111D01*
X56327Y-30965D01*
X56349Y-30910D01*
X56589Y-30910D01*
X56610Y-30960D01*
X56739Y-31090D01*
X56908Y-31160D01*
X57091Y-31160D01*
X57260Y-31090D01*
X57390Y-30961D01*
X57460Y-30792D01*
X57460Y-32960D01*
X57398Y-32960D01*
X57390Y-32940D01*
X57261Y-32810D01*
X57092Y-32740D01*
X56909Y-32740D01*
X56740Y-32810D01*
X56610Y-32939D01*
X56540Y-33108D01*
X56540Y-33291D01*
X56610Y-33460D01*
X56739Y-33590D01*
X56908Y-33660D01*
X57091Y-33660D01*
X57260Y-33590D01*
X57390Y-33461D01*
X57398Y-33440D01*
X57520Y-33440D01*
X57520Y-33536D01*
X57547Y-33602D01*
X57598Y-33653D01*
X57664Y-33680D01*
X57736Y-33680D01*
X57775Y-33680D01*
X57778Y-33692D01*
X57830Y-33770D01*
X57908Y-33822D01*
X57911Y-33822D01*
X57992Y-33903D01*
X57994Y-33906D01*
X58066Y-33953D01*
X58150Y-33971D01*
X58150Y-33970D01*
X58154Y-33970D01*
X60508Y-33970D01*
X60748Y-34210D01*
X60741Y-34217D01*
X60737Y-34206D01*
X60569Y-34145D01*
X60389Y-34154D01*
X60263Y-34206D01*
X60236Y-34280D01*
X60458Y-34501D01*
X60500Y-34543D01*
X60557Y-34600D01*
X60500Y-34657D01*
X60443Y-34713D01*
X60443Y-34600D01*
X60180Y-34336D01*
X60106Y-34363D01*
X60045Y-34531D01*
X60054Y-34711D01*
X60106Y-34837D01*
X60180Y-34864D01*
X60443Y-34600D01*
X60443Y-34713D01*
X60236Y-34920D01*
X60263Y-34994D01*
X60431Y-35055D01*
X60611Y-35046D01*
X60737Y-34994D01*
X60741Y-34982D01*
X60760Y-35001D01*
X60764Y-34997D01*
X60780Y-34981D01*
X60780Y-35395D01*
X60779Y-35400D01*
X60797Y-35484D01*
X60844Y-35556D01*
X61336Y-36048D01*
X61229Y-36093D01*
X61093Y-36228D01*
X61020Y-36404D01*
X61020Y-36595D01*
X61093Y-36771D01*
X61228Y-36907D01*
X61404Y-36980D01*
X61595Y-36980D01*
X61771Y-36907D01*
X61779Y-36898D01*
X61797Y-36982D01*
X61821Y-37020D01*
X61764Y-37020D01*
X61585Y-37020D01*
X61540Y-37065D01*
X61540Y-37460D01*
X61935Y-37460D01*
X61980Y-37415D01*
X61980Y-37189D01*
X62086Y-37295D01*
X62040Y-37408D01*
X62040Y-37591D01*
X62110Y-37760D01*
X62239Y-37890D01*
X62280Y-37906D01*
X62280Y-38028D01*
X62206Y-38059D01*
X62059Y-38205D01*
X61996Y-38356D01*
X61980Y-38317D01*
X61980Y-37836D01*
X61980Y-37585D01*
X61935Y-37540D01*
X61540Y-37540D01*
X61540Y-37935D01*
X61585Y-37980D01*
X61764Y-37980D01*
X61836Y-37980D01*
X61902Y-37953D01*
X61953Y-37902D01*
X61980Y-37836D01*
X61980Y-38317D01*
X61943Y-38228D01*
X61863Y-38194D01*
X61806Y-38251D01*
X61806Y-38137D01*
X61772Y-38057D01*
X61581Y-37987D01*
X61460Y-37991D01*
X61460Y-37935D01*
X61460Y-37540D01*
X61460Y-37460D01*
X61460Y-37065D01*
X61415Y-37020D01*
X61236Y-37020D01*
X61164Y-37020D01*
X61098Y-37047D01*
X61047Y-37098D01*
X61020Y-37164D01*
X61020Y-37415D01*
X61065Y-37460D01*
X61460Y-37460D01*
X61460Y-37540D01*
X61065Y-37540D01*
X61020Y-37585D01*
X61020Y-37836D01*
X61047Y-37902D01*
X61098Y-37953D01*
X61164Y-37980D01*
X61236Y-37980D01*
X61415Y-37980D01*
X61460Y-37935D01*
X61460Y-37991D01*
X61378Y-37995D01*
X61228Y-38057D01*
X61194Y-38137D01*
X61500Y-38443D01*
X61806Y-38137D01*
X61806Y-38251D01*
X61557Y-38500D01*
X61863Y-38806D01*
X61943Y-38772D01*
X61993Y-38634D01*
X62059Y-38794D01*
X62205Y-38941D01*
X62396Y-39020D01*
X62603Y-39020D01*
X62794Y-38941D01*
X62861Y-38873D01*
X63142Y-39153D01*
X63144Y-39156D01*
X63216Y-39203D01*
X63300Y-39221D01*
X63300Y-39220D01*
X63304Y-39220D01*
X63978Y-39220D01*
X64039Y-39280D01*
X64041Y-39283D01*
X64083Y-39311D01*
X64112Y-39330D01*
X64113Y-39330D01*
X64197Y-39347D01*
X64322Y-39347D01*
X64122Y-39547D01*
X64000Y-39840D01*
X64000Y-40158D01*
X64121Y-40452D01*
X64287Y-40618D01*
X61806Y-40618D01*
X61806Y-38863D01*
X61500Y-38557D01*
X61443Y-38614D01*
X61443Y-38500D01*
X61137Y-38194D01*
X61057Y-38228D01*
X61006Y-38365D01*
X60941Y-38206D01*
X60795Y-38059D01*
X60740Y-38036D01*
X60740Y-37980D01*
X60836Y-37980D01*
X60902Y-37953D01*
X60953Y-37902D01*
X60980Y-37836D01*
X60980Y-37764D01*
X60980Y-37164D01*
X60953Y-37098D01*
X60902Y-37047D01*
X60836Y-37020D01*
X60764Y-37020D01*
X60164Y-37020D01*
X60098Y-37047D01*
X60047Y-37098D01*
X60020Y-37164D01*
X60020Y-37236D01*
X60020Y-37836D01*
X60047Y-37902D01*
X60098Y-37953D01*
X60164Y-37980D01*
X60236Y-37980D01*
X60260Y-37980D01*
X60260Y-38036D01*
X60206Y-38059D01*
X60059Y-38205D01*
X59999Y-38348D01*
X59941Y-38206D01*
X59795Y-38059D01*
X59604Y-37980D01*
X59595Y-37980D01*
X59771Y-37907D01*
X59907Y-37772D01*
X59980Y-37596D01*
X59980Y-37405D01*
X59960Y-37356D01*
X59960Y-34692D01*
X59960Y-34509D01*
X59890Y-34340D01*
X59761Y-34210D01*
X59592Y-34140D01*
X59409Y-34140D01*
X59240Y-34210D01*
X59110Y-34339D01*
X59101Y-34360D01*
X57900Y-34360D01*
X57808Y-34378D01*
X57730Y-34430D01*
X57728Y-34432D01*
X57612Y-34548D01*
X57592Y-34540D01*
X57409Y-34540D01*
X57240Y-34610D01*
X57110Y-34739D01*
X57040Y-34908D01*
X57040Y-35091D01*
X57110Y-35260D01*
X57239Y-35390D01*
X57408Y-35460D01*
X57591Y-35460D01*
X57760Y-35390D01*
X57890Y-35261D01*
X57960Y-35092D01*
X57960Y-34909D01*
X57951Y-34887D01*
X57999Y-34840D01*
X59101Y-34840D01*
X59110Y-34860D01*
X59239Y-34990D01*
X59408Y-35060D01*
X59591Y-35060D01*
X59760Y-34990D01*
X59890Y-34861D01*
X59960Y-34692D01*
X59960Y-37356D01*
X59907Y-37229D01*
X59772Y-37093D01*
X59596Y-37020D01*
X59405Y-37020D01*
X59229Y-37093D01*
X59093Y-37228D01*
X59020Y-37404D01*
X59020Y-37595D01*
X59093Y-37771D01*
X59228Y-37907D01*
X59404Y-37980D01*
X59397Y-37980D01*
X59206Y-38059D01*
X59059Y-38205D01*
X58999Y-38348D01*
X58941Y-38206D01*
X58795Y-38059D01*
X58604Y-37980D01*
X58397Y-37980D01*
X58342Y-38002D01*
X57951Y-37611D01*
X57960Y-37592D01*
X57960Y-37409D01*
X57890Y-37240D01*
X57761Y-37110D01*
X57592Y-37040D01*
X57409Y-37040D01*
X57240Y-37110D01*
X57110Y-37239D01*
X57040Y-37408D01*
X57040Y-37591D01*
X57110Y-37760D01*
X57239Y-37890D01*
X57408Y-37960D01*
X57591Y-37960D01*
X57611Y-37951D01*
X57665Y-38005D01*
X57604Y-37980D01*
X57397Y-37980D01*
X57206Y-38059D01*
X57059Y-38205D01*
X56999Y-38348D01*
X56941Y-38206D01*
X56795Y-38059D01*
X56720Y-38027D01*
X56720Y-37906D01*
X56760Y-37890D01*
X56890Y-37761D01*
X56960Y-37592D01*
X56960Y-37409D01*
X56890Y-37240D01*
X56761Y-37110D01*
X56592Y-37040D01*
X56409Y-37040D01*
X56240Y-37110D01*
X56110Y-37239D01*
X56040Y-37408D01*
X56040Y-37591D01*
X56110Y-37760D01*
X56239Y-37890D01*
X56280Y-37906D01*
X56280Y-38028D01*
X56206Y-38059D01*
X56059Y-38205D01*
X55999Y-38348D01*
X55941Y-38206D01*
X55795Y-38059D01*
X55720Y-38027D01*
X55720Y-37906D01*
X55760Y-37890D01*
X55890Y-37761D01*
X55960Y-37592D01*
X55960Y-37409D01*
X55890Y-37240D01*
X55761Y-37110D01*
X55592Y-37040D01*
X55409Y-37040D01*
X55240Y-37110D01*
X55110Y-37239D01*
X55040Y-37408D01*
X55040Y-37591D01*
X55110Y-37760D01*
X55239Y-37890D01*
X55280Y-37906D01*
X55280Y-38028D01*
X55206Y-38059D01*
X55059Y-38205D01*
X54999Y-38348D01*
X54941Y-38206D01*
X54795Y-38059D01*
X54720Y-38027D01*
X54720Y-37906D01*
X54760Y-37890D01*
X54890Y-37761D01*
X54960Y-37592D01*
X54960Y-37409D01*
X54890Y-37240D01*
X54761Y-37110D01*
X54592Y-37040D01*
X54409Y-37040D01*
X54240Y-37110D01*
X54110Y-37239D01*
X54040Y-37408D01*
X54040Y-37591D01*
X54110Y-37760D01*
X54239Y-37890D01*
X54280Y-37906D01*
X54280Y-38028D01*
X54206Y-38059D01*
X54059Y-38205D01*
X53999Y-38348D01*
X53941Y-38206D01*
X53795Y-38059D01*
X53720Y-38027D01*
X53720Y-37906D01*
X53760Y-37890D01*
X53890Y-37761D01*
X53960Y-37592D01*
X53960Y-37409D01*
X53890Y-37240D01*
X53761Y-37110D01*
X53592Y-37040D01*
X53409Y-37040D01*
X53240Y-37110D01*
X53110Y-37239D01*
X53040Y-37408D01*
X53040Y-37591D01*
X53110Y-37760D01*
X53239Y-37890D01*
X53280Y-37906D01*
X53280Y-38028D01*
X53206Y-38059D01*
X53059Y-38205D01*
X52980Y-38396D01*
X52980Y-38603D01*
X53059Y-38794D01*
X53205Y-38941D01*
X53396Y-39020D01*
X53603Y-39020D01*
X53794Y-38941D01*
X53941Y-38795D01*
X54000Y-38651D01*
X54059Y-38794D01*
X54205Y-38941D01*
X54396Y-39020D01*
X54603Y-39020D01*
X54794Y-38941D01*
X54941Y-38795D01*
X55000Y-38651D01*
X55059Y-38794D01*
X55205Y-38941D01*
X55396Y-39020D01*
X55603Y-39020D01*
X55794Y-38941D01*
X55941Y-38795D01*
X56000Y-38651D01*
X56059Y-38794D01*
X56205Y-38941D01*
X56396Y-39020D01*
X56603Y-39020D01*
X56769Y-38951D01*
X56760Y-39000D01*
X56760Y-41044D01*
X56604Y-40980D01*
X56397Y-40980D01*
X56206Y-41059D01*
X56059Y-41205D01*
X55999Y-41348D01*
X55941Y-41206D01*
X55795Y-41059D01*
X55604Y-40980D01*
X55397Y-40980D01*
X55322Y-41010D01*
X55156Y-40844D01*
X55087Y-40799D01*
X55359Y-40799D01*
X55653Y-40678D01*
X55878Y-40453D01*
X56000Y-40160D01*
X56000Y-39842D01*
X55879Y-39548D01*
X55654Y-39323D01*
X55361Y-39201D01*
X55043Y-39201D01*
X54749Y-39322D01*
X54524Y-39547D01*
X54402Y-39840D01*
X54402Y-40158D01*
X54523Y-40452D01*
X54748Y-40677D01*
X54995Y-40779D01*
X54995Y-40780D01*
X54321Y-40780D01*
X50160Y-36618D01*
X50257Y-36522D01*
X50340Y-36324D01*
X50340Y-36109D01*
X50258Y-35910D01*
X50106Y-35759D01*
X49908Y-35676D01*
X49693Y-35676D01*
X49494Y-35758D01*
X49343Y-35910D01*
X49260Y-36108D01*
X49260Y-36323D01*
X49342Y-36522D01*
X49494Y-36673D01*
X49661Y-36743D01*
X50882Y-37964D01*
X50340Y-37964D01*
X50340Y-37788D01*
X50313Y-37722D01*
X50262Y-37671D01*
X50196Y-37644D01*
X50124Y-37644D01*
X49404Y-37644D01*
X49338Y-37671D01*
X49287Y-37722D01*
X49260Y-37788D01*
X49260Y-37860D01*
X49260Y-38580D01*
X49287Y-38646D01*
X49338Y-38697D01*
X49404Y-38724D01*
X49476Y-38724D01*
X50196Y-38724D01*
X50262Y-38697D01*
X50313Y-38646D01*
X50340Y-38580D01*
X50340Y-38508D01*
X50340Y-38404D01*
X51092Y-38404D01*
X53668Y-40980D01*
X53124Y-40980D01*
X53058Y-41007D01*
X53007Y-41058D01*
X52980Y-41124D01*
X52980Y-41196D01*
X52980Y-41280D01*
X52500Y-41280D01*
X51906Y-41280D01*
X51890Y-41240D01*
X51761Y-41110D01*
X51592Y-41040D01*
X51409Y-41040D01*
X51240Y-41110D01*
X51110Y-41239D01*
X51040Y-41408D01*
X51040Y-41591D01*
X51110Y-41760D01*
X51239Y-41890D01*
X51408Y-41960D01*
X51591Y-41960D01*
X51760Y-41890D01*
X51890Y-41761D01*
X51906Y-41720D01*
X52280Y-41720D01*
X52280Y-42071D01*
X52229Y-42093D01*
X52093Y-42228D01*
X52020Y-42404D01*
X52020Y-42595D01*
X52093Y-42771D01*
X52228Y-42907D01*
X52404Y-42980D01*
X52595Y-42980D01*
X52771Y-42907D01*
X52907Y-42772D01*
X52980Y-42596D01*
X52980Y-42405D01*
X52907Y-42229D01*
X52772Y-42093D01*
X52720Y-42071D01*
X52720Y-41720D01*
X52980Y-41720D01*
X52980Y-41876D01*
X53007Y-41942D01*
X53058Y-41993D01*
X53124Y-42020D01*
X53196Y-42020D01*
X53280Y-42020D01*
X53280Y-42093D01*
X53240Y-42110D01*
X53110Y-42239D01*
X53040Y-42408D01*
X53040Y-42591D01*
X53110Y-42760D01*
X53239Y-42890D01*
X53408Y-42960D01*
X53591Y-42960D01*
X53760Y-42890D01*
X53890Y-42761D01*
X53960Y-42592D01*
X53960Y-42409D01*
X53890Y-42240D01*
X53761Y-42110D01*
X53720Y-42093D01*
X53720Y-42020D01*
X53876Y-42020D01*
X53942Y-41993D01*
X53993Y-41942D01*
X54020Y-41876D01*
X54020Y-41804D01*
X54020Y-41699D01*
X54059Y-41794D01*
X54205Y-41941D01*
X54396Y-42020D01*
X54603Y-42020D01*
X54794Y-41941D01*
X54941Y-41795D01*
X55000Y-41651D01*
X55059Y-41794D01*
X55205Y-41941D01*
X55396Y-42020D01*
X55603Y-42020D01*
X55794Y-41941D01*
X55941Y-41795D01*
X56000Y-41651D01*
X56059Y-41794D01*
X56205Y-41941D01*
X56280Y-41972D01*
X56280Y-42093D01*
X56240Y-42110D01*
X56110Y-42239D01*
X56040Y-42408D01*
X56040Y-42591D01*
X56110Y-42760D01*
X56239Y-42890D01*
X56408Y-42960D01*
X56591Y-42960D01*
X56760Y-42890D01*
X56760Y-43065D01*
X56715Y-43110D01*
X56664Y-43233D01*
X56664Y-43367D01*
X56715Y-43490D01*
X56810Y-43585D01*
X56933Y-43636D01*
X57067Y-43636D01*
X57190Y-43585D01*
X57285Y-43490D01*
X57336Y-43367D01*
X57336Y-43233D01*
X57285Y-43110D01*
X57240Y-43065D01*
X57240Y-42890D01*
X57408Y-42960D01*
X57591Y-42960D01*
X57760Y-42890D01*
X57890Y-42761D01*
X57960Y-42592D01*
X57960Y-42409D01*
X57890Y-42240D01*
X57761Y-42110D01*
X57720Y-42093D01*
X57720Y-41971D01*
X57794Y-41941D01*
X57941Y-41795D01*
X58000Y-41651D01*
X58059Y-41794D01*
X58205Y-41941D01*
X58280Y-41972D01*
X58280Y-42093D01*
X58240Y-42110D01*
X58110Y-42239D01*
X58040Y-42408D01*
X58040Y-42591D01*
X58110Y-42760D01*
X58239Y-42890D01*
X58408Y-42960D01*
X58591Y-42960D01*
X58760Y-42890D01*
X58890Y-42761D01*
X58960Y-42592D01*
X58960Y-42409D01*
X58890Y-42240D01*
X58761Y-42110D01*
X58720Y-42093D01*
X58720Y-41971D01*
X58794Y-41941D01*
X58941Y-41795D01*
X59003Y-41643D01*
X59057Y-41772D01*
X59137Y-41806D01*
X59443Y-41500D01*
X59137Y-41194D01*
X59057Y-41228D01*
X59006Y-41365D01*
X58941Y-41206D01*
X58795Y-41059D01*
X58604Y-40980D01*
X58397Y-40980D01*
X58206Y-41059D01*
X58059Y-41205D01*
X57999Y-41348D01*
X57941Y-41206D01*
X57795Y-41059D01*
X57604Y-40980D01*
X57397Y-40980D01*
X57240Y-41044D01*
X57240Y-39100D01*
X57342Y-38997D01*
X57396Y-39020D01*
X57603Y-39020D01*
X57794Y-38941D01*
X57941Y-38795D01*
X58000Y-38651D01*
X58059Y-38794D01*
X58205Y-38941D01*
X58396Y-39020D01*
X58603Y-39020D01*
X58794Y-38941D01*
X58941Y-38795D01*
X59000Y-38651D01*
X59059Y-38794D01*
X59205Y-38941D01*
X59396Y-39020D01*
X59603Y-39020D01*
X59794Y-38941D01*
X59941Y-38795D01*
X60000Y-38651D01*
X60059Y-38794D01*
X60205Y-38941D01*
X60396Y-39020D01*
X60603Y-39020D01*
X60794Y-38941D01*
X60941Y-38795D01*
X61003Y-38643D01*
X61057Y-38772D01*
X61137Y-38806D01*
X61443Y-38500D01*
X61443Y-38614D01*
X61194Y-38863D01*
X61228Y-38943D01*
X61419Y-39013D01*
X61622Y-39005D01*
X61772Y-38943D01*
X61806Y-38863D01*
X61806Y-40618D01*
X60912Y-40618D01*
X60911Y-40618D01*
X60894Y-40621D01*
X60828Y-40635D01*
X60756Y-40682D01*
X60754Y-40684D01*
X60654Y-40784D01*
X60254Y-40784D01*
X60169Y-40801D01*
X60140Y-40819D01*
X60098Y-40848D01*
X60096Y-40850D01*
X59848Y-41098D01*
X59846Y-41098D01*
X59803Y-41055D01*
X59780Y-41077D01*
X59772Y-41057D01*
X59581Y-40987D01*
X59378Y-40995D01*
X59228Y-41057D01*
X59194Y-41137D01*
X59458Y-41401D01*
X59500Y-41443D01*
X59557Y-41500D01*
X59500Y-41557D01*
X59458Y-41599D01*
X59194Y-41863D01*
X59228Y-41943D01*
X59419Y-42013D01*
X59622Y-42005D01*
X59664Y-41987D01*
X59664Y-42020D01*
X59585Y-42020D01*
X59540Y-42065D01*
X59540Y-42460D01*
X59935Y-42460D01*
X59980Y-42415D01*
X59980Y-42336D01*
X60048Y-42336D01*
X60020Y-42404D01*
X60020Y-42595D01*
X60093Y-42771D01*
X60228Y-42907D01*
X60404Y-42980D01*
X60595Y-42980D01*
X60771Y-42907D01*
X60780Y-42898D01*
X60780Y-44629D01*
X60778Y-44632D01*
X60760Y-44724D01*
X60760Y-44780D01*
X60778Y-44872D01*
X60830Y-44950D01*
X61245Y-45364D01*
X61247Y-45367D01*
X61325Y-45419D01*
X61416Y-45437D01*
X61416Y-45436D01*
X61417Y-45437D01*
X62480Y-45437D01*
X62572Y-45419D01*
X62650Y-45367D01*
X62805Y-45210D01*
X62807Y-45209D01*
X62808Y-45209D01*
X62860Y-45131D01*
X62878Y-45039D01*
X62878Y-44823D01*
X63167Y-44533D01*
X63169Y-44532D01*
X63170Y-44532D01*
X63221Y-44455D01*
X63222Y-44454D01*
X63236Y-44381D01*
X63240Y-44363D01*
X63239Y-44362D01*
X63240Y-44362D01*
X63240Y-44213D01*
X63222Y-44121D01*
X63220Y-44118D01*
X63220Y-42870D01*
X63239Y-42890D01*
X63408Y-42960D01*
X63591Y-42960D01*
X63760Y-42890D01*
X63890Y-42761D01*
X63960Y-42592D01*
X63960Y-42409D01*
X63890Y-42240D01*
X63761Y-42110D01*
X63720Y-42093D01*
X63720Y-41971D01*
X63794Y-41941D01*
X63941Y-41795D01*
X64000Y-41651D01*
X64059Y-41794D01*
X64205Y-41941D01*
X64280Y-41972D01*
X64280Y-42093D01*
X64240Y-42110D01*
X64110Y-42239D01*
X64040Y-42408D01*
X64040Y-42591D01*
X64110Y-42760D01*
X64239Y-42890D01*
X64408Y-42960D01*
X64591Y-42960D01*
X64760Y-42890D01*
X64890Y-42761D01*
X64960Y-42592D01*
X64960Y-42409D01*
X64890Y-42240D01*
X64761Y-42110D01*
X64720Y-42093D01*
X64720Y-41971D01*
X64794Y-41941D01*
X64941Y-41795D01*
X65000Y-41651D01*
X65059Y-41794D01*
X65205Y-41941D01*
X65280Y-41972D01*
X65280Y-42093D01*
X65240Y-42110D01*
X65110Y-42239D01*
X65040Y-42408D01*
X65040Y-42591D01*
X65110Y-42760D01*
X65239Y-42890D01*
X65408Y-42960D01*
X65591Y-42960D01*
X65760Y-42890D01*
X65890Y-42761D01*
X65960Y-42592D01*
X65960Y-42409D01*
X65890Y-42240D01*
X65761Y-42110D01*
X65720Y-42093D01*
X65720Y-41971D01*
X65794Y-41941D01*
X65941Y-41795D01*
X66000Y-41651D01*
X66059Y-41794D01*
X66205Y-41941D01*
X66280Y-41972D01*
X66280Y-42093D01*
X66240Y-42110D01*
X66110Y-42239D01*
X66040Y-42408D01*
X66040Y-42591D01*
X66110Y-42760D01*
X66239Y-42890D01*
X66408Y-42960D01*
X66591Y-42960D01*
X66760Y-42890D01*
X66890Y-42761D01*
X66960Y-42592D01*
X66960Y-42409D01*
X66890Y-42240D01*
X66761Y-42110D01*
X66720Y-42093D01*
X66720Y-41971D01*
X66794Y-41941D01*
X66941Y-41795D01*
X67020Y-41604D01*
X67020Y-41397D01*
X66941Y-41206D01*
X66795Y-41059D01*
X66792Y-41058D01*
X67296Y-41058D01*
X67392Y-41153D01*
X67394Y-41156D01*
X67466Y-41203D01*
X67550Y-41221D01*
X67550Y-41220D01*
X67554Y-41220D01*
X68028Y-41220D01*
X68059Y-41294D01*
X68205Y-41441D01*
X68396Y-41520D01*
X68603Y-41520D01*
X68794Y-41441D01*
X68941Y-41295D01*
X69000Y-41151D01*
X69059Y-41294D01*
X69205Y-41441D01*
X69396Y-41520D01*
X69603Y-41520D01*
X69794Y-41441D01*
X69941Y-41295D01*
X70020Y-41104D01*
X70020Y-44027D01*
X64457Y-44027D01*
X64453Y-44026D01*
X64369Y-44044D01*
X64297Y-44091D01*
X64295Y-44093D01*
X63879Y-44509D01*
X63832Y-44581D01*
X63814Y-44663D01*
X63761Y-44610D01*
X63592Y-44540D01*
X63409Y-44540D01*
X63240Y-44610D01*
X63110Y-44739D01*
X63040Y-44908D01*
X63040Y-45091D01*
X63110Y-45260D01*
X63239Y-45390D01*
X63408Y-45460D01*
X63455Y-45460D01*
X63781Y-45786D01*
X63853Y-45833D01*
X63937Y-45851D01*
X63937Y-45850D01*
X63941Y-45850D01*
X65846Y-45850D01*
X67175Y-45850D01*
X69083Y-45850D01*
X70459Y-47225D01*
X70459Y-49101D01*
X69296Y-50264D01*
X67134Y-50264D01*
X67094Y-50272D01*
X66267Y-50272D01*
X66183Y-50289D01*
X66111Y-50336D01*
X66109Y-50338D01*
X63613Y-52834D01*
X60444Y-52834D01*
X60460Y-52797D01*
X60460Y-52614D01*
X60390Y-52445D01*
X60261Y-52315D01*
X60092Y-52245D01*
X59909Y-52245D01*
X59740Y-52315D01*
X59610Y-52444D01*
X59540Y-52613D01*
X59540Y-52796D01*
X59556Y-52836D01*
X59162Y-53231D01*
X59156Y-53239D01*
X57816Y-54579D01*
X57516Y-54579D01*
X57193Y-54255D01*
X57121Y-54208D01*
X57037Y-54190D01*
X57032Y-54191D01*
X56292Y-54191D01*
X55683Y-53581D01*
X55611Y-53534D01*
X55527Y-53516D01*
X55522Y-53517D01*
X54575Y-53517D01*
X54575Y-51470D01*
X54581Y-51461D01*
X54582Y-51460D01*
X54595Y-51394D01*
X54599Y-51377D01*
X54598Y-51376D01*
X54599Y-51376D01*
X54599Y-51300D01*
X54599Y-51122D01*
X54599Y-50671D01*
X54582Y-50587D01*
X54535Y-50515D01*
X54532Y-50513D01*
X54354Y-50334D01*
X54354Y-46291D01*
X54813Y-45832D01*
X56614Y-45832D01*
X57036Y-45832D01*
X56996Y-45859D01*
X56918Y-45911D01*
X56513Y-46315D01*
X56468Y-46335D01*
X56327Y-46475D01*
X56251Y-46659D01*
X56251Y-46857D01*
X56327Y-47040D01*
X56467Y-47181D01*
X56614Y-47242D01*
X56394Y-47242D01*
X56328Y-47269D01*
X56277Y-47320D01*
X56250Y-47386D01*
X56250Y-47458D01*
X56250Y-48098D01*
X56270Y-48146D01*
X56270Y-48876D01*
X56244Y-48876D01*
X56060Y-48913D01*
X55904Y-49017D01*
X55611Y-49311D01*
X55507Y-49466D01*
X55470Y-49650D01*
X55470Y-51799D01*
X55430Y-51896D01*
X55430Y-52103D01*
X55509Y-52294D01*
X55655Y-52441D01*
X55846Y-52520D01*
X56053Y-52520D01*
X56244Y-52441D01*
X56391Y-52295D01*
X56450Y-52151D01*
X56509Y-52294D01*
X56655Y-52441D01*
X56846Y-52520D01*
X57053Y-52520D01*
X57244Y-52441D01*
X57391Y-52295D01*
X57431Y-52196D01*
X57648Y-51980D01*
X61850Y-51980D01*
X61850Y-51979D01*
X62033Y-51943D01*
X62034Y-51943D01*
X62189Y-51839D01*
X62839Y-51190D01*
X62839Y-51189D01*
X62891Y-51111D01*
X62943Y-51034D01*
X62943Y-51033D01*
X62979Y-50850D01*
X62980Y-50850D01*
X62980Y-50800D01*
X63036Y-50666D01*
X63036Y-50453D01*
X62955Y-50256D01*
X62804Y-50105D01*
X62607Y-50023D01*
X62394Y-50023D01*
X62197Y-50104D01*
X62046Y-50255D01*
X62020Y-50317D01*
X62020Y-50124D01*
X61993Y-50058D01*
X61942Y-50007D01*
X61876Y-49980D01*
X61804Y-49980D01*
X61699Y-49980D01*
X61794Y-49941D01*
X61941Y-49795D01*
X61963Y-49740D01*
X64250Y-49740D01*
X65500Y-49740D01*
X65592Y-49722D01*
X65670Y-49670D01*
X66505Y-48833D01*
X66480Y-48896D01*
X66480Y-49103D01*
X66559Y-49294D01*
X66705Y-49441D01*
X66896Y-49520D01*
X67103Y-49520D01*
X67294Y-49441D01*
X67441Y-49295D01*
X67520Y-49104D01*
X67520Y-48897D01*
X67441Y-48706D01*
X67295Y-48559D01*
X67151Y-48499D01*
X67294Y-48441D01*
X67441Y-48295D01*
X67520Y-48104D01*
X67520Y-47897D01*
X67513Y-47880D01*
X67513Y-47081D01*
X67505Y-46878D01*
X67443Y-46728D01*
X67363Y-46694D01*
X67306Y-46751D01*
X67306Y-46637D01*
X67272Y-46557D01*
X67081Y-46487D01*
X66878Y-46495D01*
X66728Y-46557D01*
X66694Y-46637D01*
X67000Y-46943D01*
X67306Y-46637D01*
X67306Y-46751D01*
X67057Y-47000D01*
X67363Y-47306D01*
X67443Y-47272D01*
X67513Y-47081D01*
X67513Y-47880D01*
X67441Y-47706D01*
X67295Y-47559D01*
X67143Y-47496D01*
X67272Y-47443D01*
X67306Y-47363D01*
X67000Y-47057D01*
X66943Y-47114D01*
X66943Y-47000D01*
X66637Y-46694D01*
X66557Y-46728D01*
X66487Y-46919D01*
X66495Y-47122D01*
X66557Y-47272D01*
X66637Y-47306D01*
X66943Y-47000D01*
X66943Y-47114D01*
X66694Y-47363D01*
X66728Y-47443D01*
X66865Y-47493D01*
X66706Y-47559D01*
X66559Y-47705D01*
X66480Y-47896D01*
X66480Y-48103D01*
X66502Y-48158D01*
X65400Y-49260D01*
X64250Y-49260D01*
X63750Y-49260D01*
X63750Y-47712D01*
X63750Y-47441D01*
X63750Y-47271D01*
X63750Y-47000D01*
X63723Y-46934D01*
X63672Y-46883D01*
X63606Y-46856D01*
X63534Y-46856D01*
X63335Y-46856D01*
X63290Y-46901D01*
X63290Y-47316D01*
X63705Y-47316D01*
X63750Y-47271D01*
X63750Y-47441D01*
X63705Y-47396D01*
X63350Y-47396D01*
X63290Y-47396D01*
X63210Y-47396D01*
X63210Y-47316D01*
X63210Y-46901D01*
X63165Y-46856D01*
X62966Y-46856D01*
X62894Y-46856D01*
X62828Y-46883D01*
X62777Y-46934D01*
X62750Y-47000D01*
X62750Y-47271D01*
X62795Y-47316D01*
X63210Y-47316D01*
X63210Y-47396D01*
X63150Y-47396D01*
X62795Y-47396D01*
X62750Y-47441D01*
X62750Y-47712D01*
X62777Y-47778D01*
X62828Y-47829D01*
X62850Y-47838D01*
X62827Y-47861D01*
X62751Y-48045D01*
X62751Y-48243D01*
X62827Y-48426D01*
X62967Y-48567D01*
X63151Y-48643D01*
X63349Y-48643D01*
X63532Y-48567D01*
X63673Y-48427D01*
X63749Y-48243D01*
X63749Y-48045D01*
X63673Y-47862D01*
X63649Y-47838D01*
X63672Y-47829D01*
X63723Y-47778D01*
X63750Y-47712D01*
X63750Y-49260D01*
X61963Y-49260D01*
X61941Y-49206D01*
X61795Y-49059D01*
X61651Y-48999D01*
X61794Y-48941D01*
X61941Y-48795D01*
X62020Y-48604D01*
X62020Y-48397D01*
X62013Y-48380D01*
X62013Y-47581D01*
X62005Y-47378D01*
X61994Y-47351D01*
X61994Y-46328D01*
X61986Y-46133D01*
X61926Y-45989D01*
X61849Y-45958D01*
X61792Y-46015D01*
X61792Y-45901D01*
X61761Y-45824D01*
X61578Y-45756D01*
X61383Y-45764D01*
X61239Y-45824D01*
X61208Y-45901D01*
X61500Y-46193D01*
X61792Y-45901D01*
X61792Y-46015D01*
X61557Y-46250D01*
X61849Y-46542D01*
X61926Y-46511D01*
X61994Y-46328D01*
X61994Y-47351D01*
X61943Y-47228D01*
X61863Y-47194D01*
X61806Y-47251D01*
X61806Y-47137D01*
X61792Y-47104D01*
X61792Y-46599D01*
X61500Y-46307D01*
X61443Y-46364D01*
X61443Y-46250D01*
X61151Y-45958D01*
X61074Y-45989D01*
X61006Y-46172D01*
X61014Y-46367D01*
X61074Y-46511D01*
X61151Y-46542D01*
X61443Y-46250D01*
X61443Y-46364D01*
X61208Y-46599D01*
X61239Y-46676D01*
X61422Y-46744D01*
X61617Y-46736D01*
X61761Y-46676D01*
X61792Y-46599D01*
X61792Y-47104D01*
X61772Y-47057D01*
X61581Y-46987D01*
X61378Y-46995D01*
X61228Y-47057D01*
X61194Y-47137D01*
X61500Y-47443D01*
X61806Y-47137D01*
X61806Y-47251D01*
X61557Y-47500D01*
X61863Y-47806D01*
X61943Y-47772D01*
X62013Y-47581D01*
X62013Y-48380D01*
X61941Y-48206D01*
X61795Y-48059D01*
X61643Y-47996D01*
X61772Y-47943D01*
X61806Y-47863D01*
X61500Y-47557D01*
X61443Y-47614D01*
X61443Y-47500D01*
X61137Y-47194D01*
X61057Y-47228D01*
X60987Y-47419D01*
X60995Y-47622D01*
X61057Y-47772D01*
X61137Y-47806D01*
X61443Y-47500D01*
X61443Y-47614D01*
X61194Y-47863D01*
X61228Y-47943D01*
X61365Y-47993D01*
X61206Y-48059D01*
X61059Y-48205D01*
X60980Y-48396D01*
X60980Y-48603D01*
X61059Y-48794D01*
X61205Y-48941D01*
X61348Y-49000D01*
X61206Y-49059D01*
X61059Y-49205D01*
X60980Y-49396D01*
X60980Y-49603D01*
X61059Y-49794D01*
X61205Y-49941D01*
X61299Y-49980D01*
X61124Y-49980D01*
X61058Y-50007D01*
X61007Y-50058D01*
X60980Y-50124D01*
X60980Y-50196D01*
X60980Y-50876D01*
X61007Y-50942D01*
X61058Y-50993D01*
X61124Y-51020D01*
X59980Y-51020D01*
X59980Y-42836D01*
X59980Y-42764D01*
X59980Y-42585D01*
X59935Y-42540D01*
X59540Y-42540D01*
X59540Y-42935D01*
X59585Y-42980D01*
X59836Y-42980D01*
X59902Y-42953D01*
X59953Y-42902D01*
X59980Y-42836D01*
X59980Y-51020D01*
X58603Y-51020D01*
X58794Y-50941D01*
X58941Y-50795D01*
X59020Y-50604D01*
X59020Y-50397D01*
X58941Y-50206D01*
X58795Y-50059D01*
X58651Y-49999D01*
X58699Y-49980D01*
X58800Y-49980D01*
X58800Y-49979D01*
X58983Y-49943D01*
X58984Y-49943D01*
X59139Y-49839D01*
X59589Y-49390D01*
X59589Y-49389D01*
X59641Y-49311D01*
X59693Y-49234D01*
X59693Y-49233D01*
X59729Y-49050D01*
X59730Y-49050D01*
X59730Y-46500D01*
X59693Y-46316D01*
X59589Y-46161D01*
X59589Y-46160D01*
X59460Y-46031D01*
X59460Y-42935D01*
X59460Y-42540D01*
X59460Y-42460D01*
X59460Y-42065D01*
X59415Y-42020D01*
X59164Y-42020D01*
X59098Y-42047D01*
X59047Y-42098D01*
X59020Y-42164D01*
X59020Y-42236D01*
X59020Y-42415D01*
X59065Y-42460D01*
X59460Y-42460D01*
X59460Y-42540D01*
X59065Y-42540D01*
X59020Y-42585D01*
X59020Y-42764D01*
X59020Y-42836D01*
X59047Y-42902D01*
X59098Y-42953D01*
X59164Y-42980D01*
X59415Y-42980D01*
X59460Y-42935D01*
X59460Y-46031D01*
X59339Y-45911D01*
X59184Y-45807D01*
X59000Y-45770D01*
X58904Y-45770D01*
X58856Y-45750D01*
X58784Y-45750D01*
X58144Y-45750D01*
X58095Y-45770D01*
X57640Y-45770D01*
X57644Y-45768D01*
X58130Y-45280D01*
X58239Y-45390D01*
X58408Y-45460D01*
X58591Y-45460D01*
X58760Y-45390D01*
X58890Y-45261D01*
X58960Y-45092D01*
X58960Y-44909D01*
X58890Y-44740D01*
X58761Y-44610D01*
X58592Y-44540D01*
X58409Y-44540D01*
X58240Y-44610D01*
X58110Y-44739D01*
X58092Y-44781D01*
X58016Y-44797D01*
X57944Y-44844D01*
X57942Y-44846D01*
X57936Y-44852D01*
X57890Y-44740D01*
X57761Y-44610D01*
X57592Y-44540D01*
X57409Y-44540D01*
X57240Y-44610D01*
X57110Y-44739D01*
X57040Y-44908D01*
X57040Y-45091D01*
X57056Y-45131D01*
X57044Y-45144D01*
X57042Y-45146D01*
X56958Y-45230D01*
X56902Y-45230D01*
X56960Y-45092D01*
X56960Y-44909D01*
X56890Y-44740D01*
X56761Y-44610D01*
X56592Y-44540D01*
X56409Y-44540D01*
X56240Y-44610D01*
X56110Y-44739D01*
X56040Y-44908D01*
X56040Y-45091D01*
X56097Y-45230D01*
X53896Y-45230D01*
X53955Y-45069D01*
X53946Y-44889D01*
X53894Y-44763D01*
X53820Y-44736D01*
X53764Y-44792D01*
X53764Y-44680D01*
X53737Y-44606D01*
X53569Y-44545D01*
X53389Y-44554D01*
X53263Y-44606D01*
X53236Y-44680D01*
X53500Y-44943D01*
X53764Y-44680D01*
X53764Y-44792D01*
X53557Y-45000D01*
X53500Y-45057D01*
X53443Y-45000D01*
X53401Y-44958D01*
X53180Y-44736D01*
X53106Y-44763D01*
X53045Y-44931D01*
X53054Y-45111D01*
X53103Y-45230D01*
X52980Y-45230D01*
X52980Y-43836D01*
X52980Y-43764D01*
X52980Y-43164D01*
X52953Y-43098D01*
X52902Y-43047D01*
X52836Y-43020D01*
X52764Y-43020D01*
X52164Y-43020D01*
X52098Y-43047D01*
X52047Y-43098D01*
X52020Y-43164D01*
X52020Y-43236D01*
X52020Y-43836D01*
X52047Y-43902D01*
X52098Y-43953D01*
X52164Y-43980D01*
X52236Y-43980D01*
X52836Y-43980D01*
X52902Y-43953D01*
X52953Y-43902D01*
X52980Y-43836D01*
X52980Y-45230D01*
X51960Y-45230D01*
X51960Y-44092D01*
X51960Y-43909D01*
X51890Y-43740D01*
X51761Y-43610D01*
X51592Y-43540D01*
X51409Y-43540D01*
X51368Y-43556D01*
X51292Y-43480D01*
X51220Y-43433D01*
X51136Y-43415D01*
X51131Y-43416D01*
X51050Y-43416D01*
X51050Y-41968D01*
X51050Y-41761D01*
X50971Y-41570D01*
X50825Y-41423D01*
X50634Y-41344D01*
X50427Y-41344D01*
X50236Y-41423D01*
X50089Y-41569D01*
X50010Y-41760D01*
X50010Y-41967D01*
X50089Y-42158D01*
X50235Y-42305D01*
X50426Y-42384D01*
X50633Y-42384D01*
X50824Y-42305D01*
X50971Y-42159D01*
X51050Y-41968D01*
X51050Y-43416D01*
X51001Y-43416D01*
X50971Y-43342D01*
X50825Y-43195D01*
X50634Y-43116D01*
X50427Y-43116D01*
X50236Y-43195D01*
X50089Y-43341D01*
X50010Y-43532D01*
X50010Y-43739D01*
X50089Y-43930D01*
X50235Y-44077D01*
X50426Y-44156D01*
X50633Y-44156D01*
X50824Y-44077D01*
X50971Y-43931D01*
X51002Y-43856D01*
X51044Y-43856D01*
X51056Y-43868D01*
X51040Y-43908D01*
X51040Y-44091D01*
X51110Y-44260D01*
X51239Y-44390D01*
X51408Y-44460D01*
X51591Y-44460D01*
X51760Y-44390D01*
X51890Y-44261D01*
X51960Y-44092D01*
X51960Y-45230D01*
X49899Y-45230D01*
X49814Y-45247D01*
X49785Y-45265D01*
X49743Y-45294D01*
X49741Y-45296D01*
X49128Y-45908D01*
X49089Y-45892D01*
X48906Y-45892D01*
X48865Y-45908D01*
X48490Y-45533D01*
X48490Y-43740D01*
X48490Y-43533D01*
X48490Y-41968D01*
X48490Y-41761D01*
X48411Y-41570D01*
X48265Y-41423D01*
X48074Y-41344D01*
X47867Y-41344D01*
X47676Y-41423D01*
X47529Y-41569D01*
X47450Y-41760D01*
X47450Y-41967D01*
X47529Y-42158D01*
X47675Y-42305D01*
X47866Y-42384D01*
X48073Y-42384D01*
X48264Y-42305D01*
X48411Y-42159D01*
X48490Y-41968D01*
X48490Y-43533D01*
X48411Y-43342D01*
X48265Y-43195D01*
X48074Y-43116D01*
X47867Y-43116D01*
X47676Y-43195D01*
X47529Y-43341D01*
X47450Y-43532D01*
X47450Y-43739D01*
X47529Y-43930D01*
X47675Y-44077D01*
X47866Y-44156D01*
X48073Y-44156D01*
X48264Y-44077D01*
X48411Y-43931D01*
X48490Y-43740D01*
X48490Y-45533D01*
X46515Y-43558D01*
X46515Y-40526D01*
X46792Y-40803D01*
X46794Y-40806D01*
X46866Y-40853D01*
X46950Y-40870D01*
X47574Y-40870D01*
X47579Y-40871D01*
X47579Y-40870D01*
X47663Y-40853D01*
X47735Y-40806D01*
X47936Y-40603D01*
X47938Y-40602D01*
X47939Y-40602D01*
X47986Y-40530D01*
X48003Y-40446D01*
X48003Y-39374D01*
X48003Y-38783D01*
X47986Y-38699D01*
X47939Y-38627D01*
X47936Y-38625D01*
X45477Y-36165D01*
X45477Y-35660D01*
X45517Y-35644D01*
X45647Y-35515D01*
X45717Y-35346D01*
X45717Y-35163D01*
X45647Y-34994D01*
X45518Y-34864D01*
X45349Y-34794D01*
X45166Y-34794D01*
X45162Y-34795D01*
X45644Y-34312D01*
X45685Y-34329D01*
X45868Y-34329D01*
X46037Y-34259D01*
X46167Y-34130D01*
X46183Y-34089D01*
X46276Y-34089D01*
X46281Y-34090D01*
X46281Y-34089D01*
X46365Y-34072D01*
X46437Y-34025D01*
X46904Y-33557D01*
X47420Y-33557D01*
X48167Y-34303D01*
X48169Y-34306D01*
X48240Y-34352D01*
X48241Y-34353D01*
X48307Y-34366D01*
X48324Y-34370D01*
X48324Y-34369D01*
X48325Y-34370D01*
X51808Y-34370D01*
X53092Y-35653D01*
X53094Y-35656D01*
X53166Y-35703D01*
X53250Y-35720D01*
X54995Y-35720D01*
X55000Y-35721D01*
X55000Y-35720D01*
X55084Y-35703D01*
X55156Y-35656D01*
X55368Y-35443D01*
X55408Y-35460D01*
X55591Y-35460D01*
X55760Y-35390D01*
X55890Y-35261D01*
X55960Y-35092D01*
X55960Y-34909D01*
X55890Y-34740D01*
X55761Y-34610D01*
X55592Y-34540D01*
X55409Y-34540D01*
X55240Y-34610D01*
X55110Y-34739D01*
X55040Y-34908D01*
X55040Y-35091D01*
X55056Y-35131D01*
X54908Y-35280D01*
X54870Y-35280D01*
X54890Y-35261D01*
X54960Y-35092D01*
X54960Y-34909D01*
X54890Y-34740D01*
X54761Y-34610D01*
X54634Y-34557D01*
X54634Y-33334D01*
X54634Y-33127D01*
X54634Y-30774D01*
X54634Y-30567D01*
X54555Y-30376D01*
X54409Y-30229D01*
X54218Y-30150D01*
X54011Y-30150D01*
X53820Y-30229D01*
X53673Y-30375D01*
X53594Y-30566D01*
X53594Y-30773D01*
X53673Y-30964D01*
X53819Y-31111D01*
X54010Y-31190D01*
X54217Y-31190D01*
X54408Y-31111D01*
X54555Y-30965D01*
X54634Y-30774D01*
X54634Y-33127D01*
X54555Y-32936D01*
X54409Y-32789D01*
X54218Y-32710D01*
X54011Y-32710D01*
X53820Y-32789D01*
X53673Y-32935D01*
X53594Y-33126D01*
X53594Y-33333D01*
X53673Y-33524D01*
X53819Y-33671D01*
X54010Y-33750D01*
X54217Y-33750D01*
X54408Y-33671D01*
X54555Y-33525D01*
X54634Y-33334D01*
X54634Y-34557D01*
X54592Y-34540D01*
X54409Y-34540D01*
X54240Y-34610D01*
X54110Y-34739D01*
X54040Y-34908D01*
X54040Y-35091D01*
X54110Y-35260D01*
X54129Y-35280D01*
X53870Y-35280D01*
X53890Y-35261D01*
X53960Y-35092D01*
X53960Y-34909D01*
X53890Y-34740D01*
X53761Y-34610D01*
X53592Y-34540D01*
X53409Y-34540D01*
X53240Y-34610D01*
X53110Y-34739D01*
X53093Y-34780D01*
X53071Y-34780D01*
X52124Y-33832D01*
X52052Y-33785D01*
X51968Y-33767D01*
X51963Y-33768D01*
X50032Y-33768D01*
X49379Y-33114D01*
X49379Y-30017D01*
X49362Y-29933D01*
X49318Y-29867D01*
X49318Y-29865D01*
X49318Y-28880D01*
X49345Y-28908D01*
X49514Y-28978D01*
X49697Y-28978D01*
X49866Y-28908D01*
X49996Y-28779D01*
X50066Y-28610D01*
X50066Y-28427D01*
X49996Y-28258D01*
X49867Y-28128D01*
X49724Y-28068D01*
X49994Y-27799D01*
X50341Y-27799D01*
X50358Y-27839D01*
X50487Y-27969D01*
X50656Y-28039D01*
X50839Y-28039D01*
X51008Y-27969D01*
X51138Y-27840D01*
X51208Y-27671D01*
X51208Y-27488D01*
X51138Y-27319D01*
X51132Y-27313D01*
X51712Y-27313D01*
X52684Y-28284D01*
X52686Y-28287D01*
X52725Y-28312D01*
X52758Y-28391D01*
X52887Y-28521D01*
X53056Y-28591D01*
X53239Y-28591D01*
X53408Y-28521D01*
X53428Y-28501D01*
X53428Y-28590D01*
X53388Y-28607D01*
X53258Y-28736D01*
X53188Y-28905D01*
X53188Y-29088D01*
X53258Y-29257D01*
X53387Y-29387D01*
X53556Y-29457D01*
X53739Y-29457D01*
X53908Y-29387D01*
X54038Y-29258D01*
X54108Y-29089D01*
X54108Y-28906D01*
X54038Y-28737D01*
X53909Y-28607D01*
X53868Y-28590D01*
X53868Y-28018D01*
X53867Y-28017D01*
X53868Y-28017D01*
X53864Y-28000D01*
X53851Y-27934D01*
X53850Y-27933D01*
X53804Y-27862D01*
X53801Y-27860D01*
X53483Y-27541D01*
X53443Y-27515D01*
X59593Y-27515D01*
X59610Y-27555D01*
X59739Y-27685D01*
X59908Y-27755D01*
X60091Y-27755D01*
X60260Y-27685D01*
X60390Y-27556D01*
X60460Y-27387D01*
X60460Y-27204D01*
X60390Y-27035D01*
X60261Y-26905D01*
X60092Y-26835D01*
X59909Y-26835D01*
X59740Y-26905D01*
X59610Y-27034D01*
X59593Y-27075D01*
X54329Y-27075D01*
X54329Y-25869D01*
X54329Y-25686D01*
X54259Y-25517D01*
X54130Y-25387D01*
X53961Y-25317D01*
X53778Y-25317D01*
X53609Y-25387D01*
X53479Y-25516D01*
X53409Y-25685D01*
X53409Y-25868D01*
X53479Y-26037D01*
X53608Y-26167D01*
X53777Y-26237D01*
X53960Y-26237D01*
X54129Y-26167D01*
X54259Y-26038D01*
X54329Y-25869D01*
X54329Y-27075D01*
X52912Y-27075D01*
X52896Y-27059D01*
X52913Y-27020D01*
X52913Y-26837D01*
X52843Y-26668D01*
X52714Y-26538D01*
X52545Y-26468D01*
X52362Y-26468D01*
X52193Y-26538D01*
X52181Y-26549D01*
X50566Y-26549D01*
X50550Y-26509D01*
X50421Y-26379D01*
X50380Y-26362D01*
X50380Y-24643D01*
X50612Y-24411D01*
X50652Y-24428D01*
X50835Y-24428D01*
X51004Y-24358D01*
X51024Y-24338D01*
X51024Y-24427D01*
X50984Y-24444D01*
X50854Y-24573D01*
X50784Y-24742D01*
X50784Y-24925D01*
X50854Y-25094D01*
X50983Y-25224D01*
X51152Y-25294D01*
X51335Y-25294D01*
X51504Y-25224D01*
X51634Y-25095D01*
X51650Y-25054D01*
X52711Y-25054D01*
X52716Y-25055D01*
X52716Y-25054D01*
X52800Y-25037D01*
X52872Y-24990D01*
X53003Y-24858D01*
X53003Y-24954D01*
X53019Y-24994D01*
X52277Y-25736D01*
X52214Y-25672D01*
X52045Y-25602D01*
X51862Y-25602D01*
X51693Y-25672D01*
X51563Y-25801D01*
X51493Y-25970D01*
X51493Y-26153D01*
X51563Y-26322D01*
X51692Y-26452D01*
X51861Y-26522D01*
X52044Y-26522D01*
X52213Y-26452D01*
X52343Y-26323D01*
X52374Y-26247D01*
X52420Y-26218D01*
X53330Y-25306D01*
X53371Y-25323D01*
X53554Y-25323D01*
X53723Y-25253D01*
X53853Y-25124D01*
X53869Y-25083D01*
X54768Y-25083D01*
X54810Y-25125D01*
X54794Y-25165D01*
X54794Y-25348D01*
X54864Y-25517D01*
X54993Y-25647D01*
X55162Y-25717D01*
X55345Y-25717D01*
X55514Y-25647D01*
X55644Y-25518D01*
X55660Y-25477D01*
X56339Y-25477D01*
X56341Y-25478D01*
X56425Y-25495D01*
X57535Y-25495D01*
X57540Y-25496D01*
X57540Y-25495D01*
X57624Y-25478D01*
X57696Y-25431D01*
X58066Y-25060D01*
X58106Y-25077D01*
X58289Y-25077D01*
X58458Y-25007D01*
X58588Y-24878D01*
X58658Y-24709D01*
X58658Y-24526D01*
X58618Y-24430D01*
X59248Y-25059D01*
X59250Y-25062D01*
X59322Y-25109D01*
X59406Y-25126D01*
X59593Y-25126D01*
X59610Y-25166D01*
X59739Y-25296D01*
X59908Y-25366D01*
X60091Y-25366D01*
X60260Y-25296D01*
X60390Y-25167D01*
X60460Y-24998D01*
X60460Y-24815D01*
X60390Y-24646D01*
X60261Y-24516D01*
X60092Y-24446D01*
X59909Y-24446D01*
X59740Y-24516D01*
X59610Y-24645D01*
X59593Y-24686D01*
X59497Y-24686D01*
X58856Y-24044D01*
X58784Y-23997D01*
X58700Y-23979D01*
X58695Y-23980D01*
X58387Y-23980D01*
X58484Y-23884D01*
X58500Y-23843D01*
X59540Y-23843D01*
X59540Y-23997D01*
X59610Y-24166D01*
X59739Y-24296D01*
X59908Y-24366D01*
X60091Y-24366D01*
X60260Y-24296D01*
X60390Y-24167D01*
X60406Y-24126D01*
X60999Y-24126D01*
X61358Y-24484D01*
X61342Y-24525D01*
X61342Y-24641D01*
X60131Y-25851D01*
X60092Y-25835D01*
X59909Y-25835D01*
X59740Y-25905D01*
X59610Y-26034D01*
X59540Y-26203D01*
X59540Y-26386D01*
X59610Y-26555D01*
X59739Y-26685D01*
X59908Y-26755D01*
X60091Y-26755D01*
X60260Y-26685D01*
X60390Y-26556D01*
X60460Y-26387D01*
X60460Y-26204D01*
X60443Y-26163D01*
X61582Y-25024D01*
X61710Y-25077D01*
X61893Y-25077D01*
X62062Y-25007D01*
X62192Y-24878D01*
X62262Y-24709D01*
X62262Y-24526D01*
X62246Y-24489D01*
X63052Y-23683D01*
X63009Y-23789D01*
X63009Y-23972D01*
X63079Y-24141D01*
X63208Y-24271D01*
X63377Y-24341D01*
X63560Y-24341D01*
X63729Y-24271D01*
X63859Y-24142D01*
X63929Y-23973D01*
X63929Y-23790D01*
X63879Y-23670D01*
X64109Y-23670D01*
X64612Y-24172D01*
X64596Y-24213D01*
X64596Y-24396D01*
X64666Y-24565D01*
X64795Y-24695D01*
X64837Y-24712D01*
X64853Y-24786D01*
X64868Y-24809D01*
X64838Y-24797D01*
X64655Y-24797D01*
X64486Y-24867D01*
X64356Y-24996D01*
X64286Y-25165D01*
X64286Y-25348D01*
X64356Y-25517D01*
X64485Y-25647D01*
X64654Y-25717D01*
X64837Y-25717D01*
X65006Y-25647D01*
X65136Y-25518D01*
X65206Y-25349D01*
X65206Y-25166D01*
X65204Y-25162D01*
X65687Y-25644D01*
X65671Y-25685D01*
X65671Y-25868D01*
X65741Y-26037D01*
X65870Y-26167D01*
X66039Y-26237D01*
X66205Y-26237D01*
X66205Y-28158D01*
X66196Y-28167D01*
X66149Y-28239D01*
X66131Y-28323D01*
X66132Y-28327D01*
X66132Y-28590D01*
X66092Y-28607D01*
X65962Y-28736D01*
X65892Y-28905D01*
X65892Y-29088D01*
X65962Y-29257D01*
X66091Y-29387D01*
X66260Y-29457D01*
X66443Y-29457D01*
X66612Y-29387D01*
X66742Y-29258D01*
X66812Y-29089D01*
X66812Y-28906D01*
X66742Y-28737D01*
X66613Y-28607D01*
X66572Y-28590D01*
X66572Y-28501D01*
X66591Y-28521D01*
X66760Y-28591D01*
X66943Y-28591D01*
X67112Y-28521D01*
X67242Y-28392D01*
X67312Y-28223D01*
X67312Y-28040D01*
X67242Y-27871D01*
X67113Y-27741D01*
X67072Y-27724D01*
X67072Y-27714D01*
X67414Y-27371D01*
X67455Y-27388D01*
X67638Y-27388D01*
X67807Y-27318D01*
X67937Y-27189D01*
X67953Y-27148D01*
X68509Y-27148D01*
X68808Y-27447D01*
X68792Y-27487D01*
X68792Y-27670D01*
X68862Y-27839D01*
X68991Y-27969D01*
X69032Y-27985D01*
X69032Y-28222D01*
X69031Y-28227D01*
X69049Y-28311D01*
X69096Y-28383D01*
X69892Y-29178D01*
X69894Y-29181D01*
X69936Y-29209D01*
X69965Y-29228D01*
X69966Y-29228D01*
X70050Y-29245D01*
X70620Y-29245D01*
X70625Y-29246D01*
X70625Y-29245D01*
X70709Y-29228D01*
X70781Y-29181D01*
X70844Y-29117D01*
X70844Y-29809D01*
X70843Y-29814D01*
X70861Y-29898D01*
X70908Y-29970D01*
X71100Y-30162D01*
X71100Y-31233D01*
X68483Y-33850D01*
X66390Y-33850D01*
X66306Y-33867D01*
X66234Y-33914D01*
X66232Y-33916D01*
X65603Y-34544D01*
X65592Y-34540D01*
X65409Y-34540D01*
X65240Y-34610D01*
X65110Y-34739D01*
X65040Y-34908D01*
X65040Y-35091D01*
X65110Y-35260D01*
X65239Y-35390D01*
X65408Y-35460D01*
X65591Y-35460D01*
X65760Y-35390D01*
X65808Y-35342D01*
X65828Y-35373D01*
X66142Y-35687D01*
X66214Y-35734D01*
X66298Y-35752D01*
X66298Y-35751D01*
X66302Y-35751D01*
X74002Y-35751D01*
X74218Y-35966D01*
X74218Y-37121D01*
M02*
